<svg width="64" height="64" viewBox="0 0 64 64" fill="none" xmlns="http://www.w3.org/2000/svg">
<path d="M32 60C16.56 60 4 47.44 4 32C4 16.56 16.56 4 32 4C47.44 4 60 16.56 60 32C60 47.44 47.44 60 32 60ZM32 8C18.76 8 8 18.76 8 32C8 45.24 18.76 56 32 56C45.24 56 56 45.24 56 32C56 18.76 45.24 8 32 8Z" fill="#DADADA"/>
<path d="M32 46C30.88 46 30 45.12 30 44V20C30 18.88 30.88 18 32 18C33.12 18 34 18.88 34 20V44C34 45.12 33.12 46 32 46Z" fill="#DADADA"/>
<path d="M44 34H20C18.88 34 18 33.12 18 32C18 30.88 18.88 30 20 30H44C45.12 30 46 30.88 46 32C46 33.12 45.12 34 44 34Z" fill="#DADADA"/>
</svg>
