<svg width="32" height="32" viewBox="0 0 32 32" fill="none" xmlns="http://www.w3.org/2000/svg">
<path fill-rule="evenodd" clip-rule="evenodd" d="M16.0211 6.53336C9.88879 6.53336 5.24216 10.7628 5.24216 15.6091C5.24216 17.3505 5.82564 18.9848 6.85559 20.3706C7.00939 20.5776 7.09245 20.8286 7.09245 21.0864C7.09245 22.926 6.37285 24.6648 5.62717 26.3139C7.91171 26.055 9.40709 25.3131 10.3108 24.2506C10.6385 23.8652 11.1728 23.7268 11.6464 23.9045C12.9797 24.4048 14.4591 24.6848 16.0211 24.6848C22.1534 24.6848 26.8001 20.4554 26.8001 15.6091C26.8001 10.7628 22.1534 6.53336 16.0211 6.53336ZM2.84216 15.6091C2.84216 9.10514 8.92185 4.13336 16.0211 4.13336C23.1204 4.13336 29.2001 9.10514 29.2001 15.6091C29.2001 22.113 23.1204 27.0848 16.0211 27.0848C14.4578 27.0848 12.9544 26.8478 11.5578 26.4108C9.89367 27.9482 7.48795 28.6838 4.56027 28.7987C3.32436 28.8472 2.42903 27.5624 2.94823 26.4089C3.65293 24.8323 4.54451 23.2051 4.67827 21.4504C3.51713 19.7542 2.84216 17.7536 2.84216 15.6091Z" fill="#AEAEAE"/>
</svg>
