<svg width="33" height="32" viewBox="0 0 33 32" fill="none" xmlns="http://www.w3.org/2000/svg">
<path fill-rule="evenodd" clip-rule="evenodd" d="M16.2711 6.5333C10.1388 6.5333 5.49216 10.7627 5.49216 15.609C5.49216 17.3504 6.07564 18.9848 7.10559 20.3706C7.25939 20.5775 7.34245 20.8285 7.34245 21.0864C7.34245 22.926 6.62285 24.6648 5.87717 26.3139C8.16171 26.0549 9.65709 25.313 10.5608 24.2505C10.8885 23.8651 11.4228 23.7267 11.8964 23.9044C13.2297 24.4047 14.7091 24.6847 16.2711 24.6847C22.4034 24.6847 27.0501 20.4553 27.0501 15.609C27.0501 10.7627 22.4034 6.5333 16.2711 6.5333ZM3.09216 15.609C3.09216 9.10508 9.17185 4.1333 16.2711 4.1333C23.3704 4.1333 29.4501 9.10508 29.4501 15.609C29.4501 22.113 23.3704 27.0847 16.2711 27.0847C14.7078 27.0847 13.2044 26.8478 11.8078 26.4108C10.1437 27.9481 7.73795 28.6837 4.81027 28.7987C3.57436 28.8472 2.67903 27.5623 3.19823 26.4088C3.90293 24.8323 4.79451 23.2051 4.92827 21.4504C3.76713 19.7542 3.09216 17.7535 3.09216 15.609Z" fill="#898989"/>
</svg>
