<svg width="256" height="256" viewBox="0 0 256 256" fill="none" xmlns="http://www.w3.org/2000/svg">
<path d="M48.1495 116.141C48.1495 116.141 83.5972 114.721 91.2575 56.453C98.06 4.70504 157.834 28.2588 175.113 48.8868C197.495 75.6086 185.564 121.576 214.519 127.383C243.473 133.19 224.565 197.753 180.614 191.573C125.939 183.886 139.167 215.835 122.754 229.357C110.975 239.062 62.676 229.72 61.0662 194.489C59.7116 164.843 47.2063 164.937 38.3424 161.575C25.5586 156.727 17.5035 121.616 48.1495 116.141Z" fill="#FFF5EA"/>
<path d="M168.651 180.852L133.825 146.438L126.929 153.417L161.755 187.83L168.651 180.852Z" fill="#FFD399"/>
<path d="M181.955 190.099L154.86 163.325C154.709 163.176 154.466 163.177 154.317 163.328L144.062 173.707C143.913 173.858 143.914 174.101 144.065 174.25L171.16 201.023C171.311 201.172 171.554 201.171 171.703 201.02L181.958 190.642C182.107 190.491 182.106 190.248 181.955 190.099Z" fill="#DF853B"/>
<path d="M102.959 163.746C126.918 163.746 146.341 144.323 146.341 120.363C146.341 96.4039 126.918 76.981 102.959 76.981C78.9991 76.981 59.5762 96.4039 59.5762 120.363C59.5762 144.323 78.9991 163.746 102.959 163.746Z" fill="#DF853B"/>
<path d="M102.959 156.667C123.009 156.667 139.263 140.413 139.263 120.363C139.263 100.313 123.009 84.0596 102.959 84.0596C82.909 84.0596 66.6553 100.313 66.6553 120.363C66.6553 140.413 82.909 156.667 102.959 156.667Z" fill="#FFF5EA"/>
<path d="M176.301 81.1451C166.125 77.8467 155.128 83.4253 151.816 93.6432C148.518 103.819 154.097 114.816 164.315 118.128C174.533 121.44 185.501 115.807 188.8 105.63C192.099 95.4535 186.478 84.4434 176.301 81.1451ZM173.231 90.6184C174.37 90.9876 175.374 91.6868 176.115 92.6273C176.856 93.5677 177.301 94.7071 177.394 95.9009C177.486 97.0947 177.222 98.2891 176.635 99.3326C176.048 100.376 175.164 101.222 174.096 101.762C173.027 102.303 171.822 102.514 170.634 102.369C169.445 102.223 168.327 101.728 167.42 100.946C166.513 100.165 165.859 99.131 165.54 97.9768C165.222 96.8226 165.253 95.5998 165.631 94.4634C166.65 91.3195 170.087 89.5994 173.231 90.6184ZM165.548 114.322C162.167 113.232 159.271 111 157.354 108.009C160.94 105.972 164.69 105.404 168.082 106.504C171.475 107.603 174.233 110.234 175.887 114.016C172.581 115.314 168.926 115.423 165.548 114.322Z" fill="#FFD399"/>
<path d="M91.6039 173.875C89.8363 174.777 88.376 176.183 87.4076 177.915C86.4392 179.648 86.0062 181.628 86.1633 183.606C86.3205 185.584 87.0607 187.472 88.2904 189.029C89.5201 190.587 91.1841 191.745 93.0719 192.357C94.9597 192.968 96.9865 193.007 98.8961 192.467C100.806 191.927 102.512 190.832 103.8 189.323C105.088 187.813 105.899 185.955 106.13 183.984C106.362 182.013 106.004 180.018 105.102 178.25C103.89 175.882 101.788 174.091 99.2578 173.271C96.7272 172.451 93.9745 172.668 91.6039 173.875ZM93.9409 178.453C94.4914 178.172 95.113 178.061 95.7267 178.134C96.3405 178.207 96.9189 178.46 97.3885 178.862C97.858 179.264 98.1976 179.796 98.3642 180.391C98.5308 180.987 98.5168 181.618 98.3241 182.205C98.1314 182.792 97.7686 183.309 97.2817 183.69C96.7948 184.071 96.2058 184.298 95.5894 184.344C94.973 184.389 94.357 184.251 93.8194 183.946C93.2819 183.641 92.8471 183.183 92.5701 182.63C92.2031 181.894 92.1411 181.042 92.3977 180.26C92.6543 179.478 93.2088 178.829 93.9409 178.453V178.453ZM99.7883 189.909C98.1564 190.745 96.2847 190.988 94.4936 190.596C95.0587 188.543 96.2202 186.967 97.86 186.131C99.4998 185.294 101.466 185.247 103.451 186.024C102.717 187.704 101.423 189.078 99.7883 189.909V189.909Z" fill="#FFD399"/>
</svg>
