<svg width="22" height="22" viewBox="0 0 22 22" fill="none" xmlns="http://www.w3.org/2000/svg">
<path fill-rule="evenodd" clip-rule="evenodd" d="M14.6206 11.5825C14.6509 11.3928 14.6666 11.1982 14.6666 10.9999C14.6666 8.97487 13.025 7.33325 10.9999 7.33325C10.8017 7.33325 10.6071 7.34899 10.4173 7.37928L14.6206 11.5825ZM7.87546 9.08003C7.5316 9.63844 7.33325 10.296 7.33325 10.9999C7.33325 13.025 8.97487 14.6666 10.9999 14.6666C11.7038 14.6666 12.3614 14.4682 12.9198 14.1244L11.4109 12.6155C11.2795 12.6489 11.1418 12.6666 10.9999 12.6666C10.0794 12.6666 9.33325 11.9204 9.33325 10.9999C9.33325 10.8581 9.35097 10.7204 9.38432 10.5889L7.87546 9.08003Z" fill="#9CA3B0"/>
<path fill-rule="evenodd" clip-rule="evenodd" d="M15.092 16.2967L13.6169 14.8215C12.7761 15.2418 11.8938 15.5 11 15.5C9.65124 15.5 8.32834 14.9118 7.13523 14.0663C5.94924 13.2258 4.97177 12.1874 4.33525 11.4244C4.23476 11.304 4.15994 11.2141 4.09801 11.1351C4.04985 11.0736 4.01908 11.0307 3.99898 11C4.01908 10.9693 4.04985 10.9264 4.09801 10.8649C4.15994 10.7859 4.23476 10.696 4.33525 10.5756C4.92922 9.86357 5.82006 8.91184 6.90019 8.10482L5.47338 6.67801C4.32966 7.56951 3.40945 8.56321 2.79947 9.29442C2.77586 9.32272 2.75126 9.35182 2.72594 9.38176C2.40952 9.75601 1.9812 10.2626 1.9812 11C1.9812 11.7374 2.40952 12.244 2.72595 12.6182L2.72597 12.6183C2.75127 12.6482 2.77587 12.6773 2.79947 12.7056C3.4969 13.5416 4.59988 14.7208 5.9788 15.698C7.35059 16.6702 9.07705 17.5 11 17.5C12.5109 17.5 13.9005 16.9878 15.092 16.2967ZM8.13397 5.09596C9.01857 4.73268 9.98174 4.5 11 4.5C12.923 4.5 14.6495 5.32978 16.0213 6.30196C17.4002 7.27919 18.5032 8.45838 19.2006 9.29442C19.2242 9.32272 19.2488 9.35182 19.2741 9.38176C19.5905 9.75601 20.0189 10.2626 20.0189 11C20.0189 11.7374 19.5905 12.244 19.2741 12.6182C19.2488 12.6482 19.2242 12.6773 19.2006 12.7056C18.7785 13.2115 18.208 13.8431 17.5176 14.4796L16.1021 13.0641C16.7348 12.487 17.2666 11.9018 17.6648 11.4244C17.7653 11.304 17.8401 11.2141 17.9021 11.1351C17.9502 11.0736 17.981 11.0307 18.0011 11C17.981 10.9693 17.9502 10.9264 17.9021 10.8649C17.8401 10.7859 17.7653 10.696 17.6648 10.5756C17.0283 9.81255 16.0508 8.77424 14.8648 7.93373C13.6717 7.08818 12.3488 6.5 11 6.5C10.5661 6.5 10.1348 6.56089 9.70965 6.67164L8.13397 5.09596Z" fill="#9CA3B0"/>
<path d="M4.58325 1.83325L19.2499 16.4999" stroke="#9CA3B0" stroke-width="2"/>
</svg>
