<svg width="24" height="24" viewBox="0 0 24 24" fill="none" xmlns="http://www.w3.org/2000/svg">
<path fill-rule="evenodd" clip-rule="evenodd" d="M6.24246 8.90004C6.62114 10.0611 7.71264 10.9 9.0001 10.9C10.2876 10.9 11.3791 10.0611 11.7577 8.90004C14.5052 8.90004 17.2526 8.90004 20.0001 8.90004C20.4972 8.90004 20.9001 8.49709 20.9001 8.00004C20.9001 7.50298 20.4972 7.10004 20.0001 7.10004C17.2526 7.10004 14.5052 7.10004 11.7577 7.10004C11.748 7.06967 11.761 7.11013 11.7577 7.10004C11.3791 5.939 10.2876 5.10004 9.0001 5.10004C7.71264 5.10004 6.62114 5.939 6.24246 7.10004C5.49501 7.10004 4.74755 7.10004 4.0001 7.10004C3.50304 7.10004 3.1001 7.50298 3.1001 8.00004C3.1001 8.49709 3.50304 8.90004 4.0001 8.90004C4.74755 8.90004 5.49501 8.90004 6.24246 8.90004ZM9.0001 6.90004C8.39258 6.90004 7.9001 7.39252 7.9001 8.00004C7.9001 8.60755 8.39258 9.10004 9.0001 9.10004C9.60761 9.10004 10.1001 8.60755 10.1001 8.00004C10.1001 7.39252 9.60761 6.90004 9.0001 6.90004Z" fill="#DF853B"/>
<path fill-rule="evenodd" clip-rule="evenodd" d="M3.1001 16C3.1001 15.503 3.50304 15.1 4.0001 15.1C6.74755 15.1 9.49501 15.1 12.2425 15.1C12.6211 13.939 13.7126 13.1 15.0001 13.1C16.2876 13.1 17.3791 13.939 17.7577 15.1C17.7577 15.1 19.4787 15.1 20.0001 15.1C20.4972 15.1 20.9001 15.503 20.9001 16C20.9001 16.4971 20.4972 16.9 20.0001 16.9C19.7779 16.9 17.7577 16.9 17.7577 16.9C17.3791 18.0611 16.2876 18.9 15.0001 18.9C13.7126 18.9 12.6211 18.0611 12.2425 16.9C9.49501 16.9 6.74755 16.9 4.0001 16.9C3.50304 16.9 3.1001 16.4971 3.1001 16ZM13.9001 16C13.9001 15.3925 14.3926 14.9 15.0001 14.9C15.6076 14.9 16.1001 15.3925 16.1001 16C16.1001 16.6075 15.6076 17.1 15.0001 17.1C14.3926 17.1 13.9001 16.6075 13.9001 16Z" fill="#DF853B"/>
</svg>
