<svg width="253" height="253" viewBox="0 0 253 253" fill="none" xmlns="http://www.w3.org/2000/svg">
<g clip-path="url(#clip0_1_378)">
<path d="M218.67 195.179C218.778 195.126 218.845 195.016 218.845 194.897V102.797C218.845 102.678 218.778 102.568 218.67 102.515L126.8 56.4149C126.711 56.37 126.606 56.37 126.516 56.4149L34.6455 102.515C34.5386 102.568 34.4713 102.678 34.4713 102.797V194.897C34.4713 195.016 34.5386 195.126 34.6458 195.179L126.516 241.279C126.606 241.324 126.711 241.324 126.8 241.279L218.67 195.179Z" fill="#FFF0CA"/>
<path d="M234.913 13.65H100.388C97.3434 13.65 94.875 16.1184 94.875 19.1633V117.3C94.875 120.345 97.3434 122.813 100.388 122.813H234.913C237.958 122.813 240.426 120.345 240.426 117.3V19.1633C240.426 16.1184 237.958 13.65 234.913 13.65Z" fill="#EBF9FE"/>
<path d="M159.932 28.5358H113.62C112.403 28.5358 111.415 29.5232 111.415 30.7411V48.935C111.415 50.153 112.403 51.1403 113.62 51.1403H159.932C161.15 51.1403 162.138 50.153 162.138 48.935V30.7411C162.138 29.5232 161.15 28.5358 159.932 28.5358Z" fill="#FFF0CA"/>
<path d="M159.932 57.2049H113.62C112.403 57.2049 111.415 58.1922 111.415 59.4102V77.6041C111.415 78.822 112.403 79.8094 113.62 79.8094H159.932C161.15 79.8094 162.138 78.822 162.138 77.6041V59.4102C162.138 58.1922 161.15 57.2049 159.932 57.2049Z" fill="#FFF0CA"/>
<path d="M159.932 85.8739H113.62C112.403 85.8739 111.415 86.8613 111.415 88.0792V106.273C111.415 107.491 112.403 108.478 113.62 108.478H159.932C161.15 108.478 162.138 107.491 162.138 106.273V88.0792C162.138 86.8613 161.15 85.8739 159.932 85.8739Z" fill="#FFF0CA"/>
<path d="M221.129 28.5358H174.817C173.599 28.5358 172.612 29.5232 172.612 30.7411V48.935C172.612 50.153 173.599 51.1403 174.817 51.1403H221.129C222.347 51.1403 223.334 50.153 223.334 48.935V30.7411C223.334 29.5232 222.347 28.5358 221.129 28.5358Z" fill="#FFF0CA"/>
<path d="M221.129 57.2049H174.817C173.599 57.2049 172.612 58.1922 172.612 59.4102V77.6041C172.612 78.822 173.599 79.8094 174.817 79.8094H221.129C222.347 79.8094 223.334 78.822 223.334 77.6041V59.4102C223.334 58.1922 222.347 57.2049 221.129 57.2049Z" fill="#FFF0CA"/>
<path d="M221.129 85.8739H174.817C173.599 85.8739 172.612 86.8613 172.612 88.0792V106.273C172.612 107.491 173.599 108.478 174.817 108.478H221.129C222.347 108.478 223.334 107.491 223.334 106.273V88.0792C223.334 86.8613 222.347 85.8739 221.129 85.8739Z" fill="#FFF0CA"/>
<path d="M114.724 45.627L120.963 40.332C122.009 39.444 123.573 39.5521 124.487 40.5761C125.462 41.6685 127.158 41.7074 128.182 40.6612L130.523 38.27C132.687 36.0591 136.319 36.3175 138.148 38.8127C139.439 40.5726 141.72 41.2956 143.788 40.6005L145.987 39.8614C147.049 39.5047 148.221 39.7267 149.079 40.4474C150.474 41.6201 152.565 41.3984 153.683 39.9594L158.278 34.049" stroke="#FECE00" stroke-width="4"/>
<path d="M175.92 45.627L179.052 42.7042C179.718 42.0825 180.459 41.5452 181.257 41.1046L183.799 39.7021C186.419 38.2571 189.618 38.3612 192.138 39.9737C193.935 41.1236 196.111 41.524 198.199 41.0891L201.557 40.3896L206.71 39.6151C208.117 39.4035 209.399 38.6856 210.315 37.5958C211.838 35.7834 214.303 35.069 216.559 35.7866L218.896 36.5301" stroke="#FECE00" stroke-width="4"/>
<path d="M158.003 71.2638H152.303C150.471 71.2638 148.705 70.5836 147.347 69.3549L147.256 69.2724C145.086 67.3091 141.934 66.8585 139.296 68.1247C137.679 68.9008 135.824 69.0444 134.108 68.5223L132.365 67.9916C131.16 67.6251 129.852 67.8856 128.88 68.6861C127.191 70.0773 124.675 69.7376 123.416 67.9486L122.605 66.7971C121.656 65.4496 120.111 64.6479 118.463 64.6479H114.724" stroke="#F4B510" stroke-width="4"/>
<path d="M175.92 74.2963L185.852 71.6923C186.935 71.4083 187.969 70.9618 188.918 70.3676L192.395 68.1911C194.626 66.7939 197.283 66.238 199.888 66.6235L204.244 67.268C207.216 67.7076 210.238 66.9207 212.618 65.0878L212.831 64.9236L218.924 61.0644" stroke="#FECE00" stroke-width="4"/>
<path d="M114.724 95.7978L119.057 94.1928C121.083 93.4427 123.288 93.3216 125.383 93.8456C126.896 94.2238 128.308 94.9272 129.521 95.9069L134.03 99.5488C134.569 99.9846 135.188 100.311 135.852 100.51L136.561 100.723C138.733 101.374 141.05 100.31 141.971 98.2377C142.929 96.084 145.384 95.0322 147.603 95.8247L150.512 96.8639C151.093 97.0713 151.648 97.3468 152.164 97.6845L158.554 101.863" stroke="#F4B510" stroke-width="4"/>
<path d="M218.649 99.1061L215.504 100.6C212.662 101.951 209.26 100.972 207.571 98.3171C206.557 96.7244 204.877 95.6767 203.001 95.4683L199.813 95.1141C198.965 95.0199 198.149 94.7381 197.423 94.289L196.341 93.6192C194.327 92.3719 191.687 92.9361 190.358 94.8978L189.549 96.0929C188.265 97.9882 185.505 98.0789 184.1 96.2719C183.461 95.4512 182.48 94.9712 181.44 94.9712H175.921" stroke="#F4B510" stroke-width="4"/>
<path d="M226.645 73.994H213.413C212.804 73.994 212.31 74.4876 212.31 75.0966V89.4311C212.31 90.0401 212.804 90.5338 213.413 90.5338H226.645C227.254 90.5338 227.747 90.0401 227.747 89.4311V75.0966C227.747 74.4876 227.254 73.994 226.645 73.994Z" fill="#CCEFFB"/>
<path d="M211.758 72.7075C211.409 72.7075 211.126 72.9908 211.126 73.34V76.5028C211.126 79.4667 210.712 82.4157 209.898 85.2654L208.944 88.6035C208.89 88.7942 208.928 88.9997 209.048 89.1582C209.167 89.3166 209.354 89.4096 209.553 89.4096H222.784C223.067 89.4096 223.315 89.2227 223.393 88.951L224.346 85.613C225.193 82.6504 225.623 79.584 225.623 76.5028V73.34C225.623 72.9908 225.339 72.7075 224.99 72.7075H211.758Z" fill="white" stroke="#CCEFFB" stroke-width="4" stroke-linecap="round" stroke-linejoin="round"/>
<path d="M218.054 85.0713C218.666 85.0713 219.161 84.5757 219.161 83.9644C219.161 83.3531 218.666 82.8575 218.054 82.8575C217.443 82.8575 216.948 83.3531 216.948 83.9644C216.948 84.5757 217.443 85.0713 218.054 85.0713Z" fill="#9DDEF4"/>
<path d="M218.054 81.5925C218.054 80.2573 219.17 79.5992 219.784 78.6691C219.99 78.3569 220.11 77.9853 220.11 77.5866C220.11 76.4806 219.19 75.5837 218.054 75.5837C216.919 75.5837 215.999 76.4806 215.999 77.5866C215.999 78.1207 216.227 78.4768 216.341 78.5881" stroke="#9DDEF4" stroke-width="4" stroke-linejoin="round"/>
<path d="M119.475 44.634H106.243C105.635 44.634 105.141 45.1276 105.141 45.7366V60.0712C105.141 60.6802 105.635 61.1738 106.243 61.1738H119.475C120.084 61.1738 120.578 60.6802 120.578 60.0712V45.7366C120.578 45.1276 120.084 44.634 119.475 44.634Z" fill="#CCEFFB"/>
<path d="M104.589 42.3474C104.239 42.3474 103.956 42.6308 103.956 42.9799V46.1428C103.956 49.1067 103.543 52.0557 102.729 54.9054L101.775 58.2434C101.721 58.4341 101.759 58.6397 101.878 58.7981C101.998 58.9566 102.185 59.0496 102.383 59.0496H115.615C115.898 59.0496 116.146 58.8627 116.223 58.591L117.177 55.253C118.024 52.2903 118.453 49.224 118.453 46.1428V42.9799C118.453 42.6308 118.17 42.3474 117.821 42.3474H104.589Z" fill="#FBCCE4" stroke="#CCEFFB" stroke-width="4" stroke-linecap="round" stroke-linejoin="round"/>
<path d="M106.3 49.5443L108.303 48.4919C108.527 48.3739 108.805 48.458 108.926 48.6807C109.113 49.0251 109.616 48.996 109.763 48.6326L110.186 47.5823C110.522 46.7481 111.704 46.7503 112.037 47.5855L112.293 48.2275C112.572 48.9261 113.543 48.9716 113.886 48.3021C114.141 47.8034 114.792 47.6693 115.224 48.0263L116.103 48.7537" stroke="#F778B9" stroke-width="3"/>
<path d="M105.351 53.3394L106.455 52.3457C106.706 52.1193 107.101 52.1689 107.288 52.4507C107.538 52.8248 108.105 52.7629 108.268 52.3438L108.397 52.013C108.627 51.4207 109.443 51.3777 109.723 51.9488C110.275 53.0794 110.813 54.2748 110.727 54.4463C110.625 54.6506 111.477 53.4953 112.17 52.5431C112.424 52.1936 112.909 52.106 113.269 52.3457C113.679 52.619 114.235 52.4631 114.444 52.0168L115.155 50.4931" stroke="#F778B9" stroke-width="3"/>
<path d="M175.921 37.9086H162.689C162.08 37.9086 161.586 38.4022 161.586 39.0112V53.3458C161.586 53.9548 162.08 54.4484 162.689 54.4484H175.921C176.53 54.4484 177.024 53.9548 177.024 53.3458V39.0112C177.024 38.4022 176.53 37.9086 175.921 37.9086Z" fill="#CCEFFB"/>
<path d="M161.034 35.6221C160.685 35.6221 160.402 35.9051 160.402 36.2546V39.4174C160.402 42.3809 159.989 45.3303 159.175 48.18L158.221 51.518C158.166 51.7087 158.205 51.9143 158.324 52.0727C158.444 52.2312 158.631 52.3242 158.829 52.3242H172.061C172.344 52.3242 172.591 52.1369 172.669 51.8656L173.623 48.5273C174.469 45.5646 174.899 42.4986 174.899 39.4174V36.2546C174.899 35.9051 174.615 35.6221 174.266 35.6221H161.034Z" fill="white" stroke="#CCEFFB" stroke-width="4" stroke-linecap="round" stroke-linejoin="round"/>
<path d="M166.865 40.6844C166.987 40.4747 167.289 40.4747 167.411 40.6844L168.448 42.4642C168.493 42.5411 168.568 42.5955 168.655 42.6141L170.668 43.0502C170.905 43.1015 170.998 43.3892 170.837 43.5701L169.464 45.1062C169.405 45.1723 169.377 45.2605 169.385 45.3487L169.593 47.3984C169.617 47.6393 169.372 47.8171 169.151 47.7193L167.266 46.8889C167.184 46.8528 167.092 46.8528 167.011 46.8889L165.125 47.7193C164.904 47.8171 164.659 47.6393 164.683 47.3984L164.891 45.3487C164.9 45.2605 164.871 45.1723 164.812 45.1062L163.44 43.5701C163.278 43.3892 163.372 43.1015 163.608 43.0502L165.622 42.6141C165.708 42.5955 165.783 42.5411 165.828 42.4642L166.865 40.6844Z" fill="#FECE00"/>
<path d="M57.7536 54.0478C62.8834 54.0478 67.0419 49.8893 67.0419 44.7595C67.0419 39.6297 62.8834 35.4713 57.7536 35.4713C52.6238 35.4713 48.4653 39.6297 48.4653 44.7595C48.4653 49.8893 52.6238 54.0478 57.7536 54.0478Z" fill="#FEDF92"/>
<path d="M48.2009 53.1812L43.4053 55.5651M51.0048 55.0816L47.4761 60.3585L51.0048 55.0816Z" stroke="#FEDF92" stroke-width="4" stroke-linejoin="round"/>
<path d="M57.3203 20.6233L85.7828 47.8208H28.8578L57.3203 20.6233Z" fill="#CCEFFB" stroke="#CCEFFB" stroke-width="4" stroke-linejoin="round"/>
<path d="M57.3203 -19.8568V26.9482" stroke="#CCEFFB" stroke-width="4" stroke-linejoin="round"/>
<path d="M58.19 23.77L81.9087 46.2238" stroke="#EBF9FE" stroke-width="4"/>
<path d="M36.3687 166.241C36.3687 158.74 37.4244 151.803 39.215 146.159C41.0056 151.803 42.0612 158.74 42.0612 166.241C42.0612 171.698 41.5024 176.857 40.5081 181.437C41.936 177.021 44.0138 172.331 46.7095 167.662C50.4599 161.166 54.8428 155.685 59.2153 151.693C57.9443 157.476 55.3896 164.012 51.6395 170.508C49.4498 174.3 47.0447 177.746 44.5517 180.753C47.5371 178.286 50.9533 175.906 54.709 173.738C61.2045 169.987 67.7404 167.433 73.5234 166.162C69.531 170.534 64.0507 174.917 57.5553 178.667C53.8232 180.822 50.0779 182.582 46.4698 183.931C50.4318 183.23 54.7615 182.844 59.2969 182.844C66.7974 182.844 73.735 183.899 79.3787 185.69C73.735 187.481 66.7974 188.536 59.2969 188.536C52.1544 188.536 45.5223 187.579 40.0319 185.941C39.8867 185.977 39.7419 186.013 39.5973 186.047L39.5486 186.093C39.5951 186.143 39.641 186.193 39.6872 186.243C39.6065 186.226 39.5256 186.208 39.4446 186.189C39.3893 186.241 39.3339 186.292 39.2786 186.343C39.2884 186.387 39.2982 186.432 39.308 186.476C39.2912 186.461 39.2741 186.445 39.2574 186.43C39.245 186.419 39.233 186.407 39.2207 186.396C39.1916 186.423 39.1625 186.449 39.1334 186.476C39.1432 186.432 39.153 186.387 39.1631 186.343C39.1068 186.291 39.0505 186.239 38.9943 186.187C38.9095 186.206 38.8251 186.225 38.7406 186.243C38.7887 186.191 38.8371 186.138 38.8855 186.086L38.8782 186.079C33.4808 187.632 27.0222 188.536 20.0819 188.536C12.5815 188.536 5.64373 187.481 0 185.69C5.64373 183.899 12.5815 182.844 20.0819 182.844C23.9881 182.844 27.7417 183.13 31.2393 183.657C27.8538 182.347 24.3573 180.679 20.8725 178.667C14.377 174.917 8.89652 170.534 4.90421 166.162C10.6872 167.433 17.2233 169.987 23.7188 173.738C27.4929 175.917 30.9244 178.309 33.9203 180.789C31.4166 177.775 29.0006 174.315 26.8022 170.508C23.052 164.012 20.4973 157.476 19.2261 151.693C23.5988 155.685 27.9818 161.166 31.7319 167.662C34.4058 172.293 36.4722 176.945 37.8984 181.33C36.919 176.777 36.3687 171.655 36.3687 166.241Z" fill="#C8F9B4"/>
<path d="M36.685 186.322C36.685 184.925 37.8178 183.792 39.215 183.792C40.6122 183.792 41.745 184.925 41.745 186.322V222.059H36.685V186.322Z" fill="#FEDF92"/>
<path d="M55.66 222.059H22.77V224.905H24.803L27.5137 234.392H50.9162L53.6268 224.905H55.66V222.059Z" fill="#FEEBF5"/>
<path d="M148.895 195.991L134.722 149.005H157.651C157.651 149.005 163.343 157.386 162.711 166.557C162.136 174.89 160.125 187.062 159.763 191.304C159.722 191.774 160.208 192.08 160.651 191.914C169.827 188.475 176.756 203.78 180.579 214.943L176.626 218.738L150.291 198.035C149.626 197.513 149.139 196.799 148.895 195.991Z" fill="#7B371F"/>
<path d="M122.711 189.037C122.739 186.541 122.912 178.487 123.97 173.198C125.235 166.873 130.295 149.005 130.295 149.005H144.368C144.368 154.612 143.767 167.65 141.364 174.938L136.736 188.971C136.601 189.38 136.913 189.799 137.335 189.888C144.605 191.414 139.409 212.719 137.885 225.063H131.402L122.889 190.547C122.767 190.052 122.705 189.547 122.711 189.037Z" fill="#7B371F"/>
<path d="M130.149 149.005H158.079C158.209 149.005 158.332 149.061 158.417 149.159C161.797 153.036 163.659 158.006 163.659 163.149V176.202C163.659 176.901 163.093 177.467 162.394 177.467H129.639C129.369 177.467 129.129 177.297 129.041 177.042L128.279 174.84C128.093 174.302 127.345 174.265 127.107 174.782L126.037 177.1C125.934 177.324 125.709 177.467 125.463 177.467H123.719C122.888 177.467 122.283 176.68 122.497 175.876L129.537 149.475C129.611 149.198 129.862 149.005 130.149 149.005Z" fill="#1570FF"/>
<path d="M186.168 213.698C185.007 212.537 183.728 211.5 182.353 210.603L179.799 208.937C178.174 207.878 175.986 208.518 175.189 210.286L174.467 211.886C174.298 212.261 173.823 212.377 173.499 212.124L172.769 211.55C171.762 210.759 170.322 210.845 169.417 211.75L168.66 212.507C167.863 213.304 167.689 214.532 168.234 215.519L169.924 218.582C170.53 219.681 170.554 221.008 169.988 222.127L166.464 229.101C165.971 230.077 166.16 231.259 166.933 232.031L169.439 234.538C169.933 235.032 170.734 235.032 171.228 234.538L188.223 217.542C188.717 217.048 188.717 216.248 188.223 215.753L186.168 213.698Z" fill="#E379F8"/>
<path d="M186.882 214.412L169.439 231.854C169.192 232.101 169.192 232.502 169.439 232.749L169.886 233.196C170.133 233.443 170.534 233.443 170.781 233.196L188.223 215.753L186.882 214.412Z" fill="white"/>
<path d="M169.63 220.929L173.016 220.226L169.438 222.015L172.409 222.175" stroke="#1570FF" stroke-width="2" stroke-linejoin="bevel"/>
<path d="M140.415 230.853C140.415 229.211 140.245 227.574 139.906 225.967L139.278 222.983C138.878 221.085 136.879 219.99 135.064 220.677L133.422 221.298C133.038 221.444 132.619 221.19 132.571 220.782L132.46 219.86C132.307 218.588 131.229 217.631 129.948 217.631H128.877C127.75 217.631 126.759 218.377 126.446 219.459L125.475 222.821C125.127 224.026 124.206 224.981 123.014 225.373L115.59 227.812C114.552 228.153 113.85 229.122 113.85 230.215V233.76C113.85 234.459 114.416 235.025 115.115 235.025H139.15C139.849 235.025 140.415 234.459 140.415 233.76V230.853Z" fill="#E379F8"/>
<path d="M140.415 231.862H115.748C115.398 231.862 115.115 232.145 115.115 232.495V233.127C115.115 233.477 115.398 233.76 115.748 233.76H140.415V231.862Z" fill="white"/>
<path d="M123.609 224.272L126.5 226.17L122.705 224.905L124.693 227.119" stroke="#1570FF" stroke-width="2" stroke-linejoin="bevel"/>
<path d="M156.869 139.201H131.341C131.341 144.578 130.295 149.005 130.295 149.005H157.492L157.456 148.876C156.562 145.732 156.362 142.43 156.869 139.201Z" fill="#7B371F"/>
<path d="M157.809 116.431H144.412C138.345 116.431 133.131 120.739 131.988 126.697L129.923 137.459C129.624 139.019 130.819 140.466 132.408 140.466H156.544C157.242 140.466 157.809 139.9 157.809 139.201V116.431Z" fill="#1570FF"/>
<path d="M157.809 136.355C156.551 136.355 155.344 135.339 154.454 133.53C153.565 131.721 153.065 129.268 153.065 126.709C153.065 124.151 153.565 121.698 154.454 119.889C155.344 118.08 156.551 117.064 157.809 117.064V126.709V136.355Z" fill="#105ACD"/>
<path d="M170.073 141.31L162.059 119.405C161.406 117.619 159.706 116.431 157.804 116.431C154.451 116.431 152.251 119.949 153.698 122.973C156.261 128.327 159.812 135.879 162.116 141.321C162.367 141.915 162.122 142.592 161.595 142.964C154.663 147.847 150.349 162.707 149.744 164.976C149.159 167.17 147.085 172.477 146.778 173.259C146.752 173.326 146.739 173.393 146.736 173.464L146.594 177.295C146.586 177.502 146.681 177.7 146.847 177.824L147.031 177.962C147.407 178.244 147.947 178.033 148.032 177.572L148.617 174.417C148.63 174.343 148.657 174.272 148.696 174.207L150.084 171.893C150.175 171.742 150.407 171.83 150.376 172.004L149.766 175.295C149.752 175.372 149.752 175.452 149.767 175.529L150.465 179.159C150.508 179.384 150.669 179.568 150.886 179.64L151.06 179.698C151.487 179.841 151.923 179.503 151.891 179.053L151.65 175.686C151.645 175.609 151.653 175.532 151.675 175.459L152.442 172.912C152.493 172.744 152.739 172.771 152.751 172.946L152.896 174.945C152.903 175.044 152.933 175.14 152.984 175.225L155.044 178.658C155.184 178.891 155.458 179.009 155.724 178.95L155.938 178.902C156.331 178.815 156.544 178.387 156.376 178.021L155.014 175.05C154.98 174.976 154.961 174.895 154.957 174.813L154.894 173.294C154.886 173.099 155.171 173.066 155.207 173.258L155.376 174.142C155.414 174.344 155.548 174.514 155.733 174.599L158.54 175.885C158.899 176.05 159.321 175.848 159.417 175.463L159.448 175.339C159.509 175.095 159.419 174.838 159.219 174.685L157.714 173.527C157.573 173.418 157.484 173.255 157.469 173.078L157.354 171.693C157.341 171.543 157.387 171.393 157.481 171.275C158.524 169.972 158.603 168.144 157.677 166.755L157.651 166.715L169.936 143.357C170.269 142.725 170.319 141.981 170.073 141.31Z" fill="#7B371F"/>
<path d="M146.74 177.151C146.74 177.501 146.953 177.784 147.214 177.784C147.476 177.784 147.689 177.501 147.689 177.151C147.689 176.802 147.476 176.519 147.214 176.519C146.953 176.519 146.74 176.802 146.74 177.151Z" fill="#FAC798"/>
<path d="M150.535 178.732C150.535 179.082 150.747 179.365 151.009 179.365C151.271 179.365 151.484 179.082 151.484 178.732C151.484 178.383 151.271 178.1 151.009 178.1C150.747 178.1 150.535 178.383 150.535 178.732Z" fill="#FAC798"/>
<path d="M155.061 178.351C155.221 178.672 155.519 178.819 155.726 178.68C155.934 178.542 155.973 178.169 155.813 177.849C155.653 177.528 155.355 177.381 155.147 177.52C154.94 177.659 154.901 178.031 155.061 178.351Z" fill="#FAC798"/>
<path d="M158.351 175.526C158.697 175.636 159.018 175.533 159.067 175.295C159.117 175.058 158.877 174.776 158.531 174.666C158.185 174.555 157.865 174.659 157.815 174.896C157.766 175.134 158.006 175.416 158.351 175.526Z" fill="#FAC798"/>
<path d="M136.227 88.0839C135.908 88.3815 135.373 88.4789 134.992 88.267C134.52 88.0045 133.977 87.8549 133.4 87.8549C131.585 87.8549 130.113 89.3315 130.113 91.1528C130.113 91.7002 130.246 92.2163 130.481 92.6708C130.519 92.7444 130.464 92.8352 130.381 92.8352C128.455 92.8352 126.893 94.4022 126.893 96.3351C126.893 96.9461 127.049 97.5208 127.324 98.0208C127.599 98.522 127.377 99.4496 126.915 99.7851C126.089 100.384 125.551 101.359 125.551 102.459C125.551 103.234 125.817 103.946 126.263 104.508C126.516 104.828 126.517 105.317 126.304 105.664C126.082 106.023 125.954 106.447 125.954 106.901C125.954 107.728 126.379 108.456 127.022 108.876C127.324 109.074 127.513 109.441 127.462 109.799C127.441 109.952 127.429 110.108 127.429 110.266C127.429 112.088 128.901 113.564 130.717 113.564C131.135 113.564 131.534 113.486 131.902 113.343C132.267 113.202 132.71 113.324 132.949 113.633C133.55 114.41 134.49 114.91 135.547 114.91C135.67 114.91 135.793 114.903 135.913 114.89C136.246 114.853 136.582 115.02 136.75 115.311C137.352 116.359 138.481 117.064 139.773 117.064C141.336 117.064 142.659 116.032 143.103 114.611C143.204 114.285 143.502 114.04 143.842 114.062C144.27 114.089 144.703 114.102 145.139 114.102C147.682 114.102 150.089 113.638 152.236 112.808C152.437 112.731 152.661 112.759 152.847 112.867C153.46 113.225 154.173 113.429 154.934 113.429C156.551 113.429 157.952 112.504 158.64 111.152C158.788 110.861 159.107 110.687 159.432 110.718C159.563 110.731 159.696 110.737 159.831 110.737C162.091 110.737 163.923 108.899 163.923 106.632C163.923 106.421 163.907 106.213 163.876 106.011C163.824 105.662 164.014 105.31 164.311 105.12C164.965 104.702 165.399 103.968 165.399 103.132C165.399 102.638 165.247 102.18 164.988 101.801C164.785 101.504 164.752 101.092 164.936 100.782C165.23 100.288 165.399 99.7111 165.399 99.0944C165.399 97.7026 164.539 96.5119 163.324 96.0281C162.955 95.881 162.712 95.4765 162.715 95.0793C162.715 95.0717 162.715 95.0641 162.715 95.0562C162.715 94.276 162.337 93.5841 161.755 93.1556C161.453 92.9336 161.28 92.5357 161.376 92.1739C161.462 91.8482 161.508 91.5057 161.508 91.1528C161.508 88.9599 159.736 87.1819 157.55 87.1819C157.176 87.1819 156.814 87.2341 156.471 87.3315C156.142 87.4248 155.779 87.2929 155.553 87.0361C155.123 86.5478 154.494 86.2398 153.793 86.2398C153.723 86.2398 153.653 86.243 153.584 86.249C153.158 86.2869 152.688 86.0422 152.475 85.6718C152.07 84.9656 151.31 84.49 150.439 84.49C149.742 84.49 149.116 84.7946 148.687 85.2781C148.396 85.6051 147.869 85.7522 147.468 85.5754C147.064 85.3967 146.616 85.2977 146.146 85.2977C145.754 85.2977 145.378 85.3663 145.029 85.4928C144.739 85.5978 144.406 85.5339 144.176 85.3277C143.595 84.8069 142.828 84.49 141.987 84.49C140.533 84.49 139.3 85.4369 138.866 86.7493C138.729 87.1623 138.263 87.4514 137.827 87.4514C137.209 87.4514 136.646 87.6914 136.227 88.0839Z" fill="#1A2027"/>
<path fill-rule="evenodd" clip-rule="evenodd" d="M138.349 109.974C137.648 108.737 137.253 107.263 137.253 105.679C137.253 105.068 137.434 104.624 137.629 104.146C137.812 103.7 137.871 103.217 137.926 102.739C138.309 99.4278 141.311 97.7725 144.368 97.7725C148.215 97.7725 149.405 101.013 150.26 103.345C150.462 103.892 150.644 104.39 150.838 104.783C151.012 105.134 151.456 105.094 151.65 104.755C152.294 103.628 154.014 104.085 154.014 105.382V106.311C154.014 107.01 153.447 107.576 152.749 107.576C152.067 107.576 151.489 108.053 151.243 108.688C151.218 108.751 151.193 108.813 151.167 108.875V116.115C151.167 118.91 148.902 121.175 146.108 121.175H145.295C143.631 121.175 142.42 119.596 142.852 117.989L143.702 114.825C143.557 114.841 143.41 114.85 143.261 114.85C141.996 114.85 140.875 114.23 140.185 113.278C139.713 112.626 139.341 111.89 138.971 111.158C138.769 110.757 138.567 110.358 138.349 109.974Z" fill="#7B371F"/>
<path d="M142.945 103.781L142.724 105.328C142.661 105.769 142.518 106.195 142.302 106.584L141.815 107.459C141.471 108.079 141.919 108.841 142.629 108.841" stroke="#1A2027" stroke-width="0.5"/>
<path d="M140.731 107.576C140.731 107.926 141.014 108.209 141.364 108.209H141.68" stroke="#1A2027" stroke-width="0.5"/>
<path d="M143.578 108.209C143.927 108.209 144.21 107.926 144.21 107.576" stroke="#1A2027" stroke-width="0.5"/>
<path d="M142.704 109.81L142.079 110.129C142.028 110.155 141.965 110.145 141.921 110.108C141.821 110.022 141.662 109.905 141.534 109.829C141.492 109.804 141.44 109.807 141.402 109.837C140.843 110.285 141.007 111.064 141.465 111.487C141.201 111.979 141.465 112.636 142.468 112.636C143.47 112.636 144.948 111.487 145.159 110.885C144.664 110.286 143.403 109.917 142.786 109.798C142.758 109.793 142.73 109.797 142.704 109.81Z" fill="#C61800"/>
<path d="M144.21 104.73C144.21 105.254 144.635 105.679 145.159 105.679" stroke="#1A2027" stroke-width="0.5"/>
<path d="M141.68 104.73C141.68 105.254 141.255 105.679 140.731 105.679" stroke="#1A2027" stroke-width="0.5"/>
<path d="M148.005 103.781C146.957 102.516 145.258 102.516 144.21 103.781" stroke="#1A2027" stroke-width="0.5"/>
<path d="M137.885 103.781C138.933 102.516 140.632 102.516 141.68 103.781" stroke="#1A2027" stroke-width="0.5"/>
<path d="M144.842 104.414C145.541 103.57 146.674 103.57 147.372 104.414C146.36 105.552 145.264 104.888 144.842 104.414Z" fill="white"/>
<path d="M138.518 104.414C139.216 103.57 140.349 103.57 141.048 104.414C140.036 105.552 138.939 104.888 138.518 104.414Z" fill="white"/>
<path d="M146.107 105.046C145.758 105.046 145.475 104.763 145.475 104.414C145.475 104.064 145.758 103.781 146.107 103.781C146.457 103.781 146.74 104.064 146.74 104.414C146.74 104.763 146.457 105.046 146.107 105.046Z" fill="#1A2027"/>
<path d="M139.783 105.046C139.433 105.046 139.15 104.763 139.15 104.414C139.15 104.064 139.433 103.781 139.783 103.781C140.132 103.781 140.415 104.064 140.415 104.414C140.415 104.763 140.132 105.046 139.783 105.046Z" fill="#1A2027"/>
<path d="M206.511 239.136C192.364 239.136 180.895 227.667 180.895 213.52C180.895 199.372 192.364 187.904 206.511 187.904C220.659 187.904 232.128 199.372 232.128 213.52C232.128 227.667 220.659 239.136 206.511 239.136Z" fill="#9DDEF4"/>
<path d="M171.871 206.4L179.968 208.57C180.305 208.66 180.505 209.007 180.415 209.345L176.814 222.785C176.723 223.123 176.376 223.323 176.039 223.233L167.942 221.063C167.604 220.973 167.404 220.626 167.494 220.288L171.096 206.848C171.186 206.51 171.533 206.31 171.871 206.4Z" fill="#B6704F"/>
<path d="M160.346 206.4L168.443 208.57C168.781 208.66 168.981 209.007 168.891 209.345L165.289 222.785C165.199 223.123 164.852 223.323 164.514 223.233L156.417 221.063C156.08 220.973 155.88 220.626 155.97 220.288L159.571 206.848C159.662 206.51 160.009 206.31 160.346 206.4Z" fill="#B6704F"/>
<path d="M180.578 176.443L182.393 176.519L199.553 177.942L203.348 202.897L185.833 190.958L172.315 204.679C171.974 205.026 171.739 205.464 171.64 205.941L171.339 207.397C171.279 207.682 171.172 207.954 171.02 208.203L169.606 210.515C169.542 210.62 169.494 210.734 169.463 210.853L168.985 212.667C168.831 213.253 168.281 213.648 167.676 213.607L158.474 212.976C157.763 212.928 157.233 212.302 157.301 211.593L157.444 210.106C157.458 209.958 157.446 209.81 157.409 209.667L156.52 206.243C156.234 205.144 156.456 203.975 157.124 203.057L158.176 201.61C159.294 200.072 160.158 198.365 160.733 196.554L163.272 188.557C165.648 181.077 172.737 176.114 180.578 176.443Z" fill="#B48CFF"/>
<path d="M167.613 224.905L166.932 218.5C166.827 217.51 165.591 217.123 164.939 217.876C164.84 217.991 164.658 217.978 164.576 217.85L162.935 215.31C162.469 214.588 161.669 214.152 160.81 214.152H158.82C157.696 214.152 156.706 214.895 156.392 215.974L155.208 220.034C154.975 220.834 154.485 221.536 153.813 222.03L150.934 224.147C150.286 224.623 149.903 225.38 149.903 226.185V230.281C149.903 230.98 150.469 231.546 151.168 231.546H166.348C167.046 231.546 167.613 230.98 167.613 230.281V224.905Z" fill="#F23116"/>
<path d="M167.613 228.384H162.236C161.887 228.384 161.604 228.667 161.604 229.016V229.649C161.604 229.998 161.887 230.281 162.236 230.281H167.613V228.384Z" fill="white"/>
<path d="M155.279 220.794L160.813 222.059H154.488L158.757 223.324" stroke="#FECE00" stroke-width="2" stroke-linejoin="bevel"/>
<path fill-rule="evenodd" clip-rule="evenodd" d="M166.683 217.897L165.101 220.523C164.806 221.013 164.403 221.43 163.923 221.743L160.222 224.156C159.506 224.623 159.074 225.421 159.074 226.276V230.281C159.074 230.98 159.64 231.546 160.339 231.546H166.351C167.048 231.545 167.613 230.979 167.613 230.281V224.905L166.932 218.5C166.907 218.262 166.816 218.058 166.683 217.897Z" fill="#C61800"/>
<path d="M179.314 224.905L178.633 218.5C178.528 217.51 177.292 217.123 176.64 217.876C176.541 217.991 176.359 217.978 176.277 217.85L174.636 215.31C174.171 214.588 173.37 214.152 172.511 214.152H170.522C169.397 214.152 168.408 214.895 168.093 215.974L166.909 220.034C166.676 220.834 166.186 221.536 165.514 222.03L162.635 224.147C161.987 224.623 161.604 225.38 161.604 226.185V230.281C161.604 230.98 162.17 231.546 162.869 231.546H178.049C178.747 231.546 179.314 230.98 179.314 230.281V224.905Z" fill="#F23116"/>
<path d="M179.314 228.384H173.937C173.588 228.384 173.305 228.667 173.305 229.016V229.649C173.305 229.998 173.588 230.281 173.937 230.281H179.314V228.384Z" fill="white"/>
<path d="M166.98 220.794L172.514 222.059H166.189L170.459 223.324" stroke="#FECE00" stroke-width="2" stroke-linejoin="bevel"/>
<path d="M188.26 196.094L189.244 206.989C189.354 208.207 188.577 209.329 187.398 209.655L182.481 211.016C182.173 211.101 181.909 211.3 181.741 211.572L179.924 214.524C179.652 214.967 179.134 215.198 178.622 215.106L170.075 213.56C169.473 213.451 169.036 212.927 169.036 212.315V209.803C169.036 209.653 169.009 209.505 168.957 209.364L166.609 203.009C166.441 202.556 166.453 202.055 166.642 201.61L171.724 189.653L176.764 183.252C177.72 182.039 178.865 180.988 180.156 180.14C182.495 178.603 185.233 177.784 188.032 177.784H217.264C217.962 177.784 218.529 178.35 218.529 179.049V185.114C218.529 189.655 214.847 193.336 210.306 193.336H190.779C189.292 193.336 188.126 194.613 188.26 196.094Z" fill="#9F6DFE"/>
<path d="M194.675 221.873L192.639 222.772C191.236 223.392 190.094 224.482 189.41 225.854M221.795 189.011V164.185C221.795 162.788 222.928 161.655 224.325 161.655H231.495L221.795 189.011ZM193.483 197.459L190.335 199.169C188.277 200.286 186.725 202.148 185.996 204.374L176.942 232.021L193.483 197.459ZM195.072 201.705C192.422 202.429 190.458 204.662 190.079 207.383L187.689 224.527L195.072 201.705Z" stroke="white" stroke-width="8"/>
<path d="M238.832 162.892C239.368 163.421 239.903 163.606 240.439 163.445C241.072 163.256 241.299 162.521 241.299 161.86C241.299 160.496 240.193 159.39 238.829 159.39H228.965V161.967C228.965 162.559 229.17 163.201 229.723 163.411C230.293 163.627 230.862 163.455 231.432 162.892C232.254 162.08 233.076 162.08 233.898 162.892C234.721 163.704 235.543 163.704 236.365 162.892C237.187 162.08 238.01 162.08 238.832 162.892Z" fill="#9DDEF4"/>
<path d="M179.314 234.076C179.314 234.426 179.031 234.709 178.681 234.709H148.321C147.972 234.709 147.689 234.426 147.689 234.076V232.179C147.689 231.829 147.972 231.546 148.321 231.546H178.681C179.031 231.546 179.314 231.829 179.314 232.179V234.076Z" fill="#9DDEF4"/>
<path d="M186.904 238.187C183.76 238.187 181.211 235.072 181.211 231.23C181.211 227.387 183.76 224.272 186.904 224.272C190.048 224.272 192.596 227.387 192.596 231.23C192.596 235.072 190.048 238.187 186.904 238.187Z" fill="white" stroke="#6CBBD7" stroke-width="6"/>
<path d="M186.904 233.127C186.047 233.127 185.352 232.278 185.352 231.23C185.352 230.182 186.047 229.332 186.904 229.332C187.761 229.332 188.457 230.182 188.457 231.23C188.457 232.278 187.761 233.127 186.904 233.127Z" stroke="#6CBBD7" stroke-width="4"/>
<path d="M194.81 193.28H187.852C185.757 193.28 184.057 194.979 184.057 197.075V198.972C184.057 201.767 186.323 204.032 189.117 204.032H194.81V193.28Z" fill="#9DDEF4"/>
<path d="M216.948 237.555C203.149 237.555 191.964 224.529 191.964 208.46C191.964 192.391 203.149 179.365 216.948 179.365C230.746 179.365 241.931 192.391 241.931 208.46C241.931 224.529 230.746 237.555 216.948 237.555Z" fill="white" stroke="#6CBBD7" stroke-width="10"/>
<path d="M216.947 208.127L234.614 187.614M216.947 179.117V208.127V179.117ZM216.947 208.127V237.136V208.127ZM216.947 208.127H191.964H216.947ZM216.947 208.127H241.931H216.947ZM216.947 208.127L199.281 187.614L216.947 208.127ZM216.947 208.127L234.614 228.639L216.947 208.127ZM216.947 208.127L199.281 228.639L216.947 208.127Z" stroke="#6CBBD7" stroke-width="6"/>
<path d="M216.948 210.461C215.376 210.461 214.101 208.968 214.101 207.127C214.101 205.285 215.376 203.792 216.948 203.792C218.519 203.792 219.794 205.285 219.794 207.127C219.794 208.968 218.519 210.461 216.948 210.461Z" fill="white" stroke="#6CBBD7" stroke-width="6"/>
<path d="M167.875 155.816C167.524 155.687 167.229 155.43 167.1 155.079C166.823 154.322 166.645 153.585 166.55 152.743C166.547 152.717 166.544 152.692 166.542 152.666C166.459 151.932 166.25 151.226 166.079 150.646C165.889 150.001 165.745 149.514 165.873 149.321C166.189 148.847 166.664 147.424 166.106 147.424C165.548 147.424 164.806 147.424 163.976 148.373C163.09 149.385 163.415 151.535 163.687 152.484C161.65 151.087 159.342 149.388 158.874 149.042C158.816 149 158.753 148.968 158.685 148.947L155.022 147.819C154.823 147.758 154.608 147.798 154.445 147.926L154.264 148.068C153.894 148.358 153.958 148.935 154.382 149.137L157.278 150.517C157.346 150.55 157.408 150.594 157.46 150.649L159.336 152.588C159.458 152.715 159.313 152.917 159.154 152.841L156.133 151.401C156.062 151.367 155.985 151.346 155.906 151.341L152.218 151.075C151.99 151.059 151.771 151.167 151.645 151.358L151.544 151.51C151.296 151.887 151.51 152.395 151.953 152.48L155.267 153.119C155.343 153.134 155.415 153.162 155.48 153.202L157.741 154.602C157.891 154.694 157.8 154.925 157.628 154.892L155.66 154.514C155.563 154.495 155.462 154.5 155.367 154.527L151.518 155.628C151.256 155.703 151.072 155.937 151.06 156.209L151.05 156.428C151.033 156.831 151.391 157.147 151.788 157.079L155.01 156.533C155.091 156.519 155.174 156.521 155.254 156.539L156.738 156.871C156.929 156.914 156.887 157.198 156.691 157.183L155.696 157.11C155.548 157.099 155.402 157.14 155.283 157.225L152.931 158.898C152.597 159.136 152.574 159.624 152.885 159.892L153.17 160.138C153.349 160.293 153.599 160.334 153.819 160.246L155.836 159.433C155.947 159.389 156.067 159.376 156.185 159.398L157.648 159.662C157.796 159.689 157.929 159.771 158.018 159.893C158.89 161.078 160.35 161.646 161.767 161.397C162.092 161.34 162.431 161.357 162.725 161.505L181.601 170.949C182.624 171.372 183.799 171.086 184.505 170.24L191.734 161.583H192.554C196.57 161.583 200.359 159.722 202.814 156.544L211.571 145.211H195.759C194.25 145.183 192.674 145.967 191.668 147.439C188.413 152.2 183.83 158.812 180.313 163.506C179.821 164.163 178.84 164.167 178.248 163.591C178.197 163.542 178.109 163.451 177.988 163.326C176.787 162.086 172.291 157.443 167.875 155.816Z" fill="#DD9E86"/>
<path d="M217.264 145.21H200.751C194.658 145.21 189.875 149.632 190.544 155.689C191.41 163.522 193.071 172.249 193.071 172.249H216.316L217.264 145.21Z" fill="#DD9E86"/>
<path fill-rule="evenodd" clip-rule="evenodd" d="M221.851 148.238L229.845 170.089C230.09 170.76 230.041 171.503 229.708 172.136L217.61 195.136C217.336 197.372 216.86 199.587 216.193 201.738C216.119 201.977 216.11 202.234 216.168 202.477C216.218 202.687 216.219 202.906 216.17 203.116L215.903 204.268C215.847 204.513 215.68 204.716 215.452 204.817C215.225 204.919 215.057 205.122 215.001 205.366L214.987 205.428C214.917 205.728 214.703 205.974 214.416 206.083L214.21 206.162C213.948 206.261 213.725 206.44 213.571 206.674L213.459 206.843C213.202 207.232 212.809 207.509 212.358 207.619C212.14 207.672 211.933 207.765 211.748 207.893L210.245 208.931C210.038 209.075 209.766 209.082 209.551 208.95C209.269 208.777 209.166 208.414 209.314 208.116L210.955 204.827C211.095 204.546 211.164 204.234 211.156 203.92L211.087 201.313C211.076 200.905 210.793 200.557 210.397 200.465C209.917 200.354 209.438 200.656 209.326 201.138L209.278 201.345C209.254 201.451 209.245 201.559 209.252 201.667L209.296 202.372C209.328 202.877 209.159 203.374 208.826 203.755L208.555 204.064C208.227 204.439 207.617 204.307 207.475 203.829L206.879 201.828C206.766 201.448 206.774 201.042 206.901 200.666L208.084 197.171C208.188 196.863 208.368 196.587 208.608 196.369L209.706 195.369C210.678 194.483 211.225 193.243 211.319 191.94C211.318 191.761 211.322 191.572 211.332 191.374C211.331 191.331 211.329 191.288 211.327 191.245L211.338 191.251C211.636 186.308 215.316 175.875 221.361 171.736C221.893 171.372 222.139 170.694 221.887 170.1C219.598 164.721 216 157.283 213.359 151.94C211.833 148.852 214.074 145.21 217.518 145.21C219.455 145.21 221.186 146.42 221.851 148.238Z" fill="#DD9E86"/>
<path d="M208.426 202.647C208.384 202.229 208.124 201.913 207.846 201.941C207.567 201.969 207.375 202.33 207.417 202.748C207.458 203.166 207.718 203.483 207.997 203.455C208.275 203.427 208.468 203.066 208.426 202.647Z" fill="#FAC798"/>
<path d="M210.544 208.354C210.831 208.047 210.932 207.676 210.77 207.524C210.608 207.373 210.244 207.5 209.957 207.807C209.671 208.114 209.57 208.486 209.732 208.637C209.894 208.788 210.258 208.661 210.544 208.354Z" fill="#FAC798"/>
<path fill-rule="evenodd" clip-rule="evenodd" d="M211.955 144.784L209.129 150.692C208.997 150.968 209.1 151.274 209.324 151.431C208.969 151.412 208.607 151.512 208.302 151.737L202.477 156.037C201.371 156.853 199.817 156.638 198.975 155.553L196.297 152.1C195.813 151.476 194.883 151.443 194.356 152.031L193.529 152.953C190.949 155.828 189.825 159.725 190.476 163.533L192.733 176.732C192.837 177.339 193.364 177.784 193.98 177.784H215.235C215.921 177.784 216.482 177.237 216.5 176.551L216.935 159.437C216.943 159.104 216.82 158.782 216.593 158.539L210.394 151.928C210.219 151.741 210.007 151.605 209.779 151.523C209.937 151.49 210.077 151.393 210.162 151.252L213.568 145.658C213.941 145.046 213.5 144.261 212.783 144.261C212.43 144.261 212.107 144.464 211.955 144.784ZM195.214 150.692L198.04 144.784C198.192 144.464 198.515 144.261 198.868 144.261C199.585 144.261 200.026 145.046 199.653 145.658L196.247 151.252C196.141 151.428 195.95 151.535 195.745 151.535C195.312 151.535 195.027 151.083 195.214 150.692Z" fill="#105ACD"/>
<path fill-rule="evenodd" clip-rule="evenodd" d="M196.687 120.162C195.667 121.69 194.814 123.438 193.617 124.833C191.568 127.223 190.5 130.457 190.992 133.867L191.317 136.129C191.636 138.339 191.297 140.594 190.344 142.614L189.544 144.307C189.346 144.727 189.652 145.21 190.116 145.21H209.358C215.645 145.21 220.743 140.113 220.743 133.825V132.244C220.743 129.033 219.414 126.133 217.276 124.063C215.968 122.797 214.962 121.157 213.814 119.745C212.8 118.495 211.251 117.696 209.516 117.696H201.293C199.372 117.696 197.679 118.675 196.687 120.162Z" fill="#7B371F"/>
<path fill-rule="evenodd" clip-rule="evenodd" d="M209.573 131.077H203.564C202.281 131.077 201.113 130.338 200.564 129.179L200.479 129V131.077H199.917C199.183 131.077 198.498 130.837 197.943 130.427C197.814 130.796 197.723 131.192 197.674 131.615C197.618 132.094 197.559 132.576 197.377 133.023C197.182 133.501 197 133.945 197 134.556C197 136.139 197.396 137.614 198.097 138.851C198.314 139.234 198.516 139.634 198.719 140.035C199.089 140.767 199.461 141.503 199.933 142.155C200.622 143.107 201.743 143.727 203.009 143.727C203.158 143.727 203.305 143.718 203.45 143.701L202.6 146.866C202.168 148.473 203.379 150.052 205.043 150.052H205.855C208.65 150.052 210.915 147.786 210.915 144.992V137.752C210.941 137.69 210.966 137.628 210.99 137.565C211.236 136.93 211.815 136.453 212.496 136.453C213.195 136.453 213.761 135.887 213.761 135.188V134.259C213.761 132.962 212.041 132.505 211.398 133.631C211.204 133.971 210.759 134.011 210.586 133.66C210.392 133.267 210.209 132.769 210.008 132.222C209.874 131.857 209.732 131.47 209.573 131.077Z" fill="#DD9E86"/>
<path d="M200.186 136.355C200.186 136.704 200.469 136.987 200.819 136.987H201.135" stroke="#1A2027" stroke-width="2"/>
<path d="M203.032 136.987C203.382 136.987 203.665 136.704 203.665 136.355" stroke="#1A2027" stroke-width="2"/>
<path d="M200.504 139.227C200.529 138.996 201.574 138.916 201.832 139.471C202.137 138.916 203.859 138.665 204.614 139.123C203.725 139.939 203.826 140.783 201.968 140.783C201.247 140.783 200.942 140.09 200.866 139.709C200.768 139.61 200.479 139.458 200.504 139.227Z" fill="#C61800"/>
<path d="M207.46 132.56C206.412 131.295 204.713 131.295 203.665 132.56" stroke="#1A2027" stroke-width="0.5"/>
<path d="M197.34 132.56C198.388 131.295 200.087 131.295 201.135 132.56" stroke="#1A2027" stroke-width="0.5"/>
<path d="M204.59 133.291C205.289 132.447 206.421 132.447 207.12 133.291C206.108 134.429 205.012 133.765 204.59 133.291Z" fill="white"/>
<path d="M198.265 133.291C198.964 132.447 200.096 132.447 200.795 133.291C199.783 134.429 198.687 133.765 198.265 133.291Z" fill="white"/>
<path d="M205.855 133.923C205.506 133.923 205.223 133.64 205.223 133.291C205.223 132.941 205.506 132.658 205.855 132.658C206.204 132.658 206.488 132.941 206.488 133.291C206.488 133.64 206.204 133.923 205.855 133.923Z" fill="#1A2027"/>
<path d="M199.53 133.923C199.181 133.923 198.897 133.64 198.897 133.291C198.897 132.941 199.181 132.658 199.53 132.658C199.879 132.658 200.162 132.941 200.162 133.291C200.162 133.64 199.879 133.923 199.53 133.923Z" fill="#1A2027"/>
<path fill-rule="evenodd" clip-rule="evenodd" d="M210.955 133.136L208.727 137.097C207.578 136.333 204.501 134.397 202.851 134.397C200.795 134.397 197.474 137.402 197.474 137.402C197.474 140.248 200.321 143.727 202.851 143.727C206.768 143.727 208.266 141.038 208.834 139.167L211.331 138.334L211.131 137.734L209.022 138.437C209.096 138.091 209.135 137.807 209.156 137.625L211.507 133.445L210.955 133.136Z" fill="white"/>
<path d="M85.7778 220.161C82.7266 220.161 80.96 222.019 80.96 224.89C80.96 226.27 81.4426 227.378 82.0331 228.174L82.8986 235.025H85.8062V229.315C86.9096 229.833 87.9438 231.342 88.8599 232.679C89.7151 233.927 90.4674 235.025 91.0772 235.025H104.423C104.703 235.025 104.956 234.847 104.984 234.57C105.217 232.264 101.718 229.619 96.8582 229.619C95.5508 229.619 93.6249 227.398 91.6395 225.108C89.5282 222.673 87.3502 220.161 85.7778 220.161Z" fill="#F97600"/>
<path d="M50.6019 210.952C48.4445 208.795 45.8816 208.859 43.8516 210.89C42.8753 211.866 42.4338 212.99 42.288 213.97L38.056 219.427L40.1119 221.483L44.1495 217.445C44.5634 218.592 44.2276 220.39 43.93 221.983C43.6523 223.47 43.4079 224.779 43.8389 225.21L53.2758 234.647C53.4741 234.845 53.7793 234.898 53.994 234.722C55.7894 233.256 55.186 228.912 51.7493 225.475C50.8249 224.551 51.0336 221.618 51.249 218.595C51.4776 215.381 51.7139 212.064 50.6019 210.952Z" fill="#F97600"/>
<path d="M85.3053 189.888C78.5122 191.314 82.6026 210.007 84.4119 222.524C84.6472 224.151 85.4707 225.64 86.7505 226.671L89.3726 228.783C90.0683 229.343 90.9345 229.649 91.8276 229.649H93.9424C94.658 229.649 95.0293 228.796 94.5417 228.272C92.6755 226.267 91.9348 223.463 92.5679 220.798L98.9205 194.071L92.345 149.005H78.2719C78.2719 154.612 78.8728 167.65 81.2763 174.938L85.9043 188.971C86.0393 189.38 85.7268 189.799 85.3053 189.888Z" fill="#D58E54"/>
<path d="M65.7312 191.858C55.3573 191.991 51.3583 202.086 46.7129 212.992C46.5165 213.453 46.4409 213.957 46.4947 214.455L46.7872 217.173C47.0513 219.626 48.1465 221.914 49.8909 223.659C50.3115 224.08 51.0316 223.796 51.0528 223.202L51.0765 222.536C51.1689 219.955 52.2862 217.516 54.1812 215.761L73.8446 197.549L66.1038 191.976C65.9963 191.899 65.8638 191.856 65.7312 191.858Z" fill="#D58E54"/>
<path d="M77.6603 174.543L82.4489 185.558C83.0116 186.852 83.0084 188.322 82.4401 189.613L80.4155 194.215C80.047 195.052 79.9126 195.973 80.0258 196.88L81.7696 210.831C81.849 211.464 82.387 211.939 83.0248 211.939H95.1065C95.7077 211.939 96.2257 211.516 96.3459 210.927L100.831 188.949C100.865 188.781 100.865 188.608 100.83 188.44L92.7653 149.509C92.7043 149.216 92.4456 149.005 92.1458 149.005H90.2009L77.6603 174.543Z" fill="#FFB3DA"/>
<path fill-rule="evenodd" clip-rule="evenodd" d="M80.4666 168.829L78.0606 175.463L82.4495 185.558C83.0118 186.852 83.0087 188.322 82.4404 189.613L81.8151 191.034C84.2281 189.03 86.9687 185.729 86.9687 180.63V155.588L80.4666 168.829Z" fill="#F778B9"/>
<path d="M63.0376 209.61L74.2075 198.299C74.4887 198.014 74.698 197.667 74.8192 197.286L90.1313 149.005H64.899C64.6631 149.005 64.4468 149.136 64.338 149.346L61.9351 153.967C59.6003 158.456 58.7031 163.555 59.3647 168.572L61.9737 188.358C62.0803 189.165 61.7922 189.974 61.1995 190.531L52.3401 198.869C51.8205 199.359 51.8082 200.181 52.3126 200.685L61.2432 209.616C61.7394 210.112 62.5445 210.109 63.0376 209.61Z" fill="#FFB3DA"/>
<path d="M99.61 117.55C100.403 116.223 100.63 114.61 100.107 113.154L99.6065 111.756C99.4971 111.451 99.4667 111.122 99.5189 110.802L100.109 107.166C100.173 106.775 100.356 106.413 100.633 106.132L102.093 104.65C102.442 104.296 103.042 104.466 103.156 104.951L103.25 105.35C103.366 105.843 103.283 106.361 103.019 106.791L102.65 107.391C102.594 107.483 102.551 107.583 102.523 107.687L102.469 107.892C102.341 108.369 102.624 108.861 103.099 108.989C103.49 109.095 103.903 108.921 104.103 108.566L105.382 106.303C105.537 106.029 105.621 105.722 105.629 105.408L105.719 101.739C105.728 101.406 105.988 101.135 106.318 101.115C106.569 101.099 106.805 101.234 106.921 101.458L107.761 103.081C107.865 103.281 108.004 103.46 108.171 103.609C108.518 103.918 108.735 104.348 108.78 104.812L108.799 105.012C108.826 105.291 108.94 105.554 109.123 105.764L109.269 105.931C109.471 106.162 109.545 106.48 109.466 106.777L109.449 106.838C109.385 107.08 109.438 107.337 109.591 107.534C109.745 107.731 109.797 107.989 109.733 108.23L109.429 109.371C109.374 109.579 109.271 109.771 109.129 109.933C108.964 110.12 108.852 110.35 108.806 110.596C108.324 113.145 107.579 115.65 106.586 118.045C95.9851 146.615 88.5564 136.058 99.61 117.55Z" fill="#D58E54"/>
<path d="M102.531 105.886C102.298 106.235 101.92 106.393 101.687 106.237C101.454 106.081 101.454 105.672 101.688 105.323C101.921 104.973 102.299 104.816 102.532 104.971C102.764 105.127 102.764 105.536 102.531 105.886Z" fill="#FAC798"/>
<path d="M80.7262 130.823L93.0413 144.841C94.0799 146.023 95.9201 145.969 96.8221 144.679C98.385 142.444 100.677 138.884 102.465 134.932C105.051 129.215 106.465 121.506 106.809 119.471C106.859 119.172 106.686 118.888 106.4 118.786L100.282 116.611C99.9903 116.507 99.6664 116.63 99.5165 116.901L93.7911 127.256C93.2504 128.234 91.7994 128.081 91.474 127.012L90.1309 122.598L84.6882 122.425C80.2623 122.285 77.8037 127.496 80.7262 130.823Z" fill="#F97600"/>
<path fill-rule="evenodd" clip-rule="evenodd" d="M93.1362 127.829V134.458C93.1362 136.602 94.4699 140.937 96.0736 145.373C95.1175 145.929 93.8421 145.751 93.0423 144.841L80.7272 130.823C77.8047 127.496 80.2632 122.285 84.6892 122.425L90.1318 122.598L91.475 127.012C91.7055 127.769 92.4996 128.066 93.1362 127.829Z" fill="#DE5000"/>
<path d="M70.84 116.431H80.4856L92.345 149.005H65.1475L66.5409 144.103L70.84 116.431Z" fill="#D58E54"/>
<path d="M90.027 121.473C90.7569 123.956 91.4849 126.948 91.5545 130.03C91.626 133.198 91.3941 136.302 91.063 139.201C92.9536 142.406 93.5228 145.919 93.6942 147.745C93.7597 148.441 93.2006 149.005 92.502 149.005H64.041C63.3424 149.005 62.7729 148.438 62.8238 147.741C63.1328 143.512 64.8307 139.201 64.8307 139.201V116.431L72.2632 115.324L72.1057 115.745C71.6181 117.045 71.8796 118.508 72.7879 119.559L78.7109 126.411C79.0136 126.761 79.5806 126.663 79.7479 126.231C80.9184 123.212 80.7061 119.832 79.1673 116.982L78.272 115.324C81.3187 115.324 89.1677 118.55 90.027 121.473Z" fill="#F97600"/>
<path fill-rule="evenodd" clip-rule="evenodd" d="M63.8825 142.098C64.3686 140.375 64.8306 139.201 64.8306 139.201V123.267C65.7354 123.642 66.5741 124.55 67.237 125.898C68.1266 127.707 68.6263 130.16 68.6263 132.718C68.6263 135.276 68.1266 137.73 67.237 139.539C66.3474 141.347 65.1406 142.364 63.8825 142.364V142.098Z" fill="#DE5000"/>
<path d="M52.5667 141.31L60.5805 119.405C61.2342 117.619 62.9337 116.431 64.8357 116.431C68.1889 116.431 70.3893 119.949 68.9415 122.973C66.3786 128.327 62.8275 135.879 60.5239 141.321C60.2725 141.915 60.5182 142.592 61.0454 142.964C67.977 147.847 72.2906 162.707 72.8956 164.976C73.4807 167.17 75.5546 172.477 75.8617 173.259C75.888 173.326 75.9013 173.393 75.9041 173.464L76.0458 177.295C76.0537 177.502 75.9591 177.7 75.7934 177.824L75.6087 177.962C75.2333 178.244 74.6929 178.033 74.6075 177.572L74.0234 174.417C74.0094 174.343 73.9826 174.272 73.9437 174.207L72.5556 171.893C72.4649 171.742 72.2324 171.83 72.2644 172.004L72.8738 175.295C72.8883 175.372 72.888 175.452 72.8732 175.529L72.1749 179.159C72.1319 179.384 71.9706 179.568 71.7536 179.64L71.5803 179.698C71.1524 179.841 70.7173 179.503 70.7492 179.053L70.9899 175.686C70.9953 175.609 70.9867 175.532 70.9646 175.459L70.1977 172.912C70.1471 172.744 69.9014 172.771 69.8887 172.946L69.7439 174.945C69.7369 175.044 69.7066 175.14 69.6556 175.225L67.5959 178.658C67.4558 178.891 67.1819 179.009 66.9163 178.95L66.7019 178.902C66.3088 178.815 66.0962 178.387 66.2642 178.021L67.6256 175.05C67.6598 174.976 67.6794 174.895 67.6826 174.813L67.7458 173.294C67.754 173.099 67.4694 173.066 67.4327 173.258L67.2641 174.142C67.2259 174.344 67.0924 174.514 66.9065 174.599L64.1004 175.885C63.7405 176.05 63.3192 175.848 63.2234 175.463L63.1924 175.339C63.1314 175.095 63.2209 174.838 63.4204 174.685L64.9261 173.527C65.0672 173.418 65.156 173.255 65.1706 173.078L65.286 171.693C65.2987 171.543 65.2531 171.393 65.1589 171.275C64.1162 169.972 64.0368 168.144 64.9628 166.755L64.9894 166.715L52.7037 143.357C52.371 142.725 52.3213 141.981 52.5667 141.31Z" fill="#D58E54"/>
<path d="M75.9 177.151C75.9 177.501 75.6875 177.784 75.4256 177.784C75.1638 177.784 74.9513 177.501 74.9513 177.151C74.9513 176.802 75.1638 176.519 75.4256 176.519C75.6875 176.519 75.9 176.802 75.9 177.151Z" fill="#FAC798"/>
<path d="M72.105 178.732C72.105 179.082 71.8925 179.365 71.6306 179.365C71.3688 179.365 71.1562 179.082 71.1562 178.732C71.1562 178.383 71.3688 178.1 71.6306 178.1C71.8925 178.1 72.105 178.383 72.105 178.732Z" fill="#FAC798"/>
<path d="M67.5791 178.351C67.4191 178.672 67.1212 178.819 66.9137 178.68C66.7063 178.542 66.6674 178.169 66.8271 177.849C66.9871 177.528 67.285 177.381 67.4925 177.52C67.6999 177.659 67.7388 178.031 67.5791 178.351Z" fill="#FAC798"/>
<path d="M64.2885 175.526C63.9425 175.636 63.6222 175.533 63.5725 175.295C63.5232 175.058 63.7632 174.776 64.1089 174.666C64.4549 174.555 64.7752 174.659 64.8249 174.896C64.8742 175.134 64.6342 175.416 64.2885 175.526Z" fill="#FAC798"/>
<path d="M52.543 141.375L60.5805 119.405C61.2342 117.619 62.9337 116.431 64.8356 116.431C68.1888 116.431 70.3893 119.949 68.9415 122.973C66.3786 128.327 62.8274 135.879 60.5239 141.321C60.2724 141.915 60.5175 142.592 61.0457 142.963C67.5762 147.541 72.4013 161.049 73.5069 164.674C73.6103 165.013 73.4038 165.361 73.06 165.446L64.544 167.54C64.2515 167.612 63.9485 167.467 63.8205 167.194L52.6284 143.318C52.3422 142.707 52.3115 142.008 52.543 141.375Z" fill="#F97600"/>
<path d="M70.84 116.431C71.1893 116.431 71.4725 116.148 71.4725 115.799C71.4725 115.449 71.1893 115.166 70.84 115.166C70.4907 115.166 70.2075 115.449 70.2075 115.799C70.2075 116.148 70.4907 116.431 70.84 116.431Z" fill="#DE5000"/>
<path d="M70.5237 117.696C70.8731 117.696 71.1562 117.413 71.1562 117.064C71.1562 116.714 70.8731 116.431 70.5237 116.431C70.1744 116.431 69.8912 116.714 69.8912 117.064C69.8912 117.413 70.1744 117.696 70.5237 117.696Z" fill="#389810"/>
<path d="M70.2075 118.961C70.5568 118.961 70.84 118.678 70.84 118.329C70.84 117.979 70.5568 117.696 70.2075 117.696C69.8582 117.696 69.575 117.979 69.575 118.329C69.575 118.678 69.8582 118.961 70.2075 118.961Z" fill="#FFB3DA"/>
<path d="M70.2075 120.226C70.5568 120.226 70.84 119.943 70.84 119.594C70.84 119.244 70.5568 118.961 70.2075 118.961C69.8582 118.961 69.575 119.244 69.575 119.594C69.575 119.943 69.8582 120.226 70.2075 120.226Z" fill="#FECE00"/>
<path d="M70.2075 121.491C70.5568 121.491 70.84 121.208 70.84 120.859C70.84 120.509 70.5568 120.226 70.2075 120.226C69.8582 120.226 69.575 120.509 69.575 120.859C69.575 121.208 69.8582 121.491 70.2075 121.491Z" fill="#FECE00"/>
<path d="M70.2075 122.756C70.5568 122.756 70.84 122.473 70.84 122.124C70.84 121.774 70.5568 121.491 70.2075 121.491C69.8582 121.491 69.575 121.774 69.575 122.124C69.575 122.473 69.8582 122.756 70.2075 122.756Z" fill="#FECE00"/>
<path d="M71.1562 127.184C71.5056 127.184 71.7887 126.901 71.7887 126.551C71.7887 126.202 71.5056 125.919 71.1562 125.919C70.8069 125.919 70.5237 126.202 70.5237 126.551C70.5237 126.901 70.8069 127.184 71.1562 127.184Z" fill="#6CBBD7"/>
<path d="M71.4725 129.081C71.8218 129.081 72.105 128.798 72.105 128.449C72.105 128.099 71.8218 127.816 71.4725 127.816C71.1232 127.816 70.84 128.099 70.84 128.449C70.84 128.798 71.1232 129.081 71.4725 129.081Z" fill="#F23116"/>
<path d="M73.37 133.509C73.7193 133.509 74.0025 133.226 74.0025 132.876C74.0025 132.527 73.7193 132.244 73.37 132.244C73.0207 132.244 72.7375 132.527 72.7375 132.876C72.7375 133.226 73.0207 133.509 73.37 133.509Z" fill="#FFB3DA"/>
<path d="M74.3188 134.458C74.6681 134.458 74.9513 134.174 74.9513 133.825C74.9513 133.476 74.6681 133.193 74.3188 133.193C73.9694 133.193 73.6862 133.476 73.6862 133.825C73.6862 134.174 73.9694 134.458 74.3188 134.458Z" fill="#FECE00"/>
<path d="M75.7419 135.722C76.0039 135.722 76.2162 135.51 76.2162 135.248C76.2162 134.986 76.0039 134.774 75.7419 134.774C75.4799 134.774 75.2675 134.986 75.2675 135.248C75.2675 135.51 75.4799 135.722 75.7419 135.722Z" fill="#389810"/>
<path d="M76.8488 136.355C77.1981 136.355 77.4813 136.072 77.4813 135.723C77.4813 135.373 77.1981 135.09 76.8488 135.09C76.4994 135.09 76.2162 135.373 76.2162 135.723C76.2162 136.072 76.4994 136.355 76.8488 136.355Z" fill="#FECE00"/>
<path d="M78.1138 136.355C78.4631 136.355 78.7463 136.072 78.7463 135.723C78.7463 135.373 78.4631 135.09 78.1138 135.09C77.7644 135.09 77.4813 135.373 77.4813 135.723C77.4813 136.072 77.7644 136.355 78.1138 136.355Z" fill="#6CBBD7"/>
<path d="M79.3787 136.355C79.7281 136.355 80.0112 136.072 80.0112 135.723C80.0112 135.373 79.7281 135.09 79.3787 135.09C79.0294 135.09 78.7462 135.373 78.7462 135.723C78.7462 136.072 79.0294 136.355 79.3787 136.355Z" fill="#FFB3DA"/>
<path d="M80.4856 136.039C80.7476 136.039 80.96 135.826 80.96 135.564C80.96 135.302 80.7476 135.09 80.4856 135.09C80.2236 135.09 80.0112 135.302 80.0112 135.564C80.0112 135.826 80.2236 136.039 80.4856 136.039Z" fill="#F23116"/>
<path d="M84.1225 133.193C84.4718 133.193 84.755 132.909 84.755 132.56C84.755 132.211 84.4718 131.927 84.1225 131.927C83.7732 131.927 83.49 132.211 83.49 132.56C83.49 132.909 83.7732 133.193 84.1225 133.193Z" fill="#6CBBD7"/>
<path d="M84.4387 131.927C84.7881 131.927 85.0712 131.644 85.0712 131.295C85.0712 130.946 84.7881 130.662 84.4387 130.662C84.0894 130.662 83.8062 130.946 83.8062 131.295C83.8062 131.644 84.0894 131.927 84.4387 131.927Z" fill="#F23116"/>
<path d="M84.755 130.662C85.1043 130.662 85.3875 130.379 85.3875 130.03C85.3875 129.681 85.1043 129.397 84.755 129.397C84.4057 129.397 84.1225 129.681 84.1225 130.03C84.1225 130.379 84.4057 130.662 84.755 130.662Z" fill="#FECE00"/>
<path d="M84.755 126.235C85.1043 126.235 85.3875 125.952 85.3875 125.603C85.3875 125.253 85.1043 124.97 84.755 124.97C84.4057 124.97 84.1225 125.253 84.1225 125.603C84.1225 125.952 84.4057 126.235 84.755 126.235Z" fill="#1570FF"/>
<path d="M83.49 120.542C83.8393 120.542 84.1225 120.259 84.1225 119.91C84.1225 119.561 83.8393 119.278 83.49 119.278C83.1407 119.278 82.8575 119.561 82.8575 119.91C82.8575 120.259 83.1407 120.542 83.49 120.542Z" fill="#6CBBD7"/>
<path d="M83.1738 119.278C83.5231 119.278 83.8063 118.994 83.8063 118.645C83.8063 118.296 83.5231 118.013 83.1738 118.013C82.8244 118.013 82.5413 118.296 82.5413 118.645C82.5413 118.994 82.8244 119.278 83.1738 119.278Z" fill="#FECE00"/>
<path d="M82.5413 118.013C82.8906 118.013 83.1738 117.729 83.1738 117.38C83.1738 117.031 82.8906 116.748 82.5413 116.748C82.1919 116.748 81.9088 117.031 81.9088 117.38C81.9088 117.729 82.1919 118.013 82.5413 118.013Z" fill="#FECE00"/>
<path d="M81.9087 116.748C82.2581 116.748 82.5412 116.464 82.5412 116.115C82.5412 115.766 82.2581 115.482 81.9087 115.482C81.5594 115.482 81.2762 115.766 81.2762 116.115C81.2762 116.464 81.5594 116.748 81.9087 116.748Z" fill="#389810"/>
<path d="M82.225 136.039C82.9236 136.039 83.49 135.472 83.49 134.774C83.49 134.075 82.9236 133.509 82.225 133.509C81.5264 133.509 80.96 134.075 80.96 134.774C80.96 135.472 81.5264 136.039 82.225 136.039Z" fill="#FECE00"/>
<path d="M70.84 125.919C71.5386 125.919 72.105 125.352 72.105 124.654C72.105 123.955 71.5386 123.389 70.84 123.389C70.1414 123.389 69.575 123.955 69.575 124.654C69.575 125.352 70.1414 125.919 70.84 125.919Z" fill="#389810"/>
<path d="M84.755 128.765C85.4536 128.765 86.02 128.199 86.02 127.5C86.02 126.801 85.4536 126.235 84.755 126.235C84.0563 126.235 83.49 126.801 83.49 127.5C83.49 128.199 84.0563 128.765 84.755 128.765Z" fill="#FFB3DA"/>
<path d="M85.3148 122.778C85.5479 123.813 85.2028 124.784 84.5444 124.947C83.886 125.109 83.1633 124.402 82.9303 123.367C82.6972 122.332 83.0422 121.361 83.7006 121.198C84.3591 121.036 85.0817 121.743 85.3148 122.778Z" fill="#F23116"/>
<path d="M72.4322 132.529C73.1183 132.397 73.5279 131.526 73.347 130.582C73.1661 129.639 72.4632 128.981 71.7771 129.112C71.091 129.244 70.6814 130.115 70.8623 131.059C71.0432 132.002 71.746 132.66 72.4322 132.529Z" fill="#6CBBD7"/>
<path d="M70.5238 123.389C71.0477 123.389 71.4725 123.247 71.4725 123.072C71.4725 122.898 71.0477 122.756 70.5238 122.756C69.9998 122.756 69.575 122.898 69.575 123.072C69.575 123.247 69.9998 123.389 70.5238 123.389Z" fill="#1570FF"/>
<path d="M72.4167 127.294C72.4667 127.426 72.0844 127.626 71.5626 127.74C71.0411 127.853 70.5778 127.839 70.5281 127.706C70.4781 127.574 70.8605 127.374 71.3823 127.26C71.9038 127.146 72.3671 127.161 72.4167 127.294Z" fill="#FFB3DA"/>
<path d="M84.755 129.397C85.279 129.397 85.7037 129.256 85.7037 129.081C85.7037 128.907 85.279 128.765 84.755 128.765C84.231 128.765 83.8062 128.907 83.8062 129.081C83.8062 129.256 84.231 129.397 84.755 129.397Z" fill="#389810"/>
<path d="M83.8062 121.175C84.3302 121.175 84.755 121.033 84.755 120.859C84.755 120.684 84.3302 120.542 83.8062 120.542C83.2823 120.542 82.8575 120.684 82.8575 120.859C82.8575 121.033 83.2823 121.175 83.8062 121.175Z" fill="#FFB3DA"/>
<path d="M75.8509 133.874C76.0166 134.04 75.7481 134.577 75.251 135.074C74.7541 135.571 74.2172 135.839 74.0514 135.674C73.8857 135.508 74.1542 134.971 74.6514 134.474C75.1482 133.977 75.6852 133.708 75.8509 133.874Z" fill="#6CBBD7"/>
<path d="M82.5902 132.609C82.4245 132.775 82.693 133.312 83.1901 133.809C83.6869 134.306 84.2239 134.574 84.3896 134.408C84.5554 134.243 84.2869 133.706 83.7897 133.209C83.2929 132.712 82.7559 132.443 82.5902 132.609Z" fill="#389810"/>
<path d="M85.0713 107.893C85.4206 107.893 85.7038 107.609 85.7038 107.26C85.7038 106.911 85.4206 106.627 85.0713 106.627C84.7219 106.627 84.4388 106.911 84.4388 107.26C84.4388 107.609 84.7219 107.893 85.0713 107.893Z" fill="#F4B510"/>
<path d="M85.7038 111.266C85.7038 111.673 85.4207 112.004 85.0713 112.004C84.7218 112.004 84.4388 111.673 84.4388 111.266C84.4388 110.858 84.7218 108.209 85.0713 108.209C85.4207 108.209 85.7038 110.858 85.7038 111.266Z" fill="#F4B510"/>
<path fill-rule="evenodd" clip-rule="evenodd" d="M76.0581 94.2938C72.1284 94.2938 68.9425 97.4797 68.9425 101.409V101.726C68.9425 101.955 68.9532 102.181 68.9744 102.404C69.0396 103.092 68.3685 103.781 67.6775 103.781H67.3612C64.392 103.781 61.985 106.188 61.985 109.157C61.985 112.127 64.392 114.534 67.3612 114.534H67.6775C70.6468 114.534 73.0537 112.127 73.0537 109.157C73.0537 108.732 73.5085 108.385 73.9142 108.513C74.591 108.726 75.3111 108.841 76.0581 108.841H77.9556C81.8853 108.841 85.0712 105.655 85.0712 101.726V101.409C85.0712 97.4797 81.8853 94.2938 77.9556 94.2938H76.0581Z" fill="#9B4B35"/>
<path fill-rule="evenodd" clip-rule="evenodd" d="M73.234 101.251H75.9C77.2406 101.251 78.4496 100.445 78.9651 99.2076L79.1678 98.7212L79.2545 98.9806C79.7064 100.337 80.9752 101.251 82.4046 101.251H84.329C84.5194 101.703 84.6516 102.199 84.7139 102.739C84.7692 103.217 84.8284 103.7 85.0108 104.146C85.206 104.624 85.3875 105.068 85.3875 105.679C85.3875 107.263 84.9916 108.737 84.2908 109.974C84.0735 110.358 83.8714 110.757 83.6687 111.158C83.299 111.89 82.9268 112.626 82.4549 113.278C81.7655 114.23 80.6444 114.85 79.3788 114.85C79.2298 114.85 79.0827 114.841 78.9379 114.825L79.788 117.989C80.2197 119.596 79.0087 121.175 77.3446 121.175H76.5325C73.7378 121.175 71.4725 118.91 71.4725 116.115V108.875C71.4466 108.813 71.4216 108.751 71.3972 108.688C71.1512 108.053 70.5728 107.576 69.8913 107.576C69.1927 107.576 68.6263 107.01 68.6263 106.311V105.382C68.6263 104.085 70.346 103.628 70.9896 104.755C71.1838 105.094 71.6284 105.134 71.8017 104.783C71.9959 104.39 72.1784 103.892 72.3795 103.345C72.6205 102.688 72.888 101.959 73.234 101.251Z" fill="#D58E54"/>
<path d="M70.2075 107.893C70.5568 107.893 70.84 107.609 70.84 107.26C70.84 106.911 70.5568 106.627 70.2075 106.627C69.8582 106.627 69.575 106.911 69.575 107.26C69.575 107.609 69.8582 107.893 70.2075 107.893Z" fill="#F4B510"/>
<path d="M70.84 111.266C70.84 111.673 70.557 112.004 70.2075 112.004C69.8581 112.004 69.575 111.673 69.575 111.266C69.575 110.858 69.8581 108.209 70.2075 108.209C70.557 108.209 70.84 110.858 70.84 111.266Z" fill="#F4B510"/>
<path d="M79.695 103.781L79.9161 105.328C79.979 105.769 80.1219 106.195 80.3383 106.584L80.8247 107.459C81.1691 108.079 80.7206 108.841 80.0113 108.841" stroke="#1A2027" stroke-width="0.5"/>
<path d="M81.9087 107.576C81.9087 107.926 81.6257 108.209 81.2762 108.209H80.96" stroke="#1A2027" stroke-width="0.5"/>
<path d="M79.0625 108.209C78.713 108.209 78.43 107.926 78.43 107.576" stroke="#1A2027" stroke-width="0.5"/>
<path d="M79.9363 109.81L80.5606 110.129C80.6121 110.155 80.6747 110.145 80.7187 110.108C80.8193 110.022 80.9777 109.905 81.1061 109.829C81.1478 109.804 81.2003 109.807 81.2383 109.837C81.7965 110.285 81.6333 111.064 81.1747 111.487C81.4388 111.979 81.1747 112.636 80.1722 112.636C79.1697 112.636 77.6922 111.487 77.4813 110.885C77.9759 110.286 79.2374 109.917 79.8534 109.798C79.8816 109.793 79.9104 109.797 79.9363 109.81Z" fill="#C61800"/>
<path d="M75.2675 102.833C75.9661 103.676 77.0989 103.676 77.7975 102.833" stroke="#1A2027" stroke-width="0.5"/>
<path d="M77.7975 104.414C77.0989 103.57 75.9661 103.57 75.2675 104.414C76.2795 105.552 77.3759 104.888 77.7975 104.414Z" fill="white"/>
<path d="M84.1225 104.414C83.4239 103.57 82.2911 103.57 81.5925 104.414C82.6045 105.552 83.7009 104.888 84.1225 104.414Z" fill="white"/>
<path d="M84.1225 102.833C83.4239 101.989 82.2911 101.989 81.5925 102.833" stroke="#1A2027" stroke-width="0.5"/>
<path d="M83.8063 105.362C83.2822 104.941 82.4328 104.941 81.9088 105.362" stroke="#1A2027" stroke-width="0.5"/>
<path d="M77.4813 105.362C76.9572 104.941 76.1078 104.941 75.5837 105.362" stroke="#1A2027" stroke-width="0.5"/>
<path d="M76.5325 105.046C76.8818 105.046 77.165 104.763 77.165 104.414C77.165 104.064 76.8818 103.781 76.5325 103.781C76.1832 103.781 75.9 104.064 75.9 104.414C75.9 104.763 76.1832 105.046 76.5325 105.046Z" fill="#1A2027"/>
<path d="M82.8575 105.046C83.2068 105.046 83.49 104.763 83.49 104.414C83.49 104.064 83.2068 103.781 82.8575 103.781C82.5082 103.781 82.225 104.064 82.225 104.414C82.225 104.763 82.5082 105.046 82.8575 105.046Z" fill="#1A2027"/>
</g>
<defs>
<clipPath id="clip0_1_378">
<rect width="253" height="253" fill="white"/>
</clipPath>
</defs>
</svg>
