<svg width="242" height="78" viewBox="0 0 242 78" fill="none" xmlns="http://www.w3.org/2000/svg">
<path d="M69.5134 9.04C69.7268 9.04 69.9001 9.12 70.0334 9.28C70.1934 9.41333 70.2734 9.58667 70.2734 9.8V10.12C70.2734 10.3067 70.1934 10.48 70.0334 10.64C69.9001 10.8 69.7268 10.88 69.5134 10.88H61.1534L58.6334 20.2H66.7134C66.9268 20.2 67.1001 20.28 67.2334 20.44C67.3934 20.5733 67.4734 20.7467 67.4734 20.96V21.28C67.4734 21.4667 67.3934 21.64 67.2334 21.8C67.1001 21.96 66.9268 22.04 66.7134 22.04H58.1534L55.6334 31.4C55.5801 31.5333 55.5001 31.64 55.3934 31.72C55.2868 31.8 55.1668 31.84 55.0334 31.84H54.0734C53.8601 31.84 53.6868 31.76 53.5534 31.6C53.4468 31.44 53.4201 31.2533 53.4734 31.04L55.8734 22.04H46.6734L44.1534 31.4C44.1001 31.5333 44.0201 31.64 43.9134 31.72C43.8068 31.8 43.6868 31.84 43.5534 31.84H42.5934C42.3801 31.84 42.2068 31.76 42.0734 31.6C41.9668 31.44 41.9401 31.2533 41.9934 31.04L44.3934 22.04H36.9934C36.8068 22.04 36.6334 21.9733 36.4734 21.84C36.3401 21.68 36.2734 21.4933 36.2734 21.28V20.96C36.2734 20.7467 36.3401 20.5733 36.4734 20.44C36.6068 20.28 36.7801 20.2 36.9934 20.2H44.9134L47.3934 10.88H39.7934C39.6068 10.88 39.4334 10.8133 39.2734 10.68C39.1401 10.52 39.0734 10.3333 39.0734 10.12V9.8C39.0734 9.58667 39.1401 9.41333 39.2734 9.28C39.4068 9.12 39.5801 9.04 39.7934 9.04H47.9134L50.1534 0.639999C50.2334 0.319998 50.4334 0.159998 50.7534 0.159998H51.6734C51.8868 0.159998 52.0601 0.239998 52.1934 0.4C52.3268 0.559999 52.3668 0.746666 52.3134 0.96L50.1534 9.04H59.3534L61.5934 0.639999C61.6734 0.319998 61.8868 0.159998 62.2334 0.159998H63.1534C63.3668 0.159998 63.5401 0.239998 63.6734 0.4C63.8068 0.559999 63.8468 0.746666 63.7934 0.96L61.6334 9.04H69.5134ZM47.1534 20.2H56.3534L58.8734 10.88H49.6734L47.1534 20.2ZM82.7778 30C82.5911 30 82.4445 29.9467 82.3378 29.84C82.2311 29.7067 82.1778 29.56 82.1778 29.4V11.28C82.1778 11.12 82.1245 10.9867 82.0178 10.88C81.9111 10.7733 81.7778 10.72 81.6178 10.72H71.8178C71.6845 10.72 71.5511 10.6533 71.4178 10.52C71.3111 10.36 71.2578 10.2133 71.2578 10.08V2.6C71.2578 2.46666 71.3111 2.32 71.4178 2.16C71.5245 2.05333 71.6578 2 71.8178 2H101.978C102.138 2 102.271 2.05333 102.378 2.16C102.484 2.32 102.538 2.46666 102.538 2.6V10.08C102.538 10.2133 102.484 10.36 102.378 10.52C102.244 10.6533 102.111 10.72 101.978 10.72H92.1778C92.0445 10.72 91.9111 10.7733 91.7778 10.88C91.6711 10.9867 91.6178 11.12 91.6178 11.28V29.4C91.6178 29.56 91.5645 29.7067 91.4578 29.84C91.3511 29.9467 91.2045 30 91.0178 30H82.7778ZM129.539 30H105.299C105.086 30 104.899 29.9333 104.739 29.8C104.606 29.64 104.539 29.4533 104.539 29.24V2.76C104.539 2.54667 104.606 2.37333 104.739 2.24C104.899 2.08 105.086 2 105.299 2H128.659C130.286 2 131.792 2.41333 133.179 3.24C134.592 4.04 135.699 5.13333 136.499 6.52C137.326 7.88 137.739 9.37333 137.739 11C137.739 12.6 137.339 14.0933 136.539 15.48C137.846 17.1333 138.499 19 138.499 21.08C138.499 22.7067 138.099 24.2 137.299 25.56C136.499 26.92 135.406 28 134.019 28.8C132.659 29.6 131.166 30 129.539 30ZM114.779 12.16H125.659C126.512 12.16 126.939 11.8533 126.939 11.24C126.939 10.6267 126.512 10.32 125.659 10.32H114.779C114.566 10.32 114.379 10.4 114.219 10.56C114.086 10.6933 114.019 10.8667 114.019 11.08V11.4C114.019 11.6133 114.086 11.8 114.219 11.96C114.379 12.0933 114.566 12.16 114.779 12.16ZM114.779 21.8H125.659C126.512 21.8 126.939 21.4933 126.939 20.88C126.939 20.2667 126.512 19.96 125.659 19.96H114.779C114.566 19.96 114.379 20.04 114.219 20.2C114.086 20.3333 114.019 20.5067 114.019 20.72V21.04C114.019 21.2533 114.086 21.44 114.219 21.6C114.379 21.7333 114.566 21.8 114.779 21.8ZM148.356 30C146.942 30 145.636 29.64 144.436 28.92C143.236 28.1733 142.276 27.1867 141.556 25.96C140.862 24.7067 140.516 23.3467 140.516 21.88V10.16C140.516 8.66667 140.862 7.30666 141.556 6.08C142.276 4.82666 143.236 3.84 144.436 3.12C145.636 2.37333 146.942 2 148.356 2H165.436C166.876 2 168.196 2.37333 169.396 3.12C170.596 3.84 171.542 4.82666 172.236 6.08C172.929 7.30666 173.276 8.66667 173.276 10.16V21.88C173.276 23.3467 172.929 24.7067 172.236 25.96C171.542 27.1867 170.596 28.1733 169.396 28.92C168.196 29.64 166.876 30 165.436 30H148.356ZM162.476 20.6C162.849 20.6 163.169 20.4667 163.436 20.2C163.702 19.9067 163.836 19.5467 163.836 19.12V12.76C163.836 12.3333 163.702 11.9733 163.436 11.68C163.169 11.3867 162.849 11.24 162.476 11.24H151.396C151.022 11.24 150.689 11.3867 150.396 11.68C150.129 11.9733 149.996 12.3333 149.996 12.76V19.12C149.996 19.5467 150.129 19.9067 150.396 20.2C150.689 20.4667 151.022 20.6 151.396 20.6H162.476ZM185.081 10.36C184.868 10.36 184.761 10.4533 184.761 10.64V12.28C184.761 12.4667 184.868 12.56 185.081 12.56H203.961C204.175 12.56 204.348 12.64 204.481 12.8C204.641 12.9333 204.721 13.1067 204.721 13.32V18.8C204.721 19.0133 204.641 19.2 204.481 19.36C204.348 19.4933 204.175 19.56 203.961 19.56H185.081C184.868 19.56 184.761 19.6533 184.761 19.84V21.56C184.761 21.7467 184.868 21.84 185.081 21.84H203.961C204.175 21.84 204.348 21.92 204.481 22.08C204.641 22.2133 204.721 22.3867 204.721 22.6V29.24C204.721 29.4533 204.641 29.64 204.481 29.8C204.348 29.9333 204.175 30 203.961 30H176.041C175.828 30 175.641 29.9333 175.481 29.8C175.348 29.64 175.281 29.4533 175.281 29.24V2.76C175.281 2.54667 175.348 2.37333 175.481 2.24C175.641 2.08 175.828 2 176.041 2H203.961C204.175 2 204.348 2.08 204.481 2.24C204.641 2.37333 204.721 2.54667 204.721 2.76V9.6C204.721 9.81333 204.641 10 204.481 10.16C204.348 10.2933 204.175 10.36 203.961 10.36H185.081ZM8.82438 78C7.41104 78 6.10438 77.64 4.90438 76.92C3.70438 76.1733 2.74438 75.1867 2.02438 73.96C1.33104 72.7067 0.984375 71.3467 0.984375 69.88V58.12C0.984375 56.6533 1.33104 55.3067 2.02438 54.08C2.74438 52.8267 3.70438 51.84 4.90438 51.12C6.10438 50.3733 7.41104 50 8.82438 50H30.3844C30.5977 50 30.771 50.08 30.9044 50.24C31.0644 50.3733 31.1444 50.5467 31.1444 50.76V58C31.1444 58.2133 31.0644 58.4 30.9044 58.56C30.771 58.6933 30.5977 58.76 30.3844 58.76H11.2244C11.011 58.76 10.8244 58.84 10.6644 59C10.531 59.1333 10.4644 59.3067 10.4644 59.52V68.28C10.4644 68.4933 10.531 68.68 10.6644 68.84C10.8244 68.9733 11.011 69.04 11.2244 69.04H30.3844C30.5977 69.04 30.771 69.12 30.9044 69.28C31.0644 69.4133 31.1444 69.5867 31.1444 69.8V77.24C31.1444 77.4533 31.0644 77.64 30.9044 77.8C30.771 77.9333 30.5977 78 30.3844 78H8.82438ZM40.9728 78C39.5595 78 38.2528 77.64 37.0528 76.92C35.8528 76.1733 34.8928 75.1867 34.1728 73.96C33.4795 72.7067 33.1328 71.3467 33.1328 69.88V58.16C33.1328 56.6667 33.4795 55.3067 34.1728 54.08C34.8928 52.8267 35.8528 51.84 37.0528 51.12C38.2528 50.3733 39.5595 50 40.9728 50H58.0528C59.4928 50 60.8128 50.3733 62.0128 51.12C63.2128 51.84 64.1595 52.8267 64.8528 54.08C65.5461 55.3067 65.8928 56.6667 65.8928 58.16V69.88C65.8928 71.3467 65.5461 72.7067 64.8528 73.96C64.1595 75.1867 63.2128 76.1733 62.0128 76.92C60.8128 77.64 59.4928 78 58.0528 78H40.9728ZM55.0928 68.6C55.4661 68.6 55.7861 68.4667 56.0528 68.2C56.3195 67.9067 56.4528 67.5467 56.4528 67.12V60.76C56.4528 60.3333 56.3195 59.9733 56.0528 59.68C55.7861 59.3867 55.4661 59.24 55.0928 59.24H44.0128C43.6395 59.24 43.3061 59.3867 43.0128 59.68C42.7461 59.9733 42.6128 60.3333 42.6128 60.76V67.12C42.6128 67.5467 42.7461 67.9067 43.0128 68.2C43.3061 68.4667 43.6395 68.6 44.0128 68.6H55.0928ZM68.8984 78C68.6584 78 68.4584 77.92 68.2984 77.76C68.1651 77.6 68.0984 77.4 68.0984 77.16L67.8984 51.04C67.8984 50.8 68.0051 50.5733 68.2184 50.36C68.4318 50.12 68.6584 50 68.8984 50H99.5384C99.6984 50 99.8318 50.0667 99.9384 50.2C100.045 50.3333 100.098 50.4933 100.098 50.68V57.64C100.098 57.8267 100.045 57.9867 99.9384 58.12C99.8318 58.2533 99.6984 58.32 99.5384 58.32H79.0184C78.5918 58.32 78.2718 58.4133 78.0584 58.6C77.8451 58.7867 77.7384 59.0267 77.7384 59.32C77.7384 59.6133 77.8451 59.8667 78.0584 60.08C78.2984 60.2667 78.6184 60.36 79.0184 60.36L91.7384 60.4C94.4051 60.4 96.5784 61.16 98.2584 62.68C99.9384 64.1733 100.778 66.36 100.778 69.24C100.778 70.8933 100.378 72.3867 99.5784 73.72C98.8051 75.0533 97.7251 76.1067 96.3384 76.88C94.9784 77.6267 93.4451 78 91.7384 78H68.8984ZM89.6184 70.24C89.9651 70.24 90.2584 70.1467 90.4984 69.96C90.7651 69.7467 90.8984 69.4667 90.8984 69.12C90.8984 68.7733 90.7651 68.5067 90.4984 68.32C90.2584 68.1333 89.9651 68.04 89.6184 68.04H78.2984C78.0851 68.04 77.9784 68.1333 77.9784 68.32V69.96C77.9784 70.1467 78.0851 70.24 78.2984 70.24H89.6184ZM141.901 50C142.035 50 142.155 50.0533 142.261 50.16C142.395 50.2667 142.461 50.4 142.461 50.56V77.4C142.461 77.5333 142.395 77.6667 142.261 77.8C142.155 77.9067 142.035 77.96 141.901 77.96H133.541C133.381 77.96 133.248 77.9067 133.141 77.8C133.035 77.6667 132.981 77.5333 132.981 77.4V50.56C132.981 50.4 133.035 50.2667 133.141 50.16C133.248 50.0533 133.381 50 133.541 50H141.901ZM131.501 68.48C131.501 70.5067 131.061 72.24 130.181 73.68C129.328 75.0933 128.168 76.1733 126.701 76.92C125.261 77.64 123.688 78 121.981 78H103.461C103.275 78 103.115 77.9333 102.981 77.8C102.848 77.6667 102.781 77.5067 102.781 77.32V50.72C102.781 50.5067 102.848 50.3467 102.981 50.24C103.115 50.1067 103.275 50.04 103.461 50.04H111.581C111.768 50.04 111.928 50.1067 112.061 50.24C112.195 50.3733 112.261 50.5333 112.261 50.72V58.16C112.261 58.3733 112.315 58.5333 112.421 58.64C112.555 58.7733 112.715 58.84 112.901 58.84L121.981 58.88C123.635 58.88 125.195 59.2933 126.661 60.12C128.128 60.9467 129.301 62.0933 130.181 63.56C131.061 65.0267 131.501 66.6667 131.501 68.48ZM121.741 68.24C121.741 67.92 121.621 67.6667 121.381 67.48C121.168 67.2667 120.861 67.16 120.461 67.16L113.101 67.12C112.941 67.12 112.821 67.16 112.741 67.24C112.635 67.3467 112.581 67.44 112.581 67.52V68.88C112.581 68.96 112.635 69.0533 112.741 69.16C112.821 69.24 112.941 69.28 113.101 69.28H120.461C120.888 69.28 121.208 69.1867 121.421 69C121.635 68.7867 121.741 68.5333 121.741 68.24ZM155.981 78C155.794 78 155.648 77.9467 155.541 77.84C155.434 77.7067 155.381 77.56 155.381 77.4V59.28C155.381 59.12 155.328 58.9867 155.221 58.88C155.114 58.7733 154.981 58.72 154.821 58.72H145.021C144.888 58.72 144.754 58.6533 144.621 58.52C144.514 58.36 144.461 58.2133 144.461 58.08V50.6C144.461 50.4667 144.514 50.32 144.621 50.16C144.728 50.0533 144.861 50 145.021 50H175.181C175.341 50 175.474 50.0533 175.581 50.16C175.688 50.32 175.741 50.4667 175.741 50.6V58.08C175.741 58.2133 175.688 58.36 175.581 58.52C175.448 58.6533 175.314 58.72 175.181 58.72H165.381C165.248 58.72 165.114 58.7733 164.981 58.88C164.874 58.9867 164.821 59.12 164.821 59.28V77.4C164.821 77.56 164.768 77.7067 164.661 77.84C164.554 77.9467 164.408 78 164.221 78H155.981ZM187.542 68.32L192.342 50.4C192.422 50.1333 192.596 50 192.862 50H209.022C209.182 50 209.316 50.0667 209.422 50.2C209.529 50.3067 209.582 50.4267 209.582 50.56V77.4C209.582 77.56 209.516 77.7067 209.382 77.84C209.276 77.9467 209.142 78 208.982 78H200.702C200.516 78 200.369 77.9467 200.262 77.84C200.156 77.7067 200.102 77.56 200.102 77.4V59.64C200.102 59.5333 200.036 59.48 199.902 59.48C199.796 59.4533 199.729 59.4933 199.702 59.6L194.902 77.56C194.822 77.8267 194.636 77.96 194.342 77.96L178.302 78C178.169 78 178.036 77.9467 177.902 77.84C177.796 77.7333 177.742 77.6 177.742 77.44V50.64C177.742 50.4533 177.796 50.3067 177.902 50.2C178.036 50.0667 178.182 50 178.342 50H186.622C186.782 50 186.916 50.0667 187.022 50.2C187.156 50.3067 187.222 50.4533 187.222 50.64V68.28C187.222 68.36 187.262 68.4133 187.342 68.44C187.449 68.44 187.516 68.4 187.542 68.32ZM221.37 58.36C221.157 58.36 221.05 58.4533 221.05 58.64V60.28C221.05 60.4667 221.157 60.56 221.37 60.56H240.25C240.464 60.56 240.637 60.64 240.77 60.8C240.93 60.9333 241.01 61.1067 241.01 61.32V66.8C241.01 67.0133 240.93 67.2 240.77 67.36C240.637 67.4933 240.464 67.56 240.25 67.56H221.37C221.157 67.56 221.05 67.6533 221.05 67.84V69.56C221.05 69.7467 221.157 69.84 221.37 69.84H240.25C240.464 69.84 240.637 69.92 240.77 70.08C240.93 70.2133 241.01 70.3867 241.01 70.6V77.24C241.01 77.4533 240.93 77.64 240.77 77.8C240.637 77.9333 240.464 78 240.25 78H212.33C212.117 78 211.93 77.9333 211.77 77.8C211.637 77.64 211.57 77.4533 211.57 77.24V50.76C211.57 50.5467 211.637 50.3733 211.77 50.24C211.93 50.08 212.117 50 212.33 50H240.25C240.464 50 240.637 50.08 240.77 50.24C240.93 50.3733 241.01 50.5467 241.01 50.76V57.6C241.01 57.8133 240.93 58 240.77 58.16C240.637 58.2933 240.464 58.36 240.25 58.36H221.37Z" fill="#DF853B"/>
</svg>
