<svg width="134" height="53" viewBox="0 0 134 53" fill="none" xmlns="http://www.w3.org/2000/svg">
<g clip-path="url(#clip0_1240_6440)">
<path d="M38.6824 11.972C38.7997 11.972 38.8951 12.016 38.9684 12.104C39.0564 12.1773 39.1004 12.2727 39.1004 12.39V12.566C39.1004 12.6687 39.0564 12.764 38.9684 12.852C38.8951 12.94 38.7997 12.984 38.6824 12.984H34.0844L32.6984 18.11H37.1424C37.2597 18.11 37.3551 18.154 37.4284 18.242C37.5164 18.3153 37.5604 18.4107 37.5604 18.528V18.704C37.5604 18.8067 37.5164 18.902 37.4284 18.99C37.3551 19.078 37.2597 19.122 37.1424 19.122H32.4344L31.0484 24.27C31.0191 24.3433 30.9751 24.402 30.9164 24.446C30.8577 24.49 30.7917 24.512 30.7184 24.512H30.1904C30.0731 24.512 29.9777 24.468 29.9044 24.38C29.8457 24.292 29.8311 24.1893 29.8604 24.072L31.1804 19.122H26.1204L24.7344 24.27C24.7051 24.3433 24.6611 24.402 24.6024 24.446C24.5437 24.49 24.4777 24.512 24.4044 24.512H23.8764C23.7591 24.512 23.6637 24.468 23.5904 24.38C23.5317 24.292 23.5171 24.1893 23.5464 24.072L24.8664 19.122H20.7964C20.6937 19.122 20.5984 19.0853 20.5104 19.012C20.4371 18.924 20.4004 18.8213 20.4004 18.704V18.528C20.4004 18.4107 20.4371 18.3153 20.5104 18.242C20.5837 18.154 20.6791 18.11 20.7964 18.11H25.1524L26.5164 12.984H22.3364C22.2337 12.984 22.1384 12.9473 22.0504 12.874C21.9771 12.786 21.9404 12.6833 21.9404 12.566V12.39C21.9404 12.2727 21.9771 12.1773 22.0504 12.104C22.1237 12.016 22.2191 11.972 22.3364 11.972H26.8024L28.0344 7.352C28.0784 7.176 28.1884 7.088 28.3644 7.088H28.8704C28.9877 7.088 29.0831 7.132 29.1564 7.22C29.2297 7.308 29.2517 7.41067 29.2224 7.528L28.0344 11.972H33.0944L34.3264 7.352C34.3704 7.176 34.4877 7.088 34.6784 7.088H35.1844C35.3017 7.088 35.3971 7.132 35.4704 7.22C35.5437 7.308 35.5657 7.41067 35.5364 7.528L34.3484 11.972H38.6824ZM26.3844 18.11H31.4444L32.8304 12.984H27.7704L26.3844 18.11ZM45.9778 23.5C45.8751 23.5 45.7945 23.4707 45.7358 23.412C45.6771 23.3387 45.6478 23.258 45.6478 23.17V13.204C45.6478 13.116 45.6185 13.0427 45.5598 12.984C45.5011 12.9253 45.4278 12.896 45.3398 12.896H39.9498C39.8765 12.896 39.8031 12.8593 39.7298 12.786C39.6711 12.698 39.6418 12.6173 39.6418 12.544V8.43C39.6418 8.35667 39.6711 8.276 39.7298 8.188C39.7885 8.12933 39.8618 8.1 39.9498 8.1H56.5378C56.6258 8.1 56.6991 8.12933 56.7578 8.188C56.8165 8.276 56.8458 8.35667 56.8458 8.43V12.544C56.8458 12.6173 56.8165 12.698 56.7578 12.786C56.6845 12.8593 56.6111 12.896 56.5378 12.896H51.1478C51.0745 12.896 51.0011 12.9253 50.9278 12.984C50.8691 13.0427 50.8398 13.116 50.8398 13.204V23.17C50.8398 23.258 50.8105 23.3387 50.7518 23.412C50.6931 23.4707 50.6125 23.5 50.5098 23.5H45.9778ZM71.6965 23.5H58.3645C58.2472 23.5 58.1445 23.4633 58.0565 23.39C57.9832 23.302 57.9465 23.1993 57.9465 23.082V8.518C57.9465 8.40067 57.9832 8.30533 58.0565 8.232C58.1445 8.144 58.2472 8.1 58.3645 8.1H71.2125C72.1072 8.1 72.9358 8.32733 73.6985 8.782C74.4758 9.222 75.0845 9.82333 75.5245 10.586C75.9792 11.334 76.2065 12.1553 76.2065 13.05C76.2065 13.93 75.9865 14.7513 75.5465 15.514C76.2652 16.4233 76.6245 17.45 76.6245 18.594C76.6245 19.4887 76.4045 20.31 75.9645 21.058C75.5245 21.806 74.9232 22.4 74.1605 22.84C73.4125 23.28 72.5912 23.5 71.6965 23.5ZM63.5785 13.688H69.5625C70.0318 13.688 70.2665 13.5193 70.2665 13.182C70.2665 12.8447 70.0318 12.676 69.5625 12.676H63.5785C63.4612 12.676 63.3585 12.72 63.2705 12.808C63.1972 12.8813 63.1605 12.9767 63.1605 13.094V13.27C63.1605 13.3873 63.1972 13.49 63.2705 13.578C63.3585 13.6513 63.4612 13.688 63.5785 13.688ZM63.5785 18.99H69.5625C70.0318 18.99 70.2665 18.8213 70.2665 18.484C70.2665 18.1467 70.0318 17.978 69.5625 17.978H63.5785C63.4612 17.978 63.3585 18.022 63.2705 18.11C63.1972 18.1833 63.1605 18.2787 63.1605 18.396V18.572C63.1605 18.6893 63.1972 18.792 63.2705 18.88C63.3585 18.9533 63.4612 18.99 63.5785 18.99ZM82.0456 23.5C81.2683 23.5 80.5496 23.302 79.8896 22.906C79.2296 22.4953 78.7016 21.9527 78.3056 21.278C77.9243 20.5887 77.7336 19.8407 77.7336 19.034V12.588C77.7336 11.7667 77.9243 11.0187 78.3056 10.344C78.7016 9.65467 79.2296 9.112 79.8896 8.716C80.5496 8.30533 81.2683 8.1 82.0456 8.1H91.4396C92.2316 8.1 92.9576 8.30533 93.6176 8.716C94.2776 9.112 94.7983 9.65467 95.1796 10.344C95.5609 11.0187 95.7516 11.7667 95.7516 12.588V19.034C95.7516 19.8407 95.5609 20.5887 95.1796 21.278C94.7983 21.9527 94.2776 22.4953 93.6176 22.906C92.9576 23.302 92.2316 23.5 91.4396 23.5H82.0456ZM89.8116 18.33C90.0169 18.33 90.1929 18.2567 90.3396 18.11C90.4863 17.9487 90.5596 17.7507 90.5596 17.516V14.018C90.5596 13.7833 90.4863 13.5853 90.3396 13.424C90.1929 13.2627 90.0169 13.182 89.8116 13.182H83.7176C83.5123 13.182 83.3289 13.2627 83.1676 13.424C83.0209 13.5853 82.9476 13.7833 82.9476 14.018V17.516C82.9476 17.7507 83.0209 17.9487 83.1676 18.11C83.3289 18.2567 83.5123 18.33 83.7176 18.33H89.8116ZM102.245 12.698C102.127 12.698 102.069 12.7493 102.069 12.852V13.754C102.069 13.8567 102.127 13.908 102.245 13.908H112.629C112.746 13.908 112.841 13.952 112.915 14.04C113.003 14.1133 113.047 14.2087 113.047 14.326V17.34C113.047 17.4573 113.003 17.56 112.915 17.648C112.841 17.7213 112.746 17.758 112.629 17.758H102.245C102.127 17.758 102.069 17.8093 102.069 17.912V18.858C102.069 18.9607 102.127 19.012 102.245 19.012H112.629C112.746 19.012 112.841 19.056 112.915 19.144C113.003 19.2173 113.047 19.3127 113.047 19.43V23.082C113.047 23.1993 113.003 23.302 112.915 23.39C112.841 23.4633 112.746 23.5 112.629 23.5H97.2727C97.1554 23.5 97.0527 23.4633 96.9647 23.39C96.8914 23.302 96.8547 23.1993 96.8547 23.082V8.518C96.8547 8.40067 96.8914 8.30533 96.9647 8.232C97.0527 8.144 97.1554 8.1 97.2727 8.1H112.629C112.746 8.1 112.841 8.144 112.915 8.232C113.003 8.30533 113.047 8.40067 113.047 8.518V12.28C113.047 12.3973 113.003 12.5 112.915 12.588C112.841 12.6613 112.746 12.698 112.629 12.698H102.245ZM5.30341 49.5C4.52607 49.5 3.80741 49.302 3.14741 48.906C2.48741 48.4953 1.95941 47.9527 1.56341 47.278C1.18207 46.5887 0.991406 45.8407 0.991406 45.034V38.566C0.991406 37.7593 1.18207 37.0187 1.56341 36.344C1.95941 35.6547 2.48741 35.112 3.14741 34.716C3.80741 34.3053 4.52607 34.1 5.30341 34.1H17.1614C17.2787 34.1 17.3741 34.144 17.4474 34.232C17.5354 34.3053 17.5794 34.4007 17.5794 34.518V38.5C17.5794 38.6173 17.5354 38.72 17.4474 38.808C17.3741 38.8813 17.2787 38.918 17.1614 38.918H6.62341C6.50607 38.918 6.40341 38.962 6.31541 39.05C6.24207 39.1233 6.20541 39.2187 6.20541 39.336V44.154C6.20541 44.2713 6.24207 44.374 6.31541 44.462C6.40341 44.5353 6.50607 44.572 6.62341 44.572H17.1614C17.2787 44.572 17.3741 44.616 17.4474 44.704C17.5354 44.7773 17.5794 44.8727 17.5794 44.99V49.082C17.5794 49.1993 17.5354 49.302 17.4474 49.39C17.3741 49.4633 17.2787 49.5 17.1614 49.5H5.30341ZM22.985 49.5C22.2077 49.5 21.489 49.302 20.829 48.906C20.169 48.4953 19.641 47.9527 19.245 47.278C18.8637 46.5887 18.673 45.8407 18.673 45.034V38.588C18.673 37.7667 18.8637 37.0187 19.245 36.344C19.641 35.6547 20.169 35.112 20.829 34.716C21.489 34.3053 22.2077 34.1 22.985 34.1H32.379C33.171 34.1 33.897 34.3053 34.557 34.716C35.217 35.112 35.7377 35.6547 36.119 36.344C36.5004 37.0187 36.691 37.7667 36.691 38.588V45.034C36.691 45.8407 36.5004 46.5887 36.119 47.278C35.7377 47.9527 35.217 48.4953 34.557 48.906C33.897 49.302 33.171 49.5 32.379 49.5H22.985ZM30.751 44.33C30.9564 44.33 31.1324 44.2567 31.279 44.11C31.4257 43.9487 31.499 43.7507 31.499 43.516V40.018C31.499 39.7833 31.4257 39.5853 31.279 39.424C31.1324 39.2627 30.9564 39.182 30.751 39.182H24.657C24.4517 39.182 24.2684 39.2627 24.107 39.424C23.9604 39.5853 23.887 39.7833 23.887 40.018V43.516C23.887 43.7507 23.9604 43.9487 24.107 44.11C24.2684 44.2567 24.4517 44.33 24.657 44.33H30.751ZM38.3441 49.5C38.2121 49.5 38.1021 49.456 38.0141 49.368C37.9408 49.28 37.9041 49.17 37.9041 49.038L37.7941 34.672C37.7941 34.54 37.8528 34.4153 37.9701 34.298C38.0875 34.166 38.2121 34.1 38.3441 34.1H55.1961C55.2841 34.1 55.3575 34.1367 55.4161 34.21C55.4748 34.2833 55.5041 34.3713 55.5041 34.474V38.302C55.5041 38.4047 55.4748 38.4927 55.4161 38.566C55.3575 38.6393 55.2841 38.676 55.1961 38.676H43.9101C43.6755 38.676 43.4995 38.7273 43.3821 38.83C43.2648 38.9327 43.2061 39.0647 43.2061 39.226C43.2061 39.3873 43.2648 39.5267 43.3821 39.644C43.5141 39.7467 43.6901 39.798 43.9101 39.798L50.9061 39.82C52.3728 39.82 53.5681 40.238 54.4921 41.074C55.4161 41.8953 55.8781 43.098 55.8781 44.682C55.8781 45.5913 55.6581 46.4127 55.2181 47.146C54.7928 47.8793 54.1988 48.4587 53.4361 48.884C52.6881 49.2947 51.8448 49.5 50.9061 49.5H38.3441ZM49.7401 45.232C49.9308 45.232 50.0921 45.1807 50.2241 45.078C50.3708 44.9607 50.4441 44.8067 50.4441 44.616C50.4441 44.4253 50.3708 44.2787 50.2241 44.176C50.0921 44.0733 49.9308 44.022 49.7401 44.022H43.5141C43.3968 44.022 43.3381 44.0733 43.3381 44.176V45.078C43.3381 45.1807 43.3968 45.232 43.5141 45.232H49.7401ZM78.4957 34.1C78.569 34.1 78.635 34.1293 78.6937 34.188C78.767 34.2467 78.8037 34.32 78.8037 34.408V49.17C78.8037 49.2433 78.767 49.3167 78.6937 49.39C78.635 49.4487 78.569 49.478 78.4957 49.478H73.8977C73.8097 49.478 73.7364 49.4487 73.6777 49.39C73.619 49.3167 73.5897 49.2433 73.5897 49.17V34.408C73.5897 34.32 73.619 34.2467 73.6777 34.188C73.7364 34.1293 73.8097 34.1 73.8977 34.1H78.4957ZM72.7757 44.264C72.7757 45.3787 72.5337 46.332 72.0497 47.124C71.5804 47.9013 70.9424 48.4953 70.1357 48.906C69.3437 49.302 68.4784 49.5 67.5397 49.5H57.3537C57.251 49.5 57.163 49.4633 57.0897 49.39C57.0164 49.3167 56.9797 49.2287 56.9797 49.126V34.496C56.9797 34.3787 57.0164 34.2907 57.0897 34.232C57.163 34.1587 57.251 34.122 57.3537 34.122H61.8197C61.9224 34.122 62.0104 34.1587 62.0837 34.232C62.157 34.3053 62.1937 34.3933 62.1937 34.496V38.588C62.1937 38.7053 62.223 38.7933 62.2817 38.852C62.355 38.9253 62.443 38.962 62.5457 38.962L67.5397 38.984C68.449 38.984 69.307 39.2113 70.1137 39.666C70.9204 40.1207 71.5657 40.7513 72.0497 41.558C72.5337 42.3647 72.7757 43.2667 72.7757 44.264ZM67.4077 44.132C67.4077 43.956 67.3417 43.8167 67.2097 43.714C67.0924 43.5967 66.9237 43.538 66.7037 43.538L62.6557 43.516C62.5677 43.516 62.5017 43.538 62.4577 43.582C62.399 43.6407 62.3697 43.692 62.3697 43.736V44.484C62.3697 44.528 62.399 44.5793 62.4577 44.638C62.5017 44.682 62.5677 44.704 62.6557 44.704H66.7037C66.9384 44.704 67.1144 44.6527 67.2317 44.55C67.349 44.4327 67.4077 44.2933 67.4077 44.132ZM86.2395 49.5C86.1368 49.5 86.0562 49.4707 85.9975 49.412C85.9388 49.3387 85.9095 49.258 85.9095 49.17V39.204C85.9095 39.116 85.8802 39.0427 85.8215 38.984C85.7628 38.9253 85.6895 38.896 85.6015 38.896H80.2115C80.1382 38.896 80.0648 38.8593 79.9915 38.786C79.9328 38.698 79.9035 38.6173 79.9035 38.544V34.43C79.9035 34.3567 79.9328 34.276 79.9915 34.188C80.0502 34.1293 80.1235 34.1 80.2115 34.1H96.7995C96.8875 34.1 96.9608 34.1293 97.0195 34.188C97.0782 34.276 97.1075 34.3567 97.1075 34.43V38.544C97.1075 38.6173 97.0782 38.698 97.0195 38.786C96.9462 38.8593 96.8728 38.896 96.7995 38.896H91.4095C91.3362 38.896 91.2628 38.9253 91.1895 38.984C91.1308 39.0427 91.1015 39.116 91.1015 39.204V49.17C91.1015 49.258 91.0722 49.3387 91.0135 49.412C90.9548 49.4707 90.8742 49.5 90.7715 49.5H86.2395ZM103.598 44.176L106.238 34.32C106.282 34.1733 106.378 34.1 106.524 34.1H115.412C115.5 34.1 115.574 34.1367 115.632 34.21C115.691 34.2687 115.72 34.3347 115.72 34.408V49.17C115.72 49.258 115.684 49.3387 115.61 49.412C115.552 49.4707 115.478 49.5 115.39 49.5H110.836C110.734 49.5 110.653 49.4707 110.594 49.412C110.536 49.3387 110.506 49.258 110.506 49.17V39.402C110.506 39.3433 110.47 39.314 110.396 39.314C110.338 39.2993 110.301 39.3213 110.286 39.38L107.646 49.258C107.602 49.4047 107.5 49.478 107.338 49.478L98.5162 49.5C98.4429 49.5 98.3695 49.4707 98.2962 49.412C98.2375 49.3533 98.2082 49.28 98.2082 49.192V34.452C98.2082 34.3493 98.2375 34.2687 98.2962 34.21C98.3695 34.1367 98.4502 34.1 98.5382 34.1H103.092C103.18 34.1 103.254 34.1367 103.312 34.21C103.386 34.2687 103.422 34.3493 103.422 34.452V44.154C103.422 44.198 103.444 44.2273 103.488 44.242C103.547 44.242 103.584 44.22 103.598 44.176ZM122.204 38.698C122.086 38.698 122.028 38.7493 122.028 38.852V39.754C122.028 39.8567 122.086 39.908 122.204 39.908H132.588C132.705 39.908 132.8 39.952 132.874 40.04C132.962 40.1133 133.006 40.2087 133.006 40.326V43.34C133.006 43.4573 132.962 43.56 132.874 43.648C132.8 43.7213 132.705 43.758 132.588 43.758H122.204C122.086 43.758 122.028 43.8093 122.028 43.912V44.858C122.028 44.9607 122.086 45.012 122.204 45.012H132.588C132.705 45.012 132.8 45.056 132.874 45.144C132.962 45.2173 133.006 45.3127 133.006 45.43V49.082C133.006 49.1993 132.962 49.302 132.874 49.39C132.8 49.4633 132.705 49.5 132.588 49.5H117.232C117.114 49.5 117.012 49.4633 116.924 49.39C116.85 49.302 116.814 49.1993 116.814 49.082V34.518C116.814 34.4007 116.85 34.3053 116.924 34.232C117.012 34.144 117.114 34.1 117.232 34.1H132.588C132.705 34.1 132.8 34.144 132.874 34.232C132.962 34.3053 133.006 34.4007 133.006 34.518V38.28C133.006 38.3973 132.962 38.5 132.874 38.588C132.8 38.6613 132.705 38.698 132.588 38.698H122.204Z" fill="#DF853B"/>
</g>
<defs>
<clipPath id="clip0_1240_6440">
<rect width="134" height="52" fill="white" transform="translate(0 0.5)"/>
</clipPath>
</defs>
</svg>
