<svg width="128" height="128" viewBox="0 0 128 128" fill="none" xmlns="http://www.w3.org/2000/svg">
<g clip-path="url(#clip0_771_3019)">
<path d="M64 0C47.0261 0 30.7475 6.74284 18.7452 18.7452C6.74284 30.7475 0 47.0261 0 64C0 80.9739 6.74284 97.2525 18.7452 109.255C30.7475 121.257 47.0261 128 64 128C80.9739 128 97.2525 121.257 109.255 109.255C121.257 97.2525 128 80.9739 128 64C128 47.0261 121.257 30.7475 109.255 18.7452C97.2525 6.74284 80.9739 0 64 0Z" fill="url(#paint0_linear_771_3019)"/>
<path d="M83.784 32C66.2 32 64 46.592 64 46.592C64 46.592 61.808 32 44.224 32C27.312 32 22.384 49.776 24.448 59.28C29.888 84.4 64 102 64 102C64 102 98.12 84.4 103.56 59.28C105.616 49.776 100.68 32 83.784 32Z" fill="white"/>
</g>
<defs>
<linearGradient id="paint0_linear_771_3019" x1="64" y1="0" x2="64" y2="128" gradientUnits="userSpaceOnUse">
<stop stop-color="#FF6680"/>
<stop offset="1" stop-color="#E61739"/>
</linearGradient>
<clipPath id="clip0_771_3019">
<rect width="128" height="128" fill="white"/>
</clipPath>
</defs>
</svg>
