<svg width="33" height="32" viewBox="0 0 33 32" fill="none" xmlns="http://www.w3.org/2000/svg">
<path d="M11.246 17.994C11.643 17.994 12.0238 17.8363 12.3045 17.5555C12.5853 17.2748 12.743 16.894 12.743 16.497C12.743 16.1 12.5853 15.7192 12.3045 15.4385C12.0238 15.1577 11.643 15 11.246 15C10.849 15 10.4682 15.1577 10.1875 15.4385C9.90672 15.7192 9.749 16.1 9.749 16.497C9.749 16.894 9.90672 17.2748 10.1875 17.5555C10.4682 17.8363 10.849 17.994 11.246 17.994ZM12.744 21.498C12.744 21.895 12.5863 22.2758 12.3055 22.5565C12.0248 22.8373 11.644 22.995 11.247 22.995C10.85 22.995 10.4692 22.8373 10.1885 22.5565C9.90772 22.2758 9.75 21.895 9.75 21.498C9.75 21.101 9.90772 20.7202 10.1885 20.4395C10.4692 20.1587 10.85 20.001 11.247 20.001C11.644 20.001 12.0248 20.1587 12.3055 20.4395C12.5863 20.7202 12.744 21.101 12.744 21.498ZM16.75 17.992C17.1468 17.992 17.5273 17.8344 17.8078 17.5538C18.0884 17.2733 18.246 16.8928 18.246 16.496C18.246 16.0992 18.0884 15.7187 17.8078 15.4382C17.5273 15.1576 17.1468 15 16.75 15C16.353 15 15.9722 15.1577 15.6915 15.4385C15.4107 15.7192 15.253 16.1 15.253 16.497C15.253 16.894 15.4107 17.2748 15.6915 17.5555C15.9722 17.8363 16.353 17.994 16.75 17.994V17.992ZM18.248 21.496C18.248 21.893 18.0903 22.2738 17.8095 22.5545C17.5288 22.8353 17.148 22.993 16.751 22.993C16.354 22.993 15.9732 22.8353 15.6925 22.5545C15.4117 22.2738 15.254 21.893 15.254 21.496C15.254 21.099 15.4117 20.7182 15.6925 20.4375C15.9732 20.1567 16.354 19.999 16.751 19.999C17.148 19.999 17.5288 20.1567 17.8095 20.4375C18.0903 20.7182 18.248 21.099 18.248 21.496ZM22.248 17.992C22.645 17.992 23.0258 17.8343 23.3065 17.5535C23.5873 17.2728 23.745 16.892 23.745 16.495C23.745 16.098 23.5873 15.7172 23.3065 15.4365C23.0258 15.1557 22.645 14.998 22.248 14.998C21.851 14.998 21.4702 15.1557 21.1895 15.4365C20.9087 15.7172 20.751 16.098 20.751 16.495C20.751 16.892 20.9087 17.2728 21.1895 17.5535C21.4702 17.8343 21.851 17.992 22.248 17.992ZM28.75 9C28.75 7.67392 28.2232 6.40215 27.2855 5.46447C26.3479 4.52678 25.0761 4 23.75 4H9.75C8.42392 4 7.15215 4.52678 6.21447 5.46447C5.27678 6.40215 4.75 7.67392 4.75 9V23C4.75 24.3261 5.27678 25.5979 6.21447 26.5355C7.15215 27.4732 8.42392 28 9.75 28H23.75C25.0761 28 26.3479 27.4732 27.2855 26.5355C28.2232 25.5979 28.75 24.3261 28.75 23V9ZM6.75 12H26.75V23C26.75 23.7956 26.4339 24.5587 25.8713 25.1213C25.3087 25.6839 24.5456 26 23.75 26H9.75C8.95435 26 8.19129 25.6839 7.62868 25.1213C7.06607 24.5587 6.75 23.7956 6.75 23V12ZM9.75 6H23.75C24.5456 6 25.3087 6.31607 25.8713 6.87868C26.4339 7.44129 26.75 8.20435 26.75 9V10H6.75V9C6.75 8.20435 7.06607 7.44129 7.62868 6.87868C8.19129 6.31607 8.95435 6 9.75 6Z" fill="#898989"/>
</svg>
