<svg width="33" height="32" viewBox="0 0 33 32" fill="none" xmlns="http://www.w3.org/2000/svg">
<path d="M6.21359 11.8989L13.57 5.71297V5.71303L15.2133 4.33211C15.5737 4.02929 16.0293 3.86328 16.5 3.86328C16.9707 3.86328 17.4263 4.02929 17.7867 4.33211L26.7864 11.8999L26.7867 11.9001C27.01 12.0878 27.1896 12.322 27.3128 12.5865C27.436 12.8508 27.4999 13.1389 27.5 13.4305C27.5 13.4306 27.5 13.4307 27.5 13.4308V26.0005C27.5 26.2657 27.3946 26.5201 27.2071 26.7076C27.0196 26.8952 26.7652 27.0005 26.5 27.0005H21C20.7348 27.0005 20.4804 26.8952 20.2929 26.7076C20.1054 26.5201 20 26.2657 20 26.0005V19.0005V18.0005H19H14H13V19.0005V26.0005C13 26.2657 12.8946 26.5201 12.7071 26.7076C12.5196 26.8952 12.2652 27.0005 12 27.0005H6.5C6.23478 27.0005 5.98043 26.8952 5.79289 26.7076C5.60536 26.5201 5.5 26.2657 5.5 26.0005L5.5 13.4298C5.5 13.4297 5.5 13.4296 5.5 13.4296C5.5001 13.1379 5.56399 12.8498 5.68719 12.5855C5.81042 12.321 5.99 12.0868 6.21333 11.8991L6.21359 11.8989Z" stroke="#898989" stroke-width="2"/>
</svg>
