<svg width="64" height="64" viewBox="0 0 64 64" fill="none" xmlns="http://www.w3.org/2000/svg">
<g clip-path="url(#clip0_1238_5933)">
<path d="M56 34.6667V21.3333C56 19.9188 55.4381 18.5623 54.4379 17.5621C53.4377 16.5619 52.0812 16 50.6667 16H13.3333C11.9188 16 10.5623 16.5619 9.5621 17.5621C8.5619 18.5623 8 19.9188 8 21.3333V37.3333C8 38.7478 8.5619 40.1044 9.5621 41.1046C10.5623 42.1048 11.9188 42.6667 13.3333 42.6667H32M38.6667 49.3333L44 54.6667L54.6667 44M32 29.36L32.0267 29.3307M42.6667 29.36L42.6933 29.3307M21.3333 29.36L21.36 29.3307" stroke="#DF853B" stroke-width="4" stroke-linecap="round" stroke-linejoin="round"/>
</g>
<defs>
<clipPath id="clip0_1238_5933">
<rect width="64" height="64" fill="white"/>
</clipPath>
</defs>
</svg>
