<svg width="20" height="20" viewBox="0 0 20 20" fill="none" xmlns="http://www.w3.org/2000/svg">
<path d="M7.49984 9.16667C8.15911 9.16667 8.80357 8.97117 9.35174 8.6049C9.8999 8.23863 10.3271 7.71803 10.5794 7.10895C10.8317 6.49986 10.8977 5.82964 10.7691 5.18303C10.6405 4.53643 10.323 3.94249 9.85686 3.47631C9.39068 3.01014 8.79674 2.69267 8.15014 2.56405C7.50353 2.43543 6.83331 2.50144 6.22423 2.75374C5.61514 3.00603 5.09454 3.43327 4.72827 3.98143C4.362 4.5296 4.1665 5.17406 4.1665 5.83333C4.1665 6.71739 4.51769 7.56524 5.14281 8.19036C5.76794 8.81548 6.61578 9.16667 7.49984 9.16667ZM7.49984 4.16667C7.82947 4.16667 8.15171 4.26442 8.42579 4.44755C8.69987 4.63069 8.91349 4.89099 9.03964 5.19553C9.16578 5.50007 9.19879 5.83518 9.13448 6.15849C9.07017 6.48179 8.91144 6.77876 8.67835 7.01185C8.44526 7.24493 8.14829 7.40367 7.82499 7.46798C7.50169 7.53229 7.16657 7.49928 6.86203 7.37313C6.55749 7.24699 6.29719 7.03337 6.11405 6.75928C5.93092 6.4852 5.83317 6.16297 5.83317 5.83333C5.83317 5.39131 6.00877 4.96738 6.32133 4.65482C6.63389 4.34226 7.05781 4.16667 7.49984 4.16667ZM14.1665 10.8333C14.661 10.8333 15.1443 10.6867 15.5554 10.412C15.9666 10.1373 16.287 9.74686 16.4762 9.29004C16.6654 8.83323 16.7149 8.33056 16.6185 7.84561C16.522 7.36066 16.2839 6.9152 15.9343 6.56557C15.5846 6.21594 15.1392 5.97783 14.6542 5.88137C14.1693 5.78491 13.6666 5.83442 13.2098 6.02364C12.753 6.21286 12.3625 6.53329 12.0878 6.94441C11.8131 7.35553 11.6665 7.83888 11.6665 8.33333C11.6665 8.99638 11.9299 9.63226 12.3987 10.1011C12.8676 10.5699 13.5035 10.8333 14.1665 10.8333ZM14.1665 7.5C14.3313 7.5 14.4924 7.54888 14.6295 7.64044C14.7665 7.73201 14.8733 7.86216 14.9364 8.01443C14.9995 8.1667 15.016 8.33426 14.9838 8.49591C14.9517 8.65756 14.8723 8.80605 14.7558 8.92259C14.6392 9.03913 14.4907 9.1185 14.3291 9.15066C14.1674 9.18281 13.9999 9.16631 13.8476 9.10323C13.6953 9.04016 13.5652 8.93335 13.4736 8.79631C13.382 8.65927 13.3332 8.49815 13.3332 8.33333C13.3332 8.11232 13.421 7.90036 13.5772 7.74408C13.7335 7.5878 13.9455 7.5 14.1665 7.5ZM14.1665 11.6667C13.243 11.6677 12.3461 11.9755 11.6165 12.5417C10.8003 11.7286 9.76155 11.1755 8.63136 10.952C7.50116 10.7285 6.3301 10.8447 5.26586 11.2859C4.20162 11.7272 3.29185 12.4736 2.65129 13.4312C2.01073 14.3888 1.66806 15.5146 1.6665 16.6667C1.6665 16.8877 1.7543 17.0996 1.91058 17.2559C2.06686 17.4122 2.27882 17.5 2.49984 17.5C2.72085 17.5 2.93281 17.4122 3.08909 17.2559C3.24537 17.0996 3.33317 16.8877 3.33317 16.6667C3.33317 15.5616 3.77216 14.5018 4.55356 13.7204C5.33496 12.939 6.39477 12.5 7.49984 12.5C8.60491 12.5 9.66471 12.939 10.4461 13.7204C11.2275 14.5018 11.6665 15.5616 11.6665 16.6667C11.6665 16.8877 11.7543 17.0996 11.9106 17.2559C12.0669 17.4122 12.2788 17.5 12.4998 17.5C12.7209 17.5 12.9328 17.4122 13.0891 17.2559C13.2454 17.0996 13.3332 16.8877 13.3332 16.6667C13.3352 15.6904 13.0885 14.7296 12.6165 13.875C12.9848 13.584 13.4275 13.4025 13.8941 13.3514C14.3607 13.3002 14.8322 13.3815 15.2548 13.5858C15.6774 13.7901 16.0339 14.1093 16.2835 14.5068C16.5332 14.9042 16.6659 15.364 16.6665 15.8333C16.6665 16.0543 16.7543 16.2663 16.9106 16.4226C17.0669 16.5789 17.2788 16.6667 17.4998 16.6667C17.7208 16.6667 17.9328 16.5789 18.0891 16.4226C18.2454 16.2663 18.3332 16.0543 18.3332 15.8333C18.3332 14.7283 17.8942 13.6685 17.1128 12.8871C16.3314 12.1057 15.2716 11.6667 14.1665 11.6667Z" fill="#898989"/>
</svg>
