<svg width="33" height="32" viewBox="0 0 33 32" fill="none" xmlns="http://www.w3.org/2000/svg">
<path d="M23.25 9C23.25 10.8565 22.5125 12.637 21.1997 13.9497C19.887 15.2625 18.1065 16 16.25 16C14.3935 16 12.613 15.2625 11.3003 13.9497C9.9875 12.637 9.25 10.8565 9.25 9C9.25 7.14348 9.9875 5.36301 11.3003 4.05025C12.613 2.7375 14.3935 2 16.25 2C18.1065 2 19.887 2.7375 21.1997 4.05025C22.5125 5.36301 23.25 7.14348 23.25 9ZM21.25 9C21.25 7.67392 20.7232 6.40215 19.7855 5.46447C18.8479 4.52678 17.5761 4 16.25 4C14.9239 4 13.6521 4.52678 12.7145 5.46447C11.7768 6.40215 11.25 7.67392 11.25 9C11.25 10.3261 11.7768 11.5979 12.7145 12.5355C13.6521 13.4732 14.9239 14 16.25 14C17.5761 14 18.8479 13.4732 19.7855 12.5355C20.7232 11.5979 21.25 10.3261 21.25 9ZM7.75 18C6.82174 18 5.9315 18.3687 5.27513 19.0251C4.61875 19.6815 4.25 20.5717 4.25 21.5V22C4.25 24.393 5.773 26.417 7.935 27.793C10.109 29.177 13.052 30 16.25 30C19.448 30 22.39 29.177 24.565 27.793C26.727 26.417 28.25 24.393 28.25 22V21.5C28.25 20.5717 27.8813 19.6815 27.2249 19.0251C26.5685 18.3687 25.6783 18 24.75 18H7.75ZM6.25 21.5C6.25 21.1022 6.40804 20.7206 6.68934 20.4393C6.97064 20.158 7.35218 20 7.75 20H24.75C25.1478 20 25.5294 20.158 25.8107 20.4393C26.092 20.7206 26.25 21.1022 26.25 21.5V22C26.25 23.473 25.31 24.949 23.491 26.106C21.684 27.256 19.127 28 16.25 28C13.373 28 10.816 27.256 9.009 26.106C7.189 24.95 6.25 23.472 6.25 22V21.5Z" fill="#898989"/>
</svg>
