<svg width="70" height="71" viewBox="0 0 70 71" fill="none" xmlns="http://www.w3.org/2000/svg">
<path d="M53.3312 44.3154H49.9844V50.9873H43.3343V54.3123H36.6625V57.6373H46.6593V60.9842H49.9844V64.3092H53.3312V67.6561H56.6562V70.9811H60.0031V67.6561H63.3281V64.3092H66.6531V60.9842H70V57.6373H66.6531V54.3123H63.3281V50.9873H60.0031V47.6404H56.6562V37.6436H53.3312V44.3154Z" fill="#DF853B" fill-opacity="0.8"/>
<path d="M60.0031 24.3218H56.6562V37.6437H60.0031V24.3218Z" fill="#DF853B" fill-opacity="0.8"/>
<path d="M56.6563 17.6499H53.3313V24.3218H56.6563V17.6499Z" fill="#DF853B" fill-opacity="0.8"/>
<path d="M53.3312 10.978H49.9844V17.6499H53.3312V10.978Z" fill="#DF853B" fill-opacity="0.8"/>
<path d="M49.9844 27.6465H46.6594V34.3184H49.9844V27.6465Z" fill="#DF853B" fill-opacity="0.8"/>
<path d="M46.6594 20.9746H43.3344V27.6465H46.6594V20.9746Z" fill="#DF853B" fill-opacity="0.8"/>
<path d="M49.9844 7.65283H43.3344V10.9778H49.9844V7.65283Z" fill="#DF853B" fill-opacity="0.8"/>
<path d="M43.3343 17.6499H36.6625V20.9749H43.3343V17.6499Z" fill="#DF853B" fill-opacity="0.8"/>
<path d="M43.3343 4.30615H36.6625V7.65303H43.3343V4.30615Z" fill="#DF853B" fill-opacity="0.8"/>
<path d="M36.6625 14.3247H29.9906V17.6497H36.6625V14.3247Z" fill="#DF853B" fill-opacity="0.8"/>
<path d="M36.6625 57.6372H23.3187V60.9841H36.6625V57.6372Z" fill="#DF853B" fill-opacity="0.8"/>
<path d="M36.6625 0.980957H23.3187V4.30596H36.6625V0.980957Z" fill="#DF853B" fill-opacity="0.8"/>
<path d="M23.3187 54.312H16.6687V57.637H23.3187V54.312Z" fill="#DF853B" fill-opacity="0.8"/>
<path d="M23.3187 4.30615H16.6687V7.65303H23.3187V4.30615Z" fill="#DF853B" fill-opacity="0.8"/>
<path d="M16.6687 50.9873H9.99683V54.3123H16.6687V50.9873Z" fill="#DF853B" fill-opacity="0.8"/>
<path d="M16.6687 7.65283H9.99683V10.9778H16.6687V7.65283Z" fill="#DF853B" fill-opacity="0.8"/>
<path d="M9.99688 44.3154H6.67188V50.9873H9.99688V44.3154Z" fill="#DF853B" fill-opacity="0.8"/>
<path d="M9.99688 10.978H6.67188V17.6499H9.99688V10.978Z" fill="#DF853B" fill-opacity="0.8"/>
<path d="M6.67183 37.6436H3.32495V44.3154H6.67183V37.6436Z" fill="#DF853B" fill-opacity="0.8"/>
<path d="M6.67183 17.6499H3.32495V24.3218H6.67183V17.6499Z" fill="#DF853B" fill-opacity="0.8"/>
<path d="M3.325 24.3218H0V37.6437H3.325V24.3218Z" fill="#DF853B" fill-opacity="0.8"/>
</svg>
