<svg width="176" height="131" viewBox="0 0 176 131" fill="none" xmlns="http://www.w3.org/2000/svg">
<path fill-rule="evenodd" clip-rule="evenodd" d="M19.1434 116.022C32.4226 130.477 83.774 122.173 117.586 122.173C132.173 122.173 181.125 129.484 160.911 79.2758C94.6318 -85.3489 -22.9319 70.2214 19.1434 116.022Z" fill="#FFD399"/>
<path fill-rule="evenodd" clip-rule="evenodd" d="M77.898 117.184C77.9625 117.135 78.0302 117.081 78.0583 117.005C78.1484 116.76 77.7949 116.597 77.534 116.603C77.1555 116.612 76.6701 116.867 76.786 117.227C76.853 117.436 77.1099 117.532 77.3256 117.494C77.5413 117.455 77.7242 117.318 77.898 117.184ZM79.0232 112.892C79.3091 112.982 79.5913 113.093 79.8402 113.259C80.3076 113.572 80.6256 114.058 80.9308 114.531C81.1496 114.869 81.3714 115.215 81.4806 115.603C81.5988 116.023 81.5777 116.472 81.4985 116.902C81.2518 118.24 80.4261 119.46 79.2762 120.187C78.1263 120.915 76.6693 121.137 75.3548 120.786C75.0989 120.718 74.8412 120.625 74.6444 120.448C74.479 120.299 74.3676 120.1 74.2656 119.903C73.7301 118.865 73.3692 117.711 73.4104 116.544C73.4517 115.377 73.9315 114.195 74.8404 113.462C75.981 112.541 77.6246 112.453 79.0232 112.892" fill="white"/>
<path fill-rule="evenodd" clip-rule="evenodd" d="M139.391 49.3885C138.764 49.3806 138.177 49.9061 138.114 50.5298C138.089 50.7847 138.197 51.1016 138.451 51.1367C138.641 51.163 138.808 51.0161 138.936 50.8729C139.206 50.5699 139.438 50.233 139.625 49.8725C139.688 49.7515 139.743 49.5963 139.661 49.4878C139.601 49.4088 139.49 49.3897 139.391 49.3885ZM139.12 46.5918C140.01 46.9023 140.816 47.4484 141.435 48.1595C141.967 48.7706 142.372 49.5639 142.26 50.3663C142.219 50.6609 142.111 50.9418 141.987 51.2121C141.517 52.236 140.71 53.2173 139.601 53.4156C139.019 53.5196 138.42 53.3949 137.86 53.2046C137.213 52.9845 136.597 52.6758 136.033 52.2898C135.733 52.0851 135.436 51.8421 135.305 51.5041C135.215 51.2712 135.212 51.0147 135.215 50.7649C135.224 50.1471 135.265 49.5188 135.48 48.9397C135.753 48.207 136.286 47.6022 136.851 47.0624C137.079 46.8453 137.32 46.6314 137.612 46.515C138.09 46.3247 138.634 46.4223 139.12 46.5918Z" fill="white"/>
<path fill-rule="evenodd" clip-rule="evenodd" d="M139.392 2.01764C143.074 5.8153 145.981 10.3564 147.884 15.2846C148.014 15.6231 148.141 15.9991 148.016 16.3398C147.056 18.9633 145.204 21.1504 143.388 23.277C142.227 24.636 141.067 25.9949 139.906 27.3538C138.798 28.6511 137.69 29.9486 136.544 31.2132C130.712 37.6523 123.821 43.2827 115.841 46.7471C115.539 46.8778 115.216 47.0082 114.892 46.9559C114.568 46.9037 114.264 46.59 114.349 46.2738C115.335 42.5993 116.328 38.7577 115.537 35.0366C115.346 34.1391 115.133 33.009 115.877 32.4689C121.905 28.0963 126.244 21.8462 130.403 15.681C131.449 14.1307 132.492 12.5762 133.418 10.9518C135.061 8.06775 136.326 4.97044 137.172 1.76304C137.288 1.3229 137.846 1.1247 138.288 1.24005C138.729 1.35539 139.075 1.69034 139.392 2.01764" fill="white"/>
<path fill-rule="evenodd" clip-rule="evenodd" d="M24.5503 16.7712C25.149 22.1836 26.8153 27.4759 29.4255 32.2551C31.0417 35.2141 33.0075 37.9654 34.968 40.7084C36.3323 42.6172 37.7912 44.6064 39.9199 45.5928C40.4859 45.8551 40.4069 46.6712 40.255 47.2762C39.5984 49.8914 39.292 52.5944 39.3466 55.2903C39.3518 55.545 39.3585 55.809 39.2584 56.0432C38.9187 56.8385 37.7548 56.706 36.9535 56.3807C31.9958 54.3682 28.1895 50.3209 24.6338 46.3225C20.0173 41.1313 15.4695 35.712 12.7424 29.3227C12.557 28.8883 12.377 28.4312 12.408 27.96C12.4397 27.4798 12.6864 27.0433 12.9366 26.6323C15.4089 22.5716 18.8482 19.1043 22.8887 16.5992C23.1733 16.4227 23.4772 16.2459 23.8118 16.2343C24.1464 16.2228 24.5134 16.4383 24.5503 16.7712Z" fill="white"/>
<path fill-rule="evenodd" clip-rule="evenodd" d="M138.669 111.721C139.097 110.997 139.626 110.199 140.455 110.062C140.782 110.008 140.955 109.653 141.066 109.341C142.437 105.495 142.569 101.219 141.438 97.296C141.115 96.1763 141.513 94.9894 141.906 93.8924C142.921 91.0615 143.936 88.2307 144.95 85.3999C144.369 84.3941 142.836 84.424 142.051 83.568C141.04 82.4666 141.802 80.7154 142.594 79.4474C147.219 72.04 151.845 64.6325 156.47 57.225C157.037 56.3175 158.28 56.033 159.323 56.2748C160.365 56.5167 161.255 57.1726 162.112 57.8129C165.486 60.3325 168.859 62.8522 172.233 65.3718C174.043 66.7242 176.042 68.4516 175.938 70.709C175.88 71.9582 175.165 73.0686 174.474 74.1105C171.8 78.1391 169.127 82.1677 166.453 86.1964C164.947 88.466 165.363 91.4468 164.908 94.1324C164.188 98.3758 161.279 101.861 158.584 105.217C155.889 108.573 153.193 112.32 153.042 116.622C152.861 121.748 150.426 126.755 146.504 130.062C147.642 127.302 140.455 128.403 132.235 125.132C133.588 120.347 136.142 116.003 138.669 111.721Z" fill="white"/>
<path fill-rule="evenodd" clip-rule="evenodd" d="M48.403 123.722C47.8904 123.303 47.727 122.595 47.6365 121.937C46.5896 114.325 51.0856 106.812 50.2847 99.1704C49.872 95.2322 48.0625 91.5575 45.7855 88.3258C44.213 86.094 44.1248 83.1041 44.7115 80.4338C45.2981 77.7635 46.4816 75.2666 47.2798 72.6522C50.8294 61.0264 46.5102 48.6064 42.24 37.2279C50.7491 33.1131 60.6786 33.9101 70.1052 34.4676C79.5319 35.0251 89.67 35.0645 97.5267 29.8C98.6037 41.1887 96.2291 52.5899 93.8681 63.7811C105.848 62.614 117.828 61.4468 129.808 60.2797C130.152 60.2462 130.528 60.2204 130.813 60.4155C131.194 60.6757 131.252 61.2065 131.274 61.6688C131.834 73.5126 132.174 85.3669 132.293 97.2235C132.296 97.5208 132.285 97.8524 132.077 98.0633C131.898 98.2439 131.626 98.2816 131.374 98.3097C114.589 100.18 97.8047 102.051 81.0202 103.921C79.5687 104.083 77.5012 103.705 77.5862 102.24C77.9652 95.7067 77.744 89.1387 76.9262 82.6464C72.4656 82.4776 67.9746 83.1578 63.7616 84.6403C62.8058 84.9767 61.6565 85.881 62.172 86.757C65.5825 92.5526 61.3496 101.264 65.9815 106.129C67.5741 107.802 67.4641 110.433 67.1484 112.727C66.4718 117.642 65.3224 122.492 63.7214 127.187C64.4954 121.783 48.876 126.62 48.403 123.722Z" fill="white"/>
<path fill-rule="evenodd" clip-rule="evenodd" d="M0.394747 1.06119C0.409087 1.17657 0.346656 1.29772 0.244373 1.353C0.162915 1.27151 0.0814577 1.19001 0 1.10851C0.122115 1.0551 0.260608 1.03987 0.391413 1.06546L0.394747 1.06119Z" fill="#00160A"/>
<path fill-rule="evenodd" clip-rule="evenodd" d="M78.7299 112.892C79.0157 112.982 79.2979 113.093 79.5469 113.259C80.0142 113.572 80.3323 114.058 80.6375 114.531C80.8563 114.869 81.0781 115.215 81.1872 115.603C81.3055 116.023 81.2844 116.472 81.2052 116.902C80.9585 118.24 80.1328 119.46 78.9828 120.187C77.8329 120.915 76.376 121.137 75.0615 120.786C74.8056 120.718 74.5479 120.625 74.3511 120.448C74.1857 120.299 74.0743 120.1 73.9723 119.903C73.4368 118.865 73.0759 117.711 73.1171 116.544C73.1583 115.377 73.6382 114.195 74.5471 113.462C75.6877 112.541 77.3313 112.453 78.7299 112.892M77.127 119.842C77.842 119.734 78.4712 119.267 78.8822 118.671C79.2931 118.076 79.504 117.363 79.6052 116.647C79.663 116.238 79.6683 115.769 79.3796 115.474C79.2068 115.297 78.96 115.218 78.7232 115.147C77.8343 114.881 76.8195 114.655 76.0233 115.132C75.4434 115.478 75.1202 116.121 74.8271 116.73C74.4839 117.443 74.5687 118.343 75.039 118.979C75.5093 119.616 76.3447 119.961 77.127 119.842V119.842Z" fill="#00160A"/>
<path fill-rule="evenodd" clip-rule="evenodd" d="M111.39 80.7778C111.403 80.6261 111.421 80.4634 111.521 80.349C111.619 80.2371 111.774 80.1969 111.919 80.1632C115.654 79.2935 119.512 78.9532 123.342 79.1558C123.83 79.1816 124.457 79.3467 124.489 79.834C124.674 82.6282 124.859 85.4225 125.044 88.2167C125.054 88.3581 125.058 88.5149 124.968 88.624C124.894 88.7129 124.775 88.7472 124.664 88.7764C120.68 89.8148 116.481 90.0195 112.416 89.3735C112.311 89.3569 112.201 89.3372 112.12 89.2692C112.022 89.1869 111.987 89.053 111.959 88.928C111.36 86.2607 111.167 83.5024 111.39 80.7778ZM112.271 85.4131C112.344 86.4682 112.566 87.513 112.926 88.5073C113.286 88.5592 113.642 88.6339 114.001 88.6946C117.09 89.2177 120.25 88.6914 123.339 88.1658C123.559 88.1285 123.799 88.0789 123.934 87.9025C124.072 87.7222 124.054 87.4712 124.029 87.2454C123.923 86.2826 123.816 85.3198 123.71 84.3569C123.701 84.2793 123.69 84.1961 123.638 84.1383C123.574 84.0681 123.47 84.0568 123.375 84.0505C121.18 83.906 118.977 84.0698 116.783 84.2336C115.571 84.3241 114.358 84.4145 113.146 84.505C112.861 84.5263 112.537 84.5685 112.373 84.8027C112.252 84.9752 112.256 85.203 112.271 85.4131ZM112.305 81.3859C112.113 82.0013 112.079 82.6651 112.206 83.297C112.229 83.4106 112.261 83.5304 112.347 83.6078C112.475 83.7224 112.67 83.7035 112.839 83.6786C114.905 83.376 116.994 83.2256 119.082 83.2291C119.376 83.2296 119.467 82.8331 119.464 82.5386C119.459 82.107 119.454 81.6754 119.449 81.2438C119.447 80.9941 119.434 80.719 119.263 80.5369C119.058 80.3182 118.714 80.325 118.415 80.3479C117.723 80.4007 117.032 80.4536 116.34 80.5064C116.009 80.5317 115.131 80.7564 114.728 80.783C114.026 80.8951 113.323 81.0071 112.621 81.1192C112.546 81.1311 112.467 81.1449 112.41 81.1941C112.353 81.242 112.327 81.3154 112.305 81.3859ZM121.567 83.2633C122.116 83.2704 122.666 83.2155 123.203 83.1C123.331 83.0725 123.465 83.0375 123.556 82.9438C123.69 82.8063 123.689 82.5906 123.679 82.399C123.651 81.8425 123.622 81.2861 123.594 80.7296C123.584 80.5311 123.561 80.3076 123.406 80.1834C123.27 80.0741 123.077 80.0806 122.903 80.0925C122.292 80.134 121.682 80.1756 121.071 80.2171C120.975 80.2237 120.873 80.2319 120.792 80.2853C120.644 80.383 120.622 80.5876 120.618 80.7648C120.604 81.3546 120.629 81.9453 120.69 82.532C120.708 82.7019 120.733 82.8807 120.838 83.0154C121.002 83.2251 121.301 83.2599 121.567 83.2633Z" fill="#DF853B"/>
<path fill-rule="evenodd" clip-rule="evenodd" d="M120.95 68.5668C121.766 68.2137 122.767 68.332 123.478 68.8655C124.19 69.3991 124.583 70.3273 124.472 71.2095C124.972 70.9392 125.607 70.673 126.073 70.9976C126.6 71.3641 126.48 72.1535 126.401 72.7904C126.262 73.9032 126.442 75.0537 126.912 76.0716C127.106 76.4921 127.273 77.1301 126.842 77.2997C126.769 77.3283 126.69 77.3349 126.612 77.3412C121.558 77.7485 116.504 78.1558 111.45 78.5631C111.311 78.5743 111.156 78.5803 111.051 78.489C110.944 78.3958 110.931 78.2372 110.925 78.0955C110.877 76.9067 110.828 75.7179 110.78 74.5291C110.767 74.2102 110.761 73.8663 110.941 73.6029C111.239 73.1668 111.863 73.1681 112.385 73.0846C112.906 73.0011 113.513 72.561 113.312 72.0725C113.088 71.5278 113.851 71.1299 114.433 71.0413C115.015 70.9527 115.788 70.6057 115.611 70.0439C115.418 69.4302 116.263 69.0493 116.901 68.9646C117.351 68.9048 117.821 68.8471 118.248 69.0015C118.675 69.1558 119.035 69.5952 118.939 70.0388C118.829 70.5466 119.448 71.0197 119.935 70.8403C120.423 70.661 120.621 69.9945 120.374 69.5372C120.172 69.1638 120.56 68.7354 120.95 68.5668ZM123.56 76.4008C123.371 76.0503 123.369 75.633 123.368 75.2348C123.36 73.3651 123.245 71.4957 123.024 69.639C123.013 69.5454 122.995 69.4406 122.918 69.3857C122.852 69.3384 122.763 69.344 122.682 69.3515C122.287 69.3884 121.819 69.4757 121.663 69.8403C121.597 69.9958 121.605 70.1716 121.614 70.3405C121.714 72.2145 121.814 74.0885 121.914 75.9625C121.923 76.137 121.947 76.3374 122.092 76.4349C122.171 76.4881 122.27 76.498 122.365 76.5032C122.766 76.525 123.169 76.4904 123.56 76.4008ZM116.762 73.5194C116.713 73.8316 116.644 74.1416 116.626 74.4571C116.595 74.9843 116.706 75.5084 116.817 76.0249C116.887 76.356 117.316 76.519 117.629 76.3913C117.943 76.2637 118.132 75.929 118.184 75.5944C118.237 75.2598 118.175 74.9193 118.122 74.5849C117.913 73.2711 117.822 71.9384 117.852 70.6084C117.859 70.2718 117.531 69.9678 117.196 70.001C116.861 70.0343 116.599 70.3968 116.672 70.7253C116.877 71.6401 116.907 72.5934 116.762 73.5194ZM120.086 71.7248C119.889 71.4666 119.437 71.6041 119.283 71.8901C119.13 72.1761 119.177 72.5229 119.215 72.8454C119.314 73.6875 119.324 74.5403 119.243 75.3844C119.219 75.6332 119.193 75.9049 119.33 76.1138C119.542 76.4351 120.005 76.4322 120.388 76.3933C120.508 76.3811 120.646 76.3579 120.706 76.2535C120.748 76.1808 120.738 76.0906 120.727 76.0074C120.551 74.6978 120.374 73.3881 120.198 72.0784C120.181 71.9544 120.162 71.8242 120.086 71.7248ZM124.464 72.2875C124.315 72.49 124.284 72.7535 124.271 73.0042C124.227 73.8639 124.341 74.7229 124.454 75.5762C124.499 75.9124 124.653 76.3445 124.991 76.3215C125.334 76.2983 125.424 75.8396 125.416 75.4959C125.395 74.5858 125.374 73.6757 125.352 72.7656C125.347 72.5263 125.322 72.2491 125.123 72.1155C124.915 71.9754 124.612 72.0851 124.464 72.2875ZM114.104 72.0725C114.104 72.0725 114.255 73.2602 114.307 73.8655C114.373 74.6252 114.457 75.3834 114.559 76.1392C114.574 76.2489 114.594 76.3678 114.675 76.4433C114.815 76.5743 115.357 76.4873 115.457 76.3233C115.556 76.1592 115.551 75.9544 115.542 75.7626C115.515 75.156 115.487 74.5493 115.46 73.9427C115.43 73.2924 115.275 71.8901 115.275 71.8901M112.14 76.3733C112.183 76.5094 112.234 76.6518 112.344 76.7428C112.559 76.9205 112.907 76.8105 113.076 76.5892C113.246 76.3678 113.284 76.0762 113.316 75.7994C113.356 75.4598 113.394 75.1069 113.284 74.7831C113.174 74.4594 112.87 74.1745 112.529 74.2046C112.216 74.2322 111.973 74.5185 111.9 74.8243C111.827 75.1302 111.889 75.451 111.965 75.7561C112.017 75.9636 112.075 76.1695 112.14 76.3733Z" fill="#E7EAEE"/>
<path fill-rule="evenodd" clip-rule="evenodd" d="M132.628 27.7353C132.22 28.3479 131.777 28.9683 131.146 29.3465C130.515 29.7247 129.643 29.7984 129.076 29.3295C128.45 28.8122 128.411 27.8797 128.461 27.0693C128.48 26.7572 128.505 26.4427 128.594 26.1431C128.749 25.6236 129.088 25.1802 129.441 24.769C129.87 24.2703 130.345 23.7892 130.94 23.5085C131.535 23.2278 132.274 23.1785 132.832 23.5277C133.499 23.9457 133.746 24.835 133.619 25.6121C133.493 26.3892 133.064 27.0801 132.628 27.7353ZM131.332 28.3834C131.847 27.8353 132.288 27.2186 132.641 26.5547C132.873 26.1178 133.07 25.643 133.061 25.1484C133.052 24.6538 132.791 24.1368 132.331 23.9532C131.733 23.7142 131.076 24.0966 130.576 24.5029C130.22 24.7922 129.875 25.1095 129.647 25.5073C129.503 25.7589 129.409 26.0356 129.316 26.3104C129.14 26.8302 128.962 27.3718 129.029 27.9164C129.096 28.461 129.485 29.0078 130.031 29.0642C130.536 29.1164 130.984 28.7536 131.332 28.3834Z" fill="#DF853B"/>
<path fill-rule="evenodd" clip-rule="evenodd" d="M27.5145 34.6583C28.1537 35.3058 28.6814 36.0632 29.0674 36.8871C29.4553 37.7152 29.0642 38.7795 28.3029 39.286C27.5415 39.7926 26.5122 39.786 25.6775 39.4126C24.8427 39.0393 24.1867 38.3425 23.7035 37.5661C23.3393 36.9808 23.0569 36.3248 23.0266 35.6361C22.9963 34.9473 23.2499 34.2225 23.7948 33.8001C24.3458 33.3729 25.1207 33.3119 25.7872 33.5169C26.4537 33.7219 27.0246 34.1621 27.5145 34.6583ZM25.0203 34.2646C24.4672 34.2076 23.9759 34.7153 23.881 35.2632C23.7861 35.811 23.9949 36.3669 24.2652 36.8529C24.8512 37.9066 25.8969 38.8426 27.1012 38.7843C27.7203 38.7544 28.3989 38.3255 28.3879 37.7058C28.3831 37.4378 28.2509 37.1905 28.1189 36.9573C27.7681 36.3377 27.3892 35.7244 26.8833 35.2234C26.3773 34.7224 25.7286 34.3375 25.0203 34.2646Z" fill="#DF853B"/>
<path fill-rule="evenodd" clip-rule="evenodd" d="M75.8481 116.173C76.2921 115.835 76.8444 115.617 77.4009 115.653C77.9574 115.689 78.5081 116.008 78.7409 116.515C78.9908 117.059 78.8351 117.734 78.4453 118.189C78.0555 118.643 77.4682 118.894 76.8754 118.976C76.4709 119.033 75.9887 118.982 75.7672 118.639C75.6603 118.473 75.6361 118.269 75.6146 118.073C75.576 117.722 75.5375 117.37 75.4989 117.018C75.4825 116.869 75.4667 116.715 75.5147 116.573C75.571 116.406 75.7077 116.279 75.8481 116.173M77.6047 117.184C77.6692 117.135 77.7369 117.081 77.765 117.005C77.8551 116.76 77.5016 116.597 77.2407 116.603C76.8622 116.612 76.3768 116.867 76.4927 117.227C76.5598 117.436 76.8166 117.532 77.0323 117.494C77.248 117.455 77.4309 117.318 77.6047 117.184H77.6047Z" fill="#00160A"/>
<path fill-rule="evenodd" clip-rule="evenodd" d="M138.744 3.73153C142.203 7.31294 144.934 11.5955 146.721 16.243C146.844 16.5622 146.963 16.9168 146.846 17.2381C145.944 19.7122 144.204 21.7748 142.498 23.7803L139.227 27.6249L139.226 27.6253L139.226 27.6254L139.226 27.6255L139.226 27.6255L139.226 27.6256L139.226 27.6256L139.226 27.6257L139.226 27.6258C138.185 28.8489 137.144 30.0722 136.068 31.2646C130.589 37.337 124.115 42.6468 116.617 45.9139C116.335 46.0372 116.031 46.1601 115.726 46.1108C115.422 46.0616 115.136 45.7657 115.216 45.4675C116.143 42.0023 117.076 38.3794 116.332 34.8703C116.152 34.0238 115.952 32.9581 116.652 32.4488C122.315 28.3252 126.392 22.4309 130.299 16.6168C131.282 15.1548 132.262 13.6889 133.131 12.157C134.675 9.43712 135.863 6.51619 136.658 3.49143C136.767 3.07635 137.291 2.88944 137.706 2.99822C138.121 3.107 138.446 3.42287 138.744 3.73153ZM136.323 8.17903C135.971 8.03363 135.647 8.42687 135.468 8.76252C135.274 9.12587 135.08 9.48978 134.886 9.85399C131.302 16.5869 127.662 23.4232 122.2 28.7263C121.684 29.2274 121.107 29.8327 121.202 30.5457C121.507 32.8312 120.287 35.2448 118.265 36.3544C117.348 36.8581 117.359 38.158 117.493 39.1962C117.547 39.6118 117.704 40.1328 118.121 40.168C119.346 40.2712 120.522 40.8742 121.32 41.8088C121.572 42.1037 122.05 41.9194 122.378 41.713C130.642 36.518 136.991 28.8445 143.191 21.3051C143.404 21.045 143.632 20.7173 143.52 20.3996C142.582 17.7272 142.733 14.6902 143.93 12.1236C143.224 10.7176 142.382 9.37982 141.419 8.13472C139.818 8.82975 137.935 8.84612 136.323 8.17903ZM116.722 44.5415C117.048 44.7122 117.443 44.5499 117.769 44.3796C118.626 43.9322 119.451 43.4244 120.237 42.8612C120.445 42.7124 120.507 42.4152 120.433 42.1704C120.36 41.9257 120.176 41.7284 119.973 41.574C119.337 41.0917 118.449 40.9649 117.704 41.25C117.566 41.3027 117.43 41.3714 117.335 41.4842C117.224 41.6163 117.183 41.7921 117.147 41.9609C116.967 42.8142 116.825 43.6755 116.722 44.5415ZM139.928 6.39956C139.367 5.30168 138.501 4.36149 137.453 3.71179C137.088 4.03317 137.017 4.52152 136.945 5.01939C136.895 5.36102 136.845 5.70713 136.699 6.00684C136.651 6.10445 136.593 6.19783 136.535 6.29099C136.424 6.46835 136.314 6.64495 136.279 6.84863C136.225 7.15931 136.488 7.54905 136.786 7.44625C137.028 7.36268 137.282 7.41636 137.538 7.47051C137.674 7.49908 137.809 7.52779 137.945 7.5365C138.732 7.5873 139.385 6.97075 139.928 6.39956ZM144.379 12.9798C143.777 14.1763 143.872 15.5894 143.982 16.924L144.138 18.8381C144.156 19.0486 144.27 19.3326 144.473 19.2743C144.599 18.9218 144.839 18.6309 145.08 18.3393C145.29 18.0842 145.501 17.8285 145.637 17.5304C146.096 16.5209 145.586 15.3575 145.084 14.3687L144.379 12.9798ZM117.453 34.2239C117.478 34.5983 117.867 34.8786 118.242 34.8681C118.617 34.8575 118.955 34.6148 119.174 34.3102C119.393 34.0056 119.514 33.6429 119.631 33.2864L120.017 32.1091C120.125 31.7809 120.132 31.2791 119.789 31.2405C119.665 31.2266 119.546 31.2922 119.445 31.3644C119.06 31.638 118.78 32.0309 118.507 32.4162L117.764 33.4657C117.603 33.6934 117.434 33.9457 117.453 34.2239ZM28.8389 31.0816C26.2286 26.3025 24.5623 21.0102 23.9636 15.5977C23.9268 15.2649 23.5598 15.0493 23.2251 15.0609C22.8905 15.0725 22.5866 15.2493 22.302 15.4258C18.2616 17.9309 14.8222 21.3982 12.3499 25.4589C12.0997 25.8699 11.853 26.3064 11.8214 26.7865C11.7904 27.2578 11.9703 27.7149 12.1557 28.1493C14.8829 34.5386 19.4307 39.9579 24.0472 45.1491C27.6029 49.1474 31.4091 53.1947 36.3669 55.2073C37.1682 55.5326 38.332 55.6651 38.6718 54.8698C38.7706 54.6385 38.7653 54.3781 38.7602 54.1264L38.76 54.1169C38.7053 51.421 39.0117 48.718 39.6683 46.1028C39.8202 45.4978 39.8992 44.6817 39.3332 44.4194C37.2045 43.433 35.7456 41.4438 34.3813 39.535C32.4208 36.792 30.455 34.0407 28.8389 31.0816ZM33.4468 51.9721C33.1536 52.0503 32.8607 51.8654 32.6159 51.686C28.1037 48.38 24.6069 43.9055 21.1713 39.4912L15.1084 31.701C16.1318 31.0492 16.2617 29.6331 16.284 28.42C16.313 26.8431 16.3342 25.2196 15.7645 23.7489C15.6379 23.422 15.8028 23.0597 15.9793 22.7569C16.7363 21.458 17.7862 20.3308 19.0281 19.4835C19.1484 19.4015 19.2756 19.32 19.4197 19.2997C19.8001 19.2459 20.0918 19.6158 20.2951 19.9418C21.0978 21.229 22.201 22.6847 23.7143 22.5787C24.2905 22.5384 24.6101 23.2171 24.7782 23.7697C26.8685 30.6419 30.7933 36.8403 35.3959 42.3551C35.994 43.0717 36.1441 44.0389 36.2928 44.9974C36.4586 46.0661 36.6227 47.1239 37.4046 47.8111C38.0721 48.3978 37.9482 49.4516 37.7681 50.3218C37.7312 50.4999 37.6873 50.6907 37.552 50.8122C37.4516 50.9025 37.3158 50.9401 37.1853 50.9749L33.4468 51.9721ZM22.7497 20.9868C21.922 20.4085 21.207 19.6694 20.6563 18.823C20.5372 18.6399 20.4215 18.4347 20.4425 18.2173C20.4652 17.9809 20.6431 17.7917 20.82 17.6333C21.2571 17.2422 21.751 16.9147 22.2814 16.6645C22.4757 16.5729 22.7265 16.4984 22.8878 16.6402C22.9828 16.7236 23.0128 16.8569 23.0376 16.9809L23.8021 20.8046C23.8473 21.0306 23.6102 21.2342 23.3798 21.2408C23.1494 21.2473 22.9387 21.1189 22.7497 20.9868ZM15.184 28.3824C15.1678 29.1016 15.1128 29.9087 14.5739 30.3852C14.4611 30.3986 14.3861 30.2748 14.3419 30.1702C13.9536 29.2509 13.5599 28.3094 13.4987 27.3134C13.4376 26.3173 13.7714 25.2387 14.5854 24.6613C14.6955 24.5832 14.857 24.5186 14.9543 24.6124C14.9933 24.65 15.01 24.7047 15.0243 24.7571C15.2454 25.5701 15.2281 26.4263 15.2091 27.2686L15.184 28.3824ZM37.1489 52.3053C37.2796 52.4123 37.2936 52.6036 37.2971 52.7724L37.336 54.621C36.5776 54.2006 35.8511 53.7229 35.1647 53.1931C35.0345 53.0927 34.8915 52.9301 34.9712 52.7863C35.0108 52.715 35.0929 52.6806 35.1694 52.6524C35.6601 52.4715 36.1675 52.3358 36.683 52.2475C36.8423 52.2202 37.0238 52.2029 37.1489 52.3053ZM37.1926 45.0234C37.1856 44.94 37.1856 44.849 37.2353 44.7815C37.3662 44.6035 37.6504 44.7647 37.7705 44.9501C38.0599 45.3969 38.1238 45.9821 37.9376 46.4808C37.5127 46.1166 37.239 45.5811 37.1926 45.0234ZM150.149 30.9865C150.904 30.0346 152.282 29.8976 153.497 29.9273C153.781 29.9342 154.073 29.948 154.332 30.0658C155.051 30.3934 155.203 31.3328 155.228 32.1224C155.25 32.8409 155.246 33.5687 155.071 34.266C154.896 34.9633 154.535 35.6351 153.958 36.0631C153.698 36.2554 153.397 36.3956 153.078 36.449C152.586 36.5314 152.082 36.4049 151.614 36.2308C150.99 35.9987 150.399 35.68 149.862 35.2867C149.6 35.0945 149.329 34.843 149.321 34.518C149.301 33.7686 149.385 33.0166 149.569 32.2899C149.687 31.8255 149.851 31.3617 150.149 30.9865ZM152.109 35.7273C153.079 36.0059 154.111 35.2551 154.479 34.3148C154.847 33.3745 154.711 32.3184 154.508 31.3292C154.431 30.9494 154.025 30.7373 153.651 30.6357C153.072 30.4785 152.456 30.4577 151.868 30.5754C151.575 30.6338 151.277 30.734 151.071 30.9503C150.96 31.0682 150.882 31.2138 150.806 31.3574L150.238 32.4319C150.138 32.6209 150.037 32.8116 149.978 33.0172C149.802 33.632 150.035 34.3147 150.464 34.7886C150.893 35.2625 151.494 35.5508 152.109 35.7273ZM139.12 46.5918C140.01 46.9023 140.816 47.4485 141.435 48.1595C141.967 48.7706 142.372 49.564 142.26 50.3663C142.219 50.6609 142.111 50.9418 141.987 51.2121C141.517 52.2361 140.71 53.2173 139.601 53.4156C139.019 53.5196 138.42 53.395 137.86 53.2046C137.213 52.9845 136.597 52.6758 136.033 52.2898C135.733 52.0851 135.436 51.8421 135.305 51.5042C135.215 51.2713 135.212 51.0147 135.216 50.7649C135.224 50.1471 135.265 49.5189 135.48 48.9398C135.753 48.207 136.286 47.6022 136.852 47.0624C137.079 46.8453 137.32 46.6314 137.612 46.5151C138.09 46.3247 138.634 46.4223 139.12 46.5918ZM140.03 51.9769C140.673 51.3406 141.047 50.418 140.945 49.519C140.843 48.62 140.235 47.7764 139.384 47.4694C139.03 47.3419 138.638 47.3063 138.276 47.4066C138.08 47.4606 137.897 47.5527 137.726 47.6616C136.993 48.1275 136.479 48.9223 136.354 49.7814C136.229 50.6405 136.496 51.5489 137.065 52.204C137.43 52.6236 138.025 52.8035 138.577 52.7338C139.128 52.6641 139.635 52.368 140.03 51.9769ZM58.8091 41.2921C58.7792 40.8682 58.2124 40.7571 57.7877 40.7696C55.5576 40.8351 53.3306 41.0022 51.1157 41.2701C50.7519 41.3142 50.7225 41.9007 51.0144 42.1223C51.3064 42.3438 51.7131 42.3027 52.0759 42.251L58.8091 41.2921ZM51.6802 44.1585C51.6994 43.9402 51.9737 43.8612 52.1915 43.8365L65.3264 42.349C65.5639 42.3221 65.817 42.2978 66.0308 42.4048C66.2445 42.5117 66.3823 42.8044 66.2427 42.9985C66.1398 43.1415 65.9425 43.1706 65.767 43.1876L52.3325 44.4913C52.0531 44.5184 51.6556 44.4381 51.6802 44.1585ZM81.1266 46.3709C80.3917 46.5324 79.6375 46.2672 78.9327 46.0038C76.6539 45.1522 74.3839 44.277 72.1231 43.3784C71.2105 43.0157 70.2091 43.5589 69.3883 44.0981C67.0129 45.6585 64.726 47.3534 62.542 49.172C61.981 49.6392 61.1178 49.3115 60.5521 48.8501C60.4328 48.7528 60.3154 48.6491 60.1976 48.545L60.1975 48.5449L60.1974 48.5448L60.1973 48.5447L60.1973 48.5446L60.1972 48.5446L60.1971 48.5445L60.197 48.5444L60.1969 48.5443L60.1968 48.5442L60.1967 48.5442L60.1966 48.5441L60.1965 48.544L60.1965 48.544C59.7558 48.1546 59.3095 47.7601 58.7396 47.6793C57.8634 47.555 57.0926 48.2191 56.4578 48.8357L52.3637 52.8118C51.8131 53.3465 51.2335 54.2029 51.7236 54.7936C52.0469 55.1834 52.6405 55.1635 53.1436 55.1052C55.7701 54.8007 58.3837 54.3738 60.9963 53.947C65.3144 53.2417 69.63 52.5368 73.9975 52.3857C74.9653 52.3522 75.9337 52.346 76.9022 52.3399C77.5086 52.336 78.115 52.3321 78.7213 52.3216C81.456 52.2739 84.1883 52.0897 86.9047 51.7697C87.036 51.7542 87.1857 51.7272 87.2538 51.6138C87.3053 51.5282 87.2924 51.4202 87.2779 51.3213L86.1273 43.4927C86.0688 43.0949 85.9666 42.6351 85.6032 42.4633C85.2359 42.2897 84.8033 42.5135 84.5018 42.7858C84.03 43.212 83.6666 43.7778 83.3082 44.3361C82.7201 45.2519 82.1453 46.147 81.1266 46.3709ZM62.4417 50.6546C64.8991 48.6341 67.4613 46.7413 70.1147 44.9863C70.6595 44.6259 71.3218 44.2569 71.9307 44.4935L78.3648 46.9937C79.4386 47.411 80.6131 47.8337 81.7155 47.4992C82.997 47.1103 83.763 45.8352 84.4084 44.6617C84.5339 44.4334 84.8991 44.4597 85.0799 44.6472C85.2607 44.8347 85.3064 45.1107 85.3436 45.3685L85.8145 48.6333C85.8868 49.1345 85.9579 49.6547 85.8131 50.14C85.6682 50.6254 85.2426 51.0662 84.7362 51.0564C76.4541 50.8965 68.156 51.5794 60.0115 53.0912C59.7606 53.1378 59.5095 53.1852 59.2584 53.2326L59.2582 53.2327L59.2545 53.2334L59.2544 53.2334C57.3087 53.6007 55.3559 53.9694 53.3787 53.976C54.3334 52.6236 55.5433 51.475 56.7447 50.336C57.4043 49.7107 58.2291 49.0362 59.1148 49.2407C59.593 49.3512 59.9598 49.6948 60.3247 50.0367C60.4417 50.1463 60.5586 50.2558 60.6788 50.3573C61.1741 50.7754 61.9411 51.0662 62.4417 50.6546ZM168.694 73.4285C168.475 73.5103 168.229 73.4544 168.006 73.3841C166.491 72.908 165.261 71.8433 164.053 70.7969C163.889 70.6551 163.726 70.5138 163.562 70.3742C161.559 68.6657 159.385 67.1575 157.084 65.8794C156.85 65.7493 156.604 65.6124 156.461 65.3862C156.317 65.16 156.322 64.8156 156.543 64.6646C157.575 63.96 158.244 62.7509 158.293 61.5022C158.306 61.1695 158.682 60.9476 159.014 60.9743C159.346 61.0009 159.636 61.2004 159.907 61.3932L170.424 68.8582C170.628 69.0035 170.849 69.172 170.899 69.418C170.94 69.6188 170.856 69.8218 170.771 70.0085C170.318 71.0093 169.796 71.9792 169.211 72.9094C169.079 73.12 168.927 73.3416 168.694 73.4285ZM158.173 64.5727C158.05 64.7908 157.943 65.1061 158.143 65.2569L166.725 71.7184C167.195 72.0723 167.925 72.404 168.295 71.9466C168.72 71.4215 169.117 70.8736 169.483 70.3062C169.584 70.151 169.686 69.9736 169.65 69.7923C169.617 69.6269 169.478 69.5067 169.347 69.4005C166.197 66.8468 162.863 64.5215 159.378 62.4489L158.173 64.5727ZM153.902 68.5241C154.041 68.2864 154.209 68.0263 154.478 67.9679C154.684 67.9232 154.893 68.0114 155.083 68.1034C156.116 68.6052 157.062 69.2854 157.867 70.1048C158.061 70.3019 158.085 70.6193 157.999 70.8819C157.913 71.1445 157.735 71.3655 157.561 71.5801C157.281 71.925 156.982 72.2838 156.569 72.4474C156.124 72.6241 155.605 72.5389 155.183 72.3116C154.76 72.0843 154.422 71.7286 154.123 71.3534C153.733 70.8641 153.385 70.2772 153.445 69.6546C153.485 69.2466 153.696 68.8782 153.902 68.5241ZM155.71 71.2639C156.36 71.5166 156.775 71.3163 156.792 70.8901C156.803 70.6211 156.569 70.4141 156.355 70.25L155.71 69.7535C155.496 69.5894 155.261 69.4175 154.992 69.4192C154.723 69.4209 154.449 69.6985 154.559 69.944C154.542 70.0626 155.06 71.0112 155.71 71.2639ZM153.145 76.5104C153.303 76.5972 153.471 76.6821 153.652 76.6859C153.832 76.6897 154.028 76.5874 154.073 76.4123C154.177 76.0011 154.449 75.6602 154.715 75.3266C154.744 75.2902 154.773 75.2538 154.802 75.2175C155.093 74.8484 155.375 74.4302 155.383 73.9599C155.391 73.4895 155.001 72.9882 154.535 73.0524C154.168 73.103 153.826 72.8623 153.56 72.6048C153.517 72.5638 153.475 72.5217 153.433 72.4795C153.209 72.2569 152.982 72.0306 152.686 71.9341C152.334 71.8193 151.854 72.0019 151.826 72.3715C151.77 73.1159 151.151 73.6764 150.577 74.1538C150.405 74.2967 150.561 74.5709 150.721 74.7262C151.445 75.4254 152.262 76.0273 153.145 76.5104ZM153.259 75.0921L152.129 74.3275C151.842 74.1331 151.865 73.6568 152.121 73.4228C152.377 73.1888 152.775 73.1709 153.102 73.2881C153.429 73.4052 153.7 73.6349 153.964 73.8602C154.139 74.0093 154.163 74.2807 154.083 74.496C154.003 74.7113 153.84 74.8838 153.682 75.05C153.628 75.1069 153.567 75.1671 153.489 75.1772C153.406 75.1879 153.328 75.1389 153.259 75.0921ZM162.22 75.1424L162.772 73.9682C162.942 73.6086 163.106 73.1636 162.877 72.8385C162.798 72.7256 162.681 72.646 162.567 72.5689L160.556 71.2138C160.339 71.0677 160.104 70.9158 159.842 70.92C159.533 70.9249 159.273 71.1461 159.053 71.3642C158.723 71.6909 158.415 72.0393 158.131 72.4063C157.915 72.6857 157.737 73.1453 158.033 73.3391L161.11 75.3579C161.352 75.5172 161.661 75.6809 161.916 75.5422C162.066 75.4608 162.147 75.2966 162.22 75.1424ZM161.538 74.3112C161.409 74.3409 161.274 74.308 161.147 74.2698C160.37 74.0357 159.659 73.5874 159.113 72.9875C158.931 72.7879 159.034 72.4355 159.265 72.2957C159.496 72.1558 159.796 72.188 160.044 72.2924C160.205 72.3598 160.352 72.4538 160.499 72.5478L160.499 72.548C160.58 72.5996 160.661 72.6512 160.744 72.6984C160.833 72.7493 160.926 72.796 161.02 72.8427C161.284 72.9752 161.549 73.108 161.729 73.3373C161.973 73.6474 161.923 74.2228 161.538 74.3112ZM162.577 75.6228C162.932 75.5385 163.04 75.1769 163.153 74.8011C163.246 74.4905 163.342 74.1702 163.582 73.9886C163.996 73.6758 164.582 73.9372 165.027 74.2024L166.445 75.0456C166.671 75.18 166.902 75.319 167.064 75.526C167.226 75.7329 167.305 76.026 167.192 76.2632C167.117 76.4215 166.973 76.5265 166.829 76.6322C166.711 76.7189 166.593 76.8061 166.51 76.9236C166.403 77.0746 166.363 77.2639 166.324 77.4508C166.275 77.6855 166.227 77.9166 166.048 78.0641C165.721 78.3329 165.236 78.1176 164.875 77.8971L162.878 76.6768C162.677 76.5537 162.465 76.4186 162.366 76.2043C162.267 75.99 162.347 75.6774 162.577 75.6228ZM165.195 76.8345C165.481 76.7368 165.711 76.5248 165.931 76.3183C166.091 76.1688 165.877 75.9225 165.687 75.815L164.463 75.1262C164.336 75.0543 164.158 74.9888 164.059 75.0968C163.74 75.4445 163.694 76.012 163.952 76.4068C164.21 76.8016 164.749 76.9869 165.195 76.8345ZM151.158 76.7917C150.884 76.7145 150.605 76.6359 150.382 76.4833C150.034 76.2465 149.551 76.3038 149.186 76.5133C148.822 76.7227 148.55 77.0583 148.287 77.3862C148.141 77.5682 147.991 77.758 147.935 77.9846C147.879 78.2111 147.946 78.4857 148.149 78.5993L150.283 79.7885C150.444 79.8785 150.625 79.9716 150.805 79.9316C150.985 79.8917 151.109 79.732 151.218 79.583L151.766 78.8277C152.072 78.4073 152.391 77.8714 152.168 77.4021C151.989 77.026 151.579 76.9105 151.158 76.7917ZM150.483 78.7482C150.371 78.7777 150.256 78.7239 150.154 78.6716L148.7 77.9319C148.98 77.5364 149.511 77.3846 149.993 77.4325C150.475 77.4804 150.922 77.6947 151.358 77.9056L150.69 78.5992C150.63 78.6614 150.566 78.7261 150.483 78.7482ZM140.414 49.1706C140.639 49.5137 140.568 49.9722 140.419 50.3544C140.222 50.8582 139.89 51.3249 139.42 51.5929C138.95 51.8608 138.333 51.9 137.876 51.612C137.418 51.324 137.188 50.6835 137.433 50.2015C137.49 50.0901 137.567 49.9913 137.645 49.8925C137.719 49.798 137.793 49.7035 137.849 49.5977C137.886 49.5281 137.915 49.4543 137.943 49.3805L137.943 49.3805C137.985 49.2741 138.026 49.168 138.091 49.0752C138.324 48.7453 138.783 48.6805 139.187 48.6862C139.645 48.6927 140.162 48.7874 140.414 49.1706ZM139.391 49.3885C138.764 49.3806 138.177 49.9062 138.115 50.5298C138.089 50.7847 138.197 51.1016 138.451 51.1367C138.641 51.163 138.808 51.0161 138.936 50.8729C139.206 50.57 139.438 50.233 139.625 49.8725C139.688 49.7515 139.743 49.5963 139.661 49.4878C139.601 49.4088 139.49 49.3898 139.391 49.3885ZM154.38 33.0429C154.332 32.469 153.948 31.9046 153.39 31.7608C152.682 31.5782 151.996 32.077 151.433 32.5449C151.267 32.6833 151.093 32.8321 151.023 33.0367C150.903 33.3839 151.118 33.7497 151.33 34.0496C151.573 34.3931 151.832 34.7384 152.186 34.9654C152.54 35.1924 153.012 35.2806 153.383 35.0833C153.572 34.9827 153.719 34.8185 153.847 34.6466C154.191 34.1845 154.429 33.6167 154.38 33.0429ZM152.809 34.5141C152.569 34.5501 152.32 34.4531 152.144 34.2867C151.879 34.0374 151.774 33.6366 151.866 33.2849C151.964 32.9146 152.275 32.6087 152.646 32.5174C153.018 32.426 153.435 32.553 153.693 32.8361C153.688 32.8806 153.683 32.9253 153.678 32.9701C153.674 33.0029 153.671 33.0358 153.668 33.0686C153.64 33.3325 153.613 33.5968 153.521 33.8447C153.403 34.1655 153.148 34.4634 152.809 34.5141ZM133.742 124.029C135.048 119.408 137.514 115.215 139.954 111.08C140.367 110.381 140.878 109.611 141.679 109.478C141.995 109.426 142.161 109.083 142.269 108.782C143.592 105.069 143.72 100.94 142.628 97.1523C142.316 96.0712 142.7 94.9251 143.08 93.866L146.019 85.6662C145.713 85.1375 145.135 84.9052 144.55 84.6699C144.06 84.473 143.565 84.274 143.219 83.8976C142.243 82.8341 142.979 81.1432 143.744 79.919L157.142 58.4627C157.689 57.5865 158.889 57.3118 159.896 57.5453C160.902 57.7788 161.762 58.4121 162.589 59.0303L172.361 66.3287C174.109 67.6344 176.039 69.3023 175.938 71.4819C175.882 72.688 175.192 73.7601 174.524 74.7661L166.78 86.4353C165.779 87.9442 165.658 89.7787 165.536 91.6215C165.48 92.455 165.425 93.2902 165.288 94.0977C164.62 98.0376 161.997 101.3 159.483 104.426L159.183 104.8C156.581 108.04 153.978 111.659 153.831 115.812C153.657 120.761 151.306 125.596 147.519 128.788L150.814 120.795C151.598 118.894 152.323 116.529 151.012 114.945C150.419 114.229 149.522 113.85 148.661 113.497L143.544 111.397C143.191 111.252 142.827 111.105 142.446 111.103C141.257 111.096 140.55 112.385 140.068 113.472C138.4 117.231 136.271 120.785 133.742 124.029ZM150.568 113.173C151.446 113.498 152.681 113.695 153.097 112.857C155.109 108.801 157.177 104.666 160.38 101.465C162.226 99.6206 163.358 97.159 163.998 94.6287C164.639 92.0985 164.82 89.4781 164.999 86.8743C164.221 87.1573 164.154 88.2062 164.157 89.0335C164.164 90.857 163.845 92.6814 163.22 94.3944C163.089 94.753 162.914 95.1404 162.563 95.2916C162.213 95.4429 161.697 95.1391 161.814 94.776C162.718 91.9896 163.055 89.0205 162.798 86.1024C162.719 85.1976 162.55 84.2297 161.907 83.5885C161.977 85.0171 162.047 86.4521 161.902 87.8751C161.651 90.337 160.769 92.6842 159.894 94.999C159.78 95.2996 159.643 95.6272 159.354 95.7684C159.066 95.9096 158.618 95.6858 158.693 95.3735L160.003 89.9574C160.724 86.9794 161.432 83.776 160.317 80.9222C159.755 80.8846 159.623 81.6877 159.673 82.2484C160.017 86.0889 158.955 89.9007 157.904 93.6104C157.781 94.0435 157.347 94.5851 157.009 94.2872C156.864 94.1588 156.857 93.9374 156.869 93.7437C156.935 92.6527 157.234 91.5965 157.533 90.5415L157.533 90.5413C157.626 90.2139 157.718 89.8867 157.804 89.5586C158.594 86.5331 158.795 83.3552 158.394 80.2542C157.702 81.1413 157.408 82.2664 157.131 83.357L155.487 89.8302C154.743 92.7564 153.793 95.9734 151.216 97.5454C151.01 97.6706 150.772 97.787 150.538 97.7315C150.247 97.6625 150.083 97.3621 149.961 97.089C148.316 93.3833 148.111 89.0602 149.397 85.2152C149.475 84.9818 149.238 84.738 148.992 84.7187C148.747 84.6994 148.517 84.833 148.316 84.9749C146.206 86.4641 145.397 89.1619 144.726 91.6562L143.833 94.9729C143.703 95.4573 143.572 95.9461 143.544 96.4471C143.503 97.2084 143.702 97.9533 143.9 98.6943C143.945 98.866 143.991 99.0376 144.034 99.209C144.893 102.655 144.505 106.397 142.958 109.594C142.73 110.065 143.332 110.494 143.823 110.675L150.568 113.173ZM153.903 81.5198C153.551 81.2775 153.174 81.0007 153.065 80.5874C152.898 79.9537 153.502 79.3171 154.151 79.2318C154.801 79.1466 155.437 79.4603 155.975 79.8337C156.734 80.3598 157.694 79.5576 158.262 78.8298C157.496 78.3715 156.765 77.6601 156.735 76.7679C156.704 75.8757 157.789 75.0259 158.511 75.551C158.791 75.7547 159.13 75.8794 159.465 76.0027C159.967 76.1874 160.461 76.3691 160.736 76.8088C161.05 77.309 160.938 77.9852 160.619 78.4818C160.301 78.9783 159.81 79.3348 159.331 79.6792C160.018 79.7473 160.688 79.9926 161.257 80.3848L161.878 78.5773C161.926 78.4371 161.978 78.2905 162.088 78.1915C162.301 78.0007 162.632 78.0597 162.904 78.1461C163.618 78.3728 164.319 78.7267 164.79 79.3092C165.262 79.8917 165.458 80.7378 165.129 81.4109C164.799 82.084 163.869 82.4429 163.24 82.0371C163.109 81.9529 162.977 81.8403 162.846 81.7278C162.495 81.4269 162.144 81.1261 161.805 81.3669C162.84 82.1729 163.551 83.3837 163.75 84.6802C167.009 79.717 170.232 74.7309 173.42 69.7223C173.724 69.2442 173.97 68.4906 173.474 68.2157C171.357 67.0412 169.486 65.4682 167.619 63.8989C165.262 61.9181 162.913 59.9432 160.085 58.7835C159.906 58.7099 159.71 58.6387 159.522 58.6882C159.325 58.74 159.187 58.911 159.063 59.0724C153.798 65.945 149.072 73.2311 144.944 80.8416C144.368 81.9033 145.139 83.1689 145.876 84.1256C146.245 84.6036 146.956 85.1085 147.358 84.6582C147.864 84.0907 148.694 83.7662 149.411 84.0197C150.129 84.2731 150.575 85.2058 150.185 85.8588C149.903 86.3311 150.455 86.8561 150.937 87.1204C151.901 87.6485 152.89 88.1311 153.9 88.5663C154.04 88.6268 154.203 88.6861 154.34 88.6177C154.47 88.5525 154.523 88.3976 154.563 88.2578L155.682 84.4103C155.866 83.7776 155.989 82.9564 155.446 82.5826L153.903 81.5198ZM173.906 70.7344C173.757 70.6835 173.622 70.8321 173.534 70.9626L165.162 83.4954C164.937 83.8325 164.706 84.1832 164.64 84.5833C164.575 84.9833 164.722 85.4485 165.086 85.6267C165.689 85.9216 166.32 85.3018 166.706 84.7533L174.485 73.7282C175.063 72.9096 174.574 71.7905 174.08 70.9191C174.037 70.8437 173.988 70.7625 173.906 70.7344ZM150.333 87.4701C150.186 87.3628 149.965 87.4268 149.842 87.561C149.719 87.6952 149.668 87.8791 149.622 88.0554C149.507 88.4893 149.392 88.9276 149.375 89.3761C149.358 89.8246 149.44 90.2703 149.521 90.7117L150.323 95.0698C150.356 95.2525 150.396 95.4467 150.525 95.5798C150.655 95.713 150.907 95.7419 151.012 95.5885C152.199 93.853 153.402 92.0836 154.023 90.0749C154.1 89.8252 154.122 89.4741 153.878 89.382C152.618 88.9078 151.422 88.2628 150.333 87.4701ZM159.592 76.7171C159.19 76.3343 158.659 76.0898 158.107 76.0335C157.603 75.9821 157.313 76.6892 157.543 77.14C157.773 77.5907 158.28 77.8141 158.75 78.0023C159.081 78.1352 159.483 78.2604 159.772 78.0506C160.188 77.7491 159.964 77.0711 159.592 76.7171ZM156.287 81.7673C156.45 81.6508 156.472 81.4124 156.426 81.2167C156.253 80.479 155.444 80.1021 154.718 79.8861C154.437 79.8025 154.088 79.7442 153.89 79.9603C153.724 80.1407 153.759 80.4395 153.902 80.6384C154.045 80.8373 154.268 80.9599 154.483 81.0759L155.605 81.6801C155.818 81.7949 156.089 81.9077 156.287 81.7673ZM162.669 79.1085C162.431 79.4265 162.456 79.8889 162.654 80.2328C162.852 80.5766 163.195 80.8155 163.557 80.9781C163.681 81.0338 163.818 81.0828 163.951 81.0563C164.066 81.0334 164.164 80.956 164.234 80.8623C164.493 80.5161 164.367 79.9945 164.071 79.68C163.774 79.3655 163.351 79.208 162.945 79.0606C162.875 79.0351 162.793 79.0106 162.729 79.049C162.705 79.0636 162.686 79.0858 162.669 79.1085ZM50.1734 107.933C50.3288 106.785 50.5464 105.522 51.4482 104.795C52.1672 104.216 53.1544 104.123 54.0778 104.106C57.1027 104.047 60.1374 104.539 62.9895 105.548C63.8918 105.868 64.8361 106.288 65.3294 107.108C65.8635 107.996 65.7333 109.116 65.5857 110.142L63.2949 126.056C64.8744 121.447 66.0085 116.686 66.676 111.86C66.9874 109.608 67.096 107.025 65.5247 105.383C63.0717 102.819 63.1386 99.1676 63.2067 95.4548C63.2654 92.2505 63.3249 89.0005 61.7662 86.3648C61.2576 85.5048 62.3915 84.617 63.3345 84.2868C67.4911 82.8314 71.922 82.1636 76.3229 82.3293C77.1298 88.7029 77.3481 95.1509 76.9741 101.564C76.8902 103.003 78.9301 103.374 80.3622 103.215L130.042 97.7064C130.29 97.6788 130.559 97.6417 130.736 97.4645C130.941 97.2574 130.952 96.9319 130.949 96.64C130.831 85.0001 130.496 73.3624 129.944 61.735C129.922 61.2812 129.865 60.7601 129.489 60.5046C129.207 60.3131 128.837 60.3385 128.498 60.3713L93.0382 63.8088C95.3676 52.8221 97.7104 41.6292 96.6479 30.4487C88.8963 35.617 78.8938 35.5782 69.5933 35.0309C69.2067 35.0082 68.8194 34.985 68.4313 34.9618C59.4809 34.4269 50.1472 33.8691 42.1008 37.7408C46.3139 48.9114 50.5753 61.1044 47.0732 72.5178C46.7634 73.5275 46.3947 74.5194 46.0262 75.5109C45.4581 77.0395 44.8904 78.567 44.5393 80.1571C43.9604 82.7787 44.0475 85.7139 45.5989 87.9049C47.8455 91.0776 49.6307 94.6851 50.0379 98.5513C50.4244 102.22 49.5609 105.859 48.6985 109.493C47.7974 113.291 46.8974 117.084 47.4251 120.902C47.5144 121.548 47.6757 122.243 48.1814 122.655L50.1734 107.933ZM53.6883 61.8298C54.6278 61.863 55.0012 63.0424 55.1214 63.9748L56.0726 71.3578C54.2153 70.3949 51.6026 72.0293 51.6559 74.1206C50.091 71.0999 49.8532 67.6381 49.6179 64.2113C49.5667 63.4658 49.5156 62.7219 49.451 61.9846C48.76 54.1006 46.384 46.4749 44.0226 38.9212C43.6858 37.8441 45.1403 37.1456 46.2568 36.9819C53.5841 35.9076 61 36.0559 68.4193 36.2043C71.7822 36.2716 75.1459 36.3388 78.5023 36.2923C84.4663 36.2096 90.7769 35.6451 95.6146 32.1563C96.702 39.4051 95.2241 46.7187 93.7649 53.9401C93.5675 54.917 93.3704 55.8921 93.1801 56.8652C91.5828 65.0319 90.4957 73.737 93.5517 81.477C93.6805 81.8031 93.2414 82.0491 92.8982 82.1207C90.3847 82.6449 87.7858 82.7579 85.2363 82.4536C84.1427 82.323 83.0605 82.1167 81.9782 81.9104C81.1631 81.755 80.348 81.5996 79.5277 81.4766C73.3523 80.55 66.9065 81.5117 61.2705 84.2006C61.0446 84.3084 60.776 84.258 60.5394 84.1761C59.398 83.781 58.5838 82.7264 58.1775 81.5889C57.7712 80.4514 57.713 79.2237 57.6588 78.017L57.4315 72.9562C57.4234 72.7743 57.471 72.5274 57.6529 72.5218C67.5257 72.2133 77.3873 71.5477 87.212 70.5267C86.7966 68.2022 86.7554 65.8112 87.0905 63.4738C87.302 61.9982 85.9143 60.6528 84.4368 60.4553C82.9592 60.2579 81.4979 60.9272 80.2711 61.7739C79.8121 62.0907 79.3714 62.4348 78.931 62.7787C78.1941 63.354 77.4579 63.9288 76.6381 64.3742C76.1016 64.6658 75.4563 64.9009 74.8929 64.6655C74.2033 64.3773 73.9722 63.557 73.7658 62.8248C73.7529 62.7787 73.74 62.733 73.7271 62.6879C73.4582 61.7448 73.0142 60.8063 72.2332 60.2132C71.4522 59.6201 70.2739 59.4724 69.503 60.0786C68.844 60.5968 68.6356 61.4943 68.5252 62.3254C68.5154 62.3993 68.5058 62.4737 68.4963 62.5482C68.3984 63.3124 68.2972 64.1022 67.8412 64.715C67.3406 65.3876 66.2236 65.6759 65.6746 65.0422C64.5888 63.789 62.6836 63.5262 61.0849 63.966C59.4862 64.4058 58.1182 65.4216 56.7918 66.4165C55.9916 65.1643 55.9254 63.4781 56.6249 62.1671L56.6366 62.1452C56.7682 61.8991 56.9193 61.6164 56.803 61.3657C56.7309 61.2105 56.5721 61.1152 56.4148 61.0478C55.4741 60.6444 54.2722 60.9891 53.6883 61.8298ZM81.957 82.9929C82.483 83.0978 83.1295 83.3323 83.1621 83.8677C83.4722 88.9734 87.5299 93.5616 92.5186 94.6916C97.5074 95.8217 103.036 93.5365 105.945 89.329C108.854 85.1214 109.082 79.2764 106.696 74.7514C104.138 69.8987 97.922 67.3216 92.6809 68.9411C92.4377 67.8688 92.465 66.7361 92.7598 65.6768C92.8145 65.4801 92.8859 65.2744 93.0446 65.146C93.1998 65.0205 93.4094 64.992 93.6074 64.9681L108.372 63.1899C109.67 63.0335 110.971 62.877 112.278 62.8662C117.9 62.8199 123.518 62.2593 129.038 61.1937C129.896 72.7117 130.299 84.2634 130.248 95.8132C130.245 96.361 130.078 97.0891 129.531 97.1051C120.239 97.3758 111.02 98.5981 101.798 99.8208C95.6019 100.642 89.4042 101.464 83.1816 101.998C81.7947 102.116 80.3982 102.221 79.0125 102.089C78.7613 102.065 78.478 102.014 78.3415 101.802C78.2591 101.674 78.2498 101.513 78.243 101.361L77.4145 82.8878C77.4038 82.6491 77.4182 82.3613 77.6249 82.2414C77.7619 82.162 77.9334 82.1906 78.0887 82.2215L81.957 82.9929ZM56.5356 78.716C56.3888 79.6754 56.2236 80.7549 56.8522 81.4809C59.1968 84.1886 61.6325 87.0816 62.2557 90.6088C62.5468 92.2559 62.4217 93.951 62.2972 95.6393C62.1404 97.7659 61.9844 99.8816 62.6616 101.877C62.6793 101.929 62.6975 101.981 62.7158 102.033C62.8403 102.389 62.9671 102.751 62.9268 103.123C62.8805 103.548 62.5108 103.977 62.0886 103.904L57.187 103.059C55.5639 102.779 53.849 102.506 52.3071 103.086C52.009 103.198 51.6659 103.001 51.5061 102.726C51.3464 102.45 51.3254 102.119 51.3115 101.801C51.2948 101.416 51.2823 101.03 51.2697 100.642C51.1905 98.2015 51.1098 95.7157 49.9804 93.5777L46.3768 86.7563C45.8449 85.7493 45.3005 84.6973 45.2638 83.559C45.2393 82.7989 45.4445 82.0522 45.6479 81.3194L47.4456 74.8438C47.8241 73.4805 48.2245 72.0739 49.1208 70.9791C51.2982 74.6732 51.5131 79.4523 49.6759 83.3269C49.506 83.6854 50.0251 84.0544 50.3952 83.9116C50.7653 83.7687 50.9532 83.3633 51.0837 82.9886C51.6062 81.4881 51.7895 79.9062 51.973 78.322C52.1215 77.0403 52.2701 75.757 52.5988 74.5142C52.8002 73.7529 53.0906 72.9756 53.6786 72.4516C54.2665 71.9276 55.2254 71.7482 55.8414 72.2388C56.3129 72.6142 56.4662 73.2559 56.5559 73.8518C56.7925 75.4243 56.7914 77.0323 56.5526 78.6044C56.547 78.6414 56.5413 78.6786 56.5356 78.716ZM64.9931 65.9319C65.7155 66.4848 66.4232 67.0264 67.2901 66.9261C68.3919 66.7986 69.0786 65.6643 69.3986 64.6023C69.4686 64.3698 69.5309 64.1319 69.5934 63.8935C69.8163 63.0426 70.0409 62.185 70.6247 61.5448C70.7944 61.3587 71.0387 61.1856 71.2798 61.2585C71.475 61.3176 71.5887 61.5153 71.6794 61.698C71.8078 61.9569 71.9294 62.2202 72.051 62.4836C72.394 63.2264 72.7371 63.9695 73.2351 64.6149C73.9097 65.4892 74.9593 66.1769 76.0569 66.0566C77.0386 65.949 77.8055 65.254 78.553 64.5765C78.7063 64.4376 78.8587 64.2994 79.012 64.1672C80.8125 62.6146 83.1574 61.7062 85.534 61.6408C85.2134 62.4419 85.4272 63.3157 85.6369 64.1733C85.6874 64.3797 85.7377 64.5852 85.7802 64.7886C86.1157 66.3925 85.9461 68.0983 85.3014 69.6048L69.4279 70.8269C65.7223 71.1121 62.0073 71.3977 58.293 71.267C58.0583 71.2587 57.8177 71.2475 57.6019 71.1551C57.1942 70.9807 56.952 70.5456 56.8643 70.1109C56.6675 69.1363 57.1169 68.1213 57.7975 67.3964C58.478 66.6715 59.3669 66.1834 60.2399 65.7074C61.1483 65.212 62.1569 64.7001 63.1698 64.9116C63.8438 65.0523 64.423 65.4956 64.9931 65.9319ZM95.0513 89.0545C92.6465 89.005 90.563 87.0431 89.849 84.7462C89.7033 84.2773 90.0065 83.7629 90.4246 83.5054C90.8428 83.2479 91.3488 83.1871 91.8368 83.1322L95.3602 82.7364C94.2887 80.6537 93.5256 78.4127 93.1033 76.1089C93.065 75.8999 93.03 75.6804 93.0961 75.4785C93.2121 75.1239 93.5942 74.9373 93.9478 74.8185C96.8105 73.8564 100.248 75.0244 101.931 77.5318C103.615 80.0392 103.394 83.6636 101.418 85.9477C100.563 86.9366 99.442 87.6665 98.2612 88.2281C97.2542 88.7071 96.1661 89.0775 95.0513 89.0545ZM106.463 76.6754C106.89 78.0884 107.014 79.5746 107.073 81.0497C106.112 80.9042 105.142 80.8216 104.17 80.8027C103.98 78.3215 102.328 76.0797 100.157 74.8637C97.9863 73.6476 95.3658 73.3848 92.9124 73.8012C92.8917 73.4514 92.8279 73.0864 92.7641 72.7215C92.5958 71.7584 92.4276 70.7953 93.0503 70.1116C93.4264 69.6987 93.9994 69.5335 94.5486 69.4312C97.0498 68.9652 99.7168 69.4535 101.891 70.7753C104.065 72.0972 105.725 74.2403 106.463 76.6754ZM88.826 84.4959C88.822 84.5417 88.8181 84.5867 88.816 84.6297C88.7998 84.9726 88.9595 85.2871 89.1177 85.5984C89.1601 85.6818 89.2024 85.765 89.2411 85.8485C89.4244 86.2433 89.5133 86.7635 89.2069 87.0727C88.4656 87.8209 87.8106 88.6544 87.2589 89.5516C87.1224 89.7735 86.7866 89.7916 86.5622 89.6593C86.3378 89.527 86.1986 89.291 86.069 89.0651C85.2489 87.6351 84.4082 86.1393 84.306 84.4941C84.2932 84.2895 84.3157 84.0418 84.4972 83.9464C84.5771 83.9044 84.6714 83.9032 84.7617 83.9029L88.4297 83.8918C88.5173 83.8915 88.6096 83.8924 88.6858 83.9357C88.8657 84.038 88.8451 84.2754 88.826 84.4959Z" fill="#00160A"/>
</svg>
