<svg width="24" height="24" viewBox="0 0 24 24" fill="none" xmlns="http://www.w3.org/2000/svg">
<path d="M5.30016 18.7L12.3502 16.2L7.80016 11.65L5.30016 18.7ZM23.0252 7.02499C22.8752 7.17499 22.7002 7.24999 22.5002 7.24999C22.3002 7.24999 22.1252 7.17499 21.9752 7.02499L21.9002 6.94999C21.6668 6.71665 21.3752 6.59999 21.0252 6.59999C20.6752 6.59999 20.3835 6.71665 20.1502 6.94999L15.0752 12.025C14.9252 12.175 14.7502 12.25 14.5502 12.25C14.3502 12.25 14.1752 12.175 14.0252 12.025C13.8752 11.875 13.8002 11.7 13.8002 11.5C13.8002 11.3 13.8752 11.125 14.0252 10.975L19.1002 5.89999C19.6335 5.36665 20.2752 5.09999 21.0252 5.09999C21.7752 5.09999 22.4168 5.36665 22.9502 5.89999L23.0252 5.97499C23.1752 6.12499 23.2502 6.29999 23.2502 6.49999C23.2502 6.69999 23.1752 6.87499 23.0252 7.02499ZM9.97516 4.02499C10.1252 3.87499 10.3002 3.79999 10.5002 3.79999C10.7002 3.79999 10.8752 3.87499 11.0252 4.02499L11.1502 4.14999C11.6835 4.68332 11.9502 5.31665 11.9502 6.04999C11.9502 6.78332 11.6835 7.41665 11.1502 7.94999L11.0752 8.02499C10.9252 8.17499 10.7502 8.24999 10.5502 8.24999C10.3502 8.24999 10.1752 8.17499 10.0252 8.02499C9.87516 7.87499 9.80016 7.69999 9.80016 7.49999C9.80016 7.29999 9.87516 7.12499 10.0252 6.97499L10.1002 6.89999C10.3335 6.66666 10.4502 6.38332 10.4502 6.04999C10.4502 5.71665 10.3335 5.43332 10.1002 5.19999L9.97516 5.07499C9.82516 4.92499 9.75016 4.74999 9.75016 4.54999C9.75016 4.34999 9.82516 4.17499 9.97516 4.02499ZM14.0252 2.02499C14.1752 1.87499 14.3502 1.79999 14.5502 1.79999C14.7502 1.79999 14.9252 1.87499 15.0752 2.02499L16.1502 3.09999C16.6835 3.63332 16.9502 4.27499 16.9502 5.02499C16.9502 5.77499 16.6835 6.41665 16.1502 6.94999L13.0752 10.025C12.9252 10.175 12.7502 10.25 12.5502 10.25C12.3502 10.25 12.1752 10.175 12.0252 10.025C11.8752 9.87499 11.8002 9.69999 11.8002 9.49999C11.8002 9.29999 11.8752 9.12499 12.0252 8.97499L15.1002 5.89999C15.3335 5.66665 15.4502 5.37499 15.4502 5.02499C15.4502 4.67499 15.3335 4.38332 15.1002 4.14999L14.0252 3.07499C13.8752 2.92499 13.8002 2.74999 13.8002 2.54999C13.8002 2.34999 13.8752 2.17499 14.0252 2.02499ZM22.0252 14.025C21.8752 14.175 21.7002 14.25 21.5002 14.25C21.3002 14.25 21.1252 14.175 20.9752 14.025L19.9002 12.95C19.6668 12.7167 19.3752 12.6 19.0252 12.6C18.6752 12.6 18.3835 12.7167 18.1502 12.95L17.0752 14.025C16.9252 14.175 16.7502 14.25 16.5502 14.25C16.3502 14.25 16.1752 14.175 16.0252 14.025C15.8752 13.875 15.8002 13.7 15.8002 13.5C15.8002 13.3 15.8752 13.125 16.0252 12.975L17.1002 11.9C17.6335 11.3667 18.2752 11.1 19.0252 11.1C19.7752 11.1 20.4168 11.3667 20.9502 11.9L22.0252 12.975C22.1752 13.125 22.2502 13.3 22.2502 13.5C22.2502 13.7 22.1752 13.875 22.0252 14.025ZM2.70016 20L6.47516 9.49999C6.5585 9.28332 6.68783 9.11665 6.86316 8.99999C7.0385 8.88332 7.22583 8.82499 7.42516 8.82499C7.5585 8.82499 7.6835 8.84999 7.80016 8.89999C7.91683 8.94999 8.02516 9.02499 8.12516 9.12499L14.8752 15.875C14.9752 15.975 15.0502 16.0833 15.1002 16.2C15.1502 16.3167 15.1752 16.4417 15.1752 16.575C15.1752 16.775 15.1168 16.9627 15.0002 17.138C14.8835 17.3133 14.7168 17.4423 14.5002 17.525L4.00016 21.3C3.80016 21.3833 3.6085 21.396 3.42516 21.338C3.24183 21.28 3.0835 21.184 2.95016 21.05C2.81683 20.916 2.72083 20.7577 2.66216 20.575C2.6035 20.3923 2.61616 20.2007 2.70016 20Z" fill="white"/>
</svg>
